<svg width="30" height="30" viewBox="0 0 30 30" fill="none" xmlns="http://www.w3.org/2000/svg">
<mask id="mask0_5253_41844" style="mask-type:luminance" maskUnits="userSpaceOnUse" x="5" y="5" width="20" height="20">
<path d="M25 5H5V25H25V5Z" fill="white"/>
</mask>
<g mask="url(#mask0_5253_41844)">
<path d="M23.885 10.0926C23.0541 9.17376 21.6661 8.71435 19.6525 8.71435H19.418V8.67525C19.418 7.03312 19.418 5 15.7427 5H14.257C10.5817 5 10.5817 7.04289 10.5817 8.67525V8.72413H10.3472C8.32381 8.72413 6.94559 9.18353 6.11475 10.1023C5.14706 11.1776 5.17639 12.6242 5.27413 13.6114L5.28391 13.6798L5.35961 14.4748C5.37356 14.6212 5.4524 14.7535 5.57546 14.834C5.80986 14.9874 6.20216 15.2402 6.43731 15.3708C6.57416 15.4588 6.72078 15.537 6.8674 15.6152C8.53885 16.534 10.3765 17.1498 12.2434 17.4528C12.3314 18.3716 12.7322 19.4468 14.8728 19.4468C17.0134 19.4468 17.4337 18.3814 17.5021 17.4333C19.4962 17.1107 21.4218 16.4167 23.1616 15.4002C23.2203 15.3708 23.2594 15.3415 23.3083 15.3122C23.6961 15.093 24.0983 14.823 24.4651 14.5585C24.5755 14.4787 24.6462 14.3555 24.6613 14.2202L24.6767 14.0806L24.7256 13.6212C24.7353 13.5625 24.7353 13.5137 24.7451 13.4452C24.8233 12.458 24.8038 11.1091 23.885 10.0926ZM16.0653 16.7882C16.0653 17.8243 16.0653 17.9807 14.863 17.9807C13.6607 17.9807 13.6607 17.7949 13.6607 16.7979V15.5663H16.0653V16.7882ZM11.9795 8.71435V8.67525C11.9795 7.01357 11.9795 6.39777 14.257 6.39777H15.7427C18.0202 6.39777 18.0202 7.02334 18.0202 8.67525V8.72413H11.9795V8.71435Z" fill="#797979"/>
<path d="M23.6735 16.6957C24.0191 16.5312 24.4171 16.8052 24.3825 17.1864L24.0317 21.0511C23.8264 23.006 23.0249 25 18.7241 25H11.2758C6.97498 25 6.17347 23.006 5.9682 21.0609L5.63517 17.3975C5.60091 17.0207 5.9899 16.747 6.33459 16.903C7.44832 17.4069 9.50406 18.3009 10.774 18.6335C10.9346 18.6756 11.0645 18.7905 11.1348 18.9409C11.7281 20.2098 13.0148 20.8849 14.8729 20.8849C16.7126 20.8849 18.0155 20.1838 18.6108 18.9118C18.6813 18.7613 18.8113 18.6463 18.972 18.6041C20.3205 18.2493 22.5086 17.2499 23.6735 16.6957Z" fill="#797979"/>
</g>
</svg>
