<svg width="30" height="30" viewBox="0 0 30 30" fill="none" xmlns="http://www.w3.org/2000/svg">
<path d="M7.5 15.75C5.8455 15.75 4.5 14.4045 4.5 12.75C4.5 11.0955 5.8455 9.75 7.5 9.75C9.1545 9.75 10.5 11.0955 10.5 12.75C10.5 14.4045 9.1545 15.75 7.5 15.75ZM8.8275 16.2525C7.9725 16.5825 7.0275 16.5825 6.1725 16.2525C5.955 16.17 5.7075 16.2 5.5125 16.32C4.97291 16.6568 4.52797 17.1255 4.21962 17.6819C3.91126 18.2382 3.74965 18.8639 3.75 19.5V22.5C3.75 22.9125 4.0875 23.25 4.5 23.25H8.25V19.5C8.25 18.3375 8.5575 17.205 9.1125 16.215C9.015 16.2 8.9175 16.215 8.8275 16.2525ZM22.5 15.75C24.1545 15.75 25.5 14.4045 25.5 12.75C25.5 11.0955 24.1545 9.75 22.5 9.75C20.8455 9.75 19.5 11.0955 19.5 12.75C19.5 14.4045 20.8455 15.75 22.5 15.75ZM24.4875 16.32C24.2925 16.2 24.045 16.17 23.8275 16.2525C22.9725 16.5825 22.0275 16.5825 21.1725 16.2525C21.0828 16.2138 20.9841 16.2009 20.8875 16.215C21.451 17.2183 21.7479 18.3493 21.75 19.5V23.25H25.5C25.9125 23.25 26.25 22.9125 26.25 22.5V19.5C26.25 18.2025 25.59 17.0175 24.4875 16.32ZM15 14.25C12.9323 14.25 11.25 12.5677 11.25 10.5C11.25 8.43225 12.9323 6.75 15 6.75C17.0678 6.75 18.75 8.43225 18.75 10.5C18.75 12.5677 17.0678 14.25 15 14.25ZM20.25 19.5C20.2498 18.6752 20.0547 17.8621 19.6807 17.127C19.3066 16.392 18.7641 15.7557 18.0975 15.27C17.8725 15.105 17.5725 15.0825 17.325 15.2025C16.8225 15.4575 16.29 15.615 15.75 15.69V19.5C15.75 19.9125 15.4125 20.25 15 20.25C14.5875 20.25 14.25 19.9125 14.25 19.5V15.69C13.71 15.615 13.1775 15.4575 12.675 15.2025C12.4275 15.0825 12.1275 15.105 11.9025 15.27C11.2359 15.7557 10.6934 16.392 10.3193 17.127C9.94527 17.8621 9.7502 18.6752 9.75 19.5V23.25H20.25V19.5Z" fill="#797979"/>
</svg>
