<svg width="30" height="30" viewBox="0 0 30 30" fill="none" xmlns="http://www.w3.org/2000/svg">
<path d="M23.8852 24.2596L22.3009 18.4631C22.2653 18.3327 22.1857 18.2187 22.0756 18.1403C19.5643 16.3518 20.3875 16.938 18.2406 15.4092C19.0555 14.5718 19.5253 13.4397 19.5253 12.2546C19.5253 9.89211 19.541 9.76281 19.4717 9.3318C19.4461 6.85867 17.5717 5 15.0911 5H14.9089C12.4283 5 10.5539 6.85867 10.5283 9.33184C10.4591 9.76285 10.4748 9.89203 10.4748 12.2546C10.4748 13.4396 10.9445 14.5718 11.7595 15.4093C9.04263 17.3439 10.6301 16.2134 7.92442 18.1403C7.81434 18.2187 7.73474 18.3328 7.69911 18.4631L6.11477 24.2596C6.01294 24.6322 6.29391 25 6.67997 25H14.4141V18.8079L15 18.423L15.586 18.8079V25H23.3201C23.7064 25 23.987 24.6319 23.8852 24.2596ZM14.6174 6.89852H15.3827C15.7063 6.89852 15.9686 7.16086 15.9686 7.48445C15.9686 7.80805 15.7063 8.07039 15.3827 8.07039H14.6174C14.2938 8.07039 14.0315 7.80805 14.0315 7.48445C14.0315 7.16086 14.2938 6.89852 14.6174 6.89852ZM14.4141 17.4057L13.1253 18.2526L11.406 17.0996L12.7225 16.1621C13.2423 16.4648 13.8175 16.6605 14.4141 16.7374V17.4057ZM15 15.6031C13.1389 15.6031 11.6466 14.0927 11.6466 12.2546C11.6466 11.835 11.6461 11.4878 11.6458 11.197L11.9608 11.6569C12.0146 11.7354 12.0867 11.7997 12.1709 11.8441C12.2552 11.8885 12.3489 11.9117 12.4441 11.9117H17.5559C17.6511 11.9117 17.7449 11.8885 17.8291 11.8441C17.9134 11.7997 17.9855 11.7354 18.0393 11.6569L18.3543 11.197C18.3539 11.4877 18.3534 11.835 18.3534 12.2546C18.3534 14.0763 16.8777 15.6031 15 15.6031ZM15.5859 17.4057V16.7374C16.1826 16.6605 16.7578 16.4649 17.2775 16.1621L18.594 17.0996L16.8748 18.2525L15.5859 17.4057ZM19.9777 22.5036H17.9231C17.5995 22.5036 17.3371 22.2413 17.3371 21.9177C17.3371 21.5941 17.5995 21.3318 17.9231 21.3318H19.9777C20.3013 21.3318 20.5636 21.5941 20.5636 21.9177C20.5636 22.2413 20.3013 22.5036 19.9777 22.5036Z" fill="#797979"/>
</svg>
