<svg width="30" height="30" viewBox="0 0 30 30" fill="none" xmlns="http://www.w3.org/2000/svg">
<g clip-path="url(#clip0_5450_15097)">
<path d="M4.22338 20H1.25012C1.25012 20.4973 1.44766 20.9742 1.79929 21.3258C2.15092 21.6774 2.62783 21.875 3.12511 21.875H3.45323C3.5146 21.1865 3.78311 20.5328 4.22338 20ZM18.7499 20H9.52671C9.96694 20.5328 10.2354 21.1865 10.2967 21.875H18.7499C18.9157 21.875 19.0747 21.8091 19.1919 21.6919C19.3091 21.5747 19.375 21.4157 19.375 21.25V20.625C19.375 20.4592 19.3091 20.3003 19.1919 20.1831C19.0747 20.0658 18.9157 20 18.7499 20Z" fill="#797979"/>
<path d="M6.87508 24.3749C8.08319 24.3749 9.06255 23.3956 9.06255 22.1875C9.06255 20.9794 8.08319 20 6.87508 20C5.66698 20 4.68762 20.9794 4.68762 22.1875C4.68762 23.3956 5.66698 24.3749 6.87508 24.3749Z" fill="#797979"/>
<path d="M29.7197 16.1234L27.3182 10.8404C27.1191 10.4039 26.7989 10.0337 26.3955 9.77393C25.9921 9.51415 25.5226 9.37568 25.0428 9.375H21.2499C21.0841 9.375 20.9252 9.44085 20.8079 9.55806C20.6907 9.67528 20.6249 9.83425 20.6249 10V19.833C21.078 19.3504 21.6609 19.0091 22.3034 18.8502C22.946 18.6913 23.6208 18.7216 24.2466 18.9374C24.8723 19.1532 25.4224 19.5452 25.8304 20.0664C26.2385 20.5876 26.4872 21.2156 26.5465 21.8749H28.1248C28.6221 21.8749 29.099 21.6773 29.4506 21.3257C29.8023 20.9741 29.9998 20.4972 29.9998 19.9999V17.4165C29.9998 16.9704 29.9043 16.5295 29.7197 16.1234ZM26.8701 15.6249H22.8123C22.6466 15.6249 22.4876 15.559 22.3704 15.4418C22.2532 15.3246 22.1874 15.1657 22.1874 15V12.5C22.1874 12.3342 22.2532 12.1752 22.3704 12.058C22.4877 11.9408 22.6466 11.8749 22.8124 11.8749H25.3314C25.5714 11.8749 25.8063 11.944 26.008 12.0738C26.2098 12.2037 26.37 12.3889 26.4693 12.6074L27.4393 14.7413C27.4826 14.8365 27.5012 14.9411 27.4936 15.0454C27.486 15.1497 27.4524 15.2505 27.3957 15.3384C27.3391 15.4263 27.2613 15.4986 27.1695 15.5487C27.0776 15.5988 26.9747 15.625 26.8701 15.625V15.6249Z" fill="#797979"/>
<path d="M23.125 24.3749C24.3331 24.3749 25.3124 23.3956 25.3124 22.1875C25.3124 20.9794 24.3331 20 23.125 20C21.9169 20 20.9375 20.9794 20.9375 22.1875C20.9375 23.3956 21.9169 24.3749 23.125 24.3749Z" fill="#797979"/>
<path d="M17.5 5.625H3.12507C2.6278 5.625 2.15089 5.82254 1.79926 6.17417C1.44763 6.5258 1.25009 7.00271 1.25009 7.49998V14.9999H0.658298C0.347285 14.9999 0.058713 15.2126 0.00867434 15.5199C-0.00652798 15.6096 -0.00198459 15.7016 0.0219877 15.7893C0.04596 15.8771 0.0887843 15.9585 0.147475 16.028C0.206165 16.0975 0.279308 16.1534 0.361805 16.1917C0.444302 16.23 0.534167 16.2499 0.625134 16.25H2.15442C2.46578 16.25 2.7543 16.4626 2.80434 16.77C2.81954 16.8597 2.81499 16.9516 2.79102 17.0393C2.76705 17.1271 2.72423 17.2085 2.66553 17.2781C2.60684 17.3476 2.5337 17.4034 2.4512 17.4417C2.36871 17.4801 2.27884 17.4999 2.18788 17.5H0.658591C0.347285 17.4999 0.058713 17.7128 0.00867434 18.0199C-0.00652798 18.1096 -0.00198459 18.2015 0.0219877 18.2892C0.04596 18.377 0.0887843 18.4585 0.147475 18.528C0.206165 18.5975 0.279308 18.6533 0.361805 18.6917C0.444302 18.73 0.534167 18.7499 0.625134 18.7499H18.75C18.9157 18.7499 19.0747 18.684 19.1919 18.5668C19.3091 18.4496 19.375 18.2906 19.375 18.1249V7.49998C19.375 7.00271 19.1774 6.5258 18.8258 6.17417C18.4742 5.82254 17.9973 5.625 17.5 5.625Z" fill="#797979"/>
</g>
<defs>
<clipPath id="clip0_5450_15097">
<rect width="30" height="30" fill="white"/>
</clipPath>
</defs>
</svg>
