<svg width="15" height="18" viewBox="0 0 15 18" fill="none" xmlns="http://www.w3.org/2000/svg">
<path d="M9 5.25075V0.345C9.69379 0.607001 10.324 1.01348 10.8488 1.5375L13.4618 4.152C13.9864 4.67616 14.3932 5.30617 14.655 6H9.75C9.336 6 9 5.664 9 5.25075ZM14.982 7.50075H9.75C8.5095 7.50075 7.5 6.49125 7.5 5.25075V0.018C7.37925 0.00975 7.2585 0 7.13625 0H3.75C2.75573 0.00138931 1.8026 0.397026 1.09962 1.10015C0.396637 1.80327 0.00119048 2.75648 0 3.75075V14.2508C0 16.3185 1.68225 18.0008 3.75 18.0008H11.25C13.3178 18.0008 15 16.3185 15 14.2508V7.8645C15 7.74225 14.9903 7.6215 14.982 7.50075ZM10.2803 13.8803L9.0705 15.0908C8.63775 15.5235 8.0685 15.7403 7.5 15.7403C6.9315 15.7403 6.36225 15.5235 5.9295 15.0908L4.71975 13.8803C4.65012 13.8106 4.59488 13.728 4.5572 13.637C4.51951 13.546 4.50011 13.4485 4.50011 13.35C4.50011 13.2515 4.51951 13.154 4.5572 13.063C4.59488 12.9721 4.65012 12.8894 4.71975 12.8198C4.78938 12.7501 4.87205 12.6949 4.96303 12.6572C5.05401 12.6195 5.15152 12.6001 5.25 12.6001C5.34848 12.6001 5.44599 12.6195 5.53697 12.6572C5.62795 12.6949 5.71062 12.7501 5.78025 12.8198L6.75 13.7895V10.491C6.75 10.2921 6.82902 10.1013 6.96967 9.96067C7.11032 9.82002 7.30109 9.741 7.5 9.741C7.69891 9.741 7.88968 9.82002 8.03033 9.96067C8.17098 10.1013 8.25 10.2921 8.25 10.491V13.7895L9.21975 12.8198C9.28938 12.7501 9.37205 12.6949 9.46303 12.6572C9.55401 12.6195 9.65152 12.6001 9.75 12.6001C9.84848 12.6001 9.94599 12.6195 10.037 12.6572C10.128 12.6949 10.2106 12.7501 10.2803 12.8198C10.3499 12.8894 10.4051 12.9721 10.4428 13.063C10.4805 13.154 10.4999 13.2515 10.4999 13.35C10.4999 13.4485 10.4805 13.546 10.4428 13.637C10.4051 13.728 10.3499 13.8106 10.2803 13.8803Z" fill="#D74315"/>
</svg>
