<svg width="16" height="15" viewBox="0 0 16 15" fill="none" xmlns="http://www.w3.org/2000/svg">
<path d="M12.6667 2.66667H11.2667C11.1119 1.91428 10.7025 1.23823 10.1075 0.752479C9.51245 0.266727 8.76814 0.000969683 8 0H3.33333C2.4496 0.00105857 1.60237 0.352588 0.97748 0.97748C0.352588 1.60237 0.00105857 2.4496 0 3.33333L0 9.33334C0.00167587 9.93042 0.203692 10.5097 0.573691 10.9783C0.94369 11.4469 1.46026 11.7778 2.04067 11.918C1.97784 12.2516 1.98858 12.595 2.07213 12.924C2.15568 13.2531 2.31002 13.5599 2.5244 13.8232C2.73877 14.0864 3.00801 14.2997 3.31332 14.4482C3.61864 14.5967 3.95267 14.6767 4.29211 14.6828C4.63156 14.6888 4.96823 14.6207 5.27864 14.4832C5.58905 14.3457 5.86572 14.1422 6.08934 13.8867C6.31296 13.6313 6.47815 13.3301 6.57337 13.0043C6.66859 12.6784 6.69156 12.3357 6.64067 12H9.362C9.34485 12.1103 9.33571 12.2217 9.33467 12.3333C9.33467 12.9522 9.5805 13.5457 10.0181 13.9833C10.4557 14.4208 11.0492 14.6667 11.668 14.6667C12.2868 14.6667 12.8803 14.4208 13.3179 13.9833C13.7555 13.5457 14.0013 12.9522 14.0013 12.3333C14.0006 12.1939 13.987 12.0549 13.9607 11.918C14.5408 11.7776 15.0571 11.4466 15.4268 10.978C15.7966 10.5094 15.9984 9.93024 16 9.33334V6C15.9989 5.11627 15.6474 4.26904 15.0225 3.64415C14.3976 3.01926 13.5504 2.66773 12.6667 2.66667ZM14.6667 6V6.66667H11.3333V4H12.6667C13.1971 4 13.7058 4.21071 14.0809 4.58579C14.456 4.96086 14.6667 5.46957 14.6667 6ZM1.33333 9.33334V3.33333C1.33333 2.8029 1.54405 2.29419 1.91912 1.91912C2.29419 1.54405 2.8029 1.33333 3.33333 1.33333H8C8.53043 1.33333 9.03914 1.54405 9.41421 1.91912C9.78929 2.29419 10 2.8029 10 3.33333V10.6667H2.66667C2.31304 10.6667 1.97391 10.5262 1.72386 10.2761C1.47381 10.0261 1.33333 9.68696 1.33333 9.33334ZM5.33333 12.3333C5.33333 12.5986 5.22798 12.8529 5.04044 13.0404C4.8529 13.228 4.59855 13.3333 4.33333 13.3333C4.06812 13.3333 3.81376 13.228 3.62623 13.0404C3.43869 12.8529 3.33333 12.5986 3.33333 12.3333C3.33374 12.2194 3.35475 12.1065 3.39533 12H5.27133C5.31192 12.1065 5.33292 12.2194 5.33333 12.3333ZM11.6667 13.3333C11.4015 13.3333 11.1471 13.228 10.9596 13.0404C10.772 12.8529 10.6667 12.5986 10.6667 12.3333C10.667 12.2194 10.688 12.1064 10.7287 12H12.6047C12.6454 12.1064 12.6664 12.2194 12.6667 12.3333C12.6667 12.5986 12.5613 12.8529 12.3738 13.0404C12.1862 13.228 11.9319 13.3333 11.6667 13.3333ZM13.3333 10.6667H11.3333V8H14.6667V9.33334C14.6667 9.68696 14.5262 10.0261 14.2761 10.2761C14.0261 10.5262 13.687 10.6667 13.3333 10.6667Z" fill="#797979"/>
<path d="M0.624023 8.68066V3.68066L1.62402 2.18066L2.62402 1.18066H4.62402L8.12402 0.680664L9.62402 1.68066L10.624 3.18066V5.68066V8.18066C10.624 8.68066 11.024 9.78066 10.624 10.1807C10.224 10.5807 9.95736 10.6807 10.124 10.6807L8.62402 11.1807H4.62402C3.82402 11.1807 1.95736 10.8473 1.12402 10.6807L0.624023 8.68066Z" fill="#797979"/>
</svg>
