<svg width="24" height="22" viewBox="0 0 24 22" fill="none" xmlns="http://www.w3.org/2000/svg">
<path d="M-0.192966 10.4353C-0.20093 10.756 -0.0876739 11.0679 0.124197 11.3087C0.336067 11.5496 0.630968 11.7017 0.950039 11.7346C1.11352 11.7438 1.27716 11.7195 1.43091 11.6632C1.58466 11.6069 1.7253 11.5198 1.84421 11.4072C1.96311 11.2946 2.05779 11.1589 2.12242 11.0085C2.18705 10.8581 2.22029 10.696 2.22009 10.5323V7.84677H-0.192966V10.4353ZM5.06975 0.0107615C4.51561 0.083462 4.0077 0.357815 3.64309 0.781384C3.27848 1.20495 3.08274 1.74803 3.09328 2.30681V10.5323C3.09448 10.9642 2.95959 11.3855 2.70777 11.7364H7.47975V2.19374C7.47985 1.88739 7.41577 1.58441 7.29163 1.30434C7.16748 1.02427 6.98604 0.773318 6.75899 0.567654C6.53193 0.36199 6.26431 0.206179 5.97336 0.110262C5.68241 0.0143445 5.3746 -0.0195503 5.06975 0.0107615ZM16.4125 9.26963C16.4135 8.2493 16.7914 7.2653 17.4736 6.50655C18.1558 5.74781 19.0942 5.26779 20.1087 5.15865V0.792703C20.1085 0.58319 20.0251 0.382324 19.877 0.234176C19.7288 0.0860283 19.528 0.00269733 19.3185 0.00246621H7.42431C7.71736 0.28773 7.95046 0.628668 8.10993 1.00526C8.2694 1.38186 8.35202 1.78652 8.35294 2.19548V21.4288L11.2493 20.4901L14.2286 21.5681L17.208 20.4901L20.1087 21.431V13.3771C19.0948 13.2681 18.1568 12.7886 17.4747 12.0306C16.7925 11.2726 16.4143 10.2894 16.4125 9.26963ZM17.2394 0.996156H18.4619V1.86935H17.2394V0.996156ZM17.2394 2.82374H18.4619V3.69693H17.2394V2.82374ZM9.87753 0.996156H16.5203V1.86935H9.87753V0.996156ZM9.87753 2.82374H16.5203V3.69693H9.87753V2.82374ZM10.8049 6.05454V11.6687H13.2542V10.847H14.1273V12.5419H9.93167V5.18005H14.1273V9.26963H13.2542V6.05324L10.8049 6.05454ZM16.4692 18.4102H9.87666V17.537H16.4692V18.4102ZM16.4692 16.6546H9.87666V15.7814H16.4692V16.6546ZM16.4692 14.8986H9.87666V14.0255H16.4692V14.8986ZM18.5841 18.4102H17.0848V17.537H18.5841V18.4102ZM18.5841 16.6546H17.0848V15.7814H18.5841V16.6546ZM18.5841 14.8986H17.0848V14.0255H18.5841V14.8986Z" fill="#3B82F6"/>
<path d="M20.49 11.1455L18.8252 8.61324L19.5548 8.13299L20.6026 9.72568L22.9807 7.10611C22.43 6.48594 21.6645 6.09786 20.8387 6.02024C20.013 5.94262 19.1885 6.18125 18.5319 6.68793C17.8753 7.19462 17.4354 7.93161 17.301 8.75006C17.1667 9.56851 17.348 10.4074 17.8083 11.0974C18.2685 11.7874 18.9734 12.277 19.7807 12.4674C20.588 12.6577 21.4374 12.5347 22.1574 12.1231C22.8775 11.7114 23.4145 11.0419 23.66 10.2497C23.9055 9.45744 23.8413 8.60156 23.4802 7.85487L20.49 11.1455Z" fill="#3B82F6"/>
</svg>
