<svg width="24" height="21" viewBox="0 0 24 21" fill="none" xmlns="http://www.w3.org/2000/svg">
<path d="M10.5 6V4.5H1.5C0.6735 4.5 0 5.1735 0 6V9H10.8165C10.608 8.0835 10.5 7.0965 10.5 6ZM23.9385 12C22.9155 13.5765 21.3555 14.9175 19.1205 16.2015C18.777 16.398 18.39 16.5 18 16.5C17.61 16.5 17.223 16.398 16.884 16.2045C14.649 14.9175 13.089 13.575 12.0645 12H0V19.5C0 20.328 0.6735 21 1.5 21H22.5C23.328 21 24 20.328 24 19.5V12H23.9385ZM6.75 16.5H3.75C3.336 16.5 3 16.164 3 15.75C3 15.336 3.336 15 3.75 15H6.75C7.164 15 7.5 15.336 7.5 15.75C7.5 16.164 7.164 16.5 6.75 16.5Z" fill="#E8491A"/>
<path d="M23.5455 2.31075L18.2955 0.0607495C18.2019 0.0206669 18.1011 0 17.9993 0C17.8974 0 17.7966 0.0206669 17.703 0.0607495L12.453 2.31075C12.1785 2.42775 12 2.69925 12 2.99925V5.99925C12 10.1257 13.5255 12.5378 17.6265 14.9003C17.742 14.9663 17.871 14.9993 18 14.9993C18.129 14.9993 18.258 14.9663 18.3735 14.9003C22.4745 12.5438 24 10.1318 24 5.99925V2.99925C24 2.69925 23.8215 2.42775 23.5455 2.31075ZM20.8365 5.71875L17.8365 9.46875C17.6925 9.64575 17.4765 9.74925 17.25 9.74925H17.2185C17.1005 9.7441 16.9855 9.71128 16.8825 9.65343C16.7796 9.59558 16.6917 9.51433 16.626 9.41625L15.126 7.16625C14.8965 6.82125 14.9895 6.35625 15.3345 6.12675C15.6765 5.89875 16.143 5.98875 16.374 6.33525L17.3055 7.73175L19.6635 4.78275C19.923 4.46025 20.3955 4.40925 20.718 4.66575C21.042 4.92225 21.093 5.39475 20.8365 5.71875Z" fill="#E8491A"/>
</svg>
