<svg width="20" height="22" viewBox="0 0 20 22" fill="none" xmlns="http://www.w3.org/2000/svg">
<path d="M18.5484 10.568C16.9324 7.759 14.6154 6.233 12.0094 5.716C12.8264 5.168 13.8194 4.209 14.7984 2.496C14.924 2.27615 14.9616 2.01681 14.9035 1.77033C14.8454 1.52385 14.696 1.30859 14.4854 1.168C14.4144 1.12 12.7014 0 9.93037 0C7.15937 0 5.44737 1.12 5.37537 1.168C5.16456 1.30843 5.01496 1.5237 4.95685 1.77024C4.89874 2.01679 4.93646 2.27621 5.06237 2.496C6.04137 4.209 7.03437 5.169 7.85137 5.716C5.24437 6.233 2.92737 7.758 1.31237 10.568C0.0783705 12.714 -0.301629 15.082 0.241371 17.236C1.09537 20.62 3.90237 22 9.92937 22C15.9564 22 18.7644 20.62 19.6174 17.237C20.1604 15.083 19.7814 12.715 18.5484 10.568ZM10.9304 17.774V18C10.9304 18.2652 10.825 18.5196 10.6375 18.7071C10.4499 18.8946 10.1956 19 9.93037 19C9.66515 19 9.4108 18.8946 9.22326 18.7071C9.03573 18.5196 8.93037 18.2652 8.93037 18V17.861C8.50932 17.725 8.12524 17.4939 7.80789 17.1855C7.49054 16.8772 7.24845 16.5 7.10037 16.083C7.05631 15.9593 7.03709 15.8281 7.04381 15.697C7.05054 15.5659 7.08307 15.4374 7.13955 15.3188C7.19604 15.2003 7.27535 15.0941 7.37296 15.0062C7.47057 14.9184 7.58455 14.8507 7.70837 14.807C7.83206 14.7629 7.96323 14.7437 8.09437 14.7504C8.2255 14.7572 8.35402 14.7897 8.47255 14.8462C8.59109 14.9027 8.69731 14.982 8.78514 15.0796C8.87297 15.1772 8.94067 15.2912 8.98437 15.415C9.05426 15.609 9.19019 15.7722 9.36833 15.876C9.54647 15.9798 9.75546 16.0176 9.95868 15.9828C10.1619 15.9479 10.3464 15.8427 10.4798 15.6855C10.6132 15.5283 10.6871 15.3292 10.6884 15.123C10.6884 14.696 10.3544 14.279 9.92537 14.269C9.22677 14.2682 8.55701 13.9903 8.06302 13.4963C7.56903 13.0024 7.29116 12.3326 7.29037 11.634C7.29037 10.534 7.96937 9.591 8.92937 9.198V9C8.92937 8.73478 9.03473 8.48043 9.22226 8.29289C9.4098 8.10536 9.66415 8 9.92937 8C10.1946 8 10.4489 8.10536 10.6365 8.29289C10.824 8.48043 10.9294 8.73478 10.9294 9V9.206C11.2924 9.356 11.6234 9.58 11.8894 9.879C11.9768 9.97697 12.0441 10.0912 12.0875 10.2152C12.1308 10.3392 12.1492 10.4705 12.1418 10.6016C12.1344 10.7327 12.1012 10.8611 12.0442 10.9793C11.9871 11.0976 11.9073 11.2035 11.8094 11.291C11.7114 11.3785 11.5972 11.4458 11.4732 11.4891C11.3492 11.5324 11.2179 11.5509 11.0868 11.5434C10.9557 11.536 10.8273 11.5028 10.709 11.4458C10.5907 11.3887 10.4848 11.309 10.3974 11.211C10.3113 11.1161 10.1985 11.0494 10.0739 11.0197C9.94924 10.99 9.81853 10.9986 9.69888 11.0444C9.57922 11.0903 9.4762 11.1712 9.40331 11.2766C9.33041 11.3819 9.29105 11.5069 9.29037 11.635C9.28919 11.7231 9.30697 11.8104 9.34251 11.891C9.37805 11.9716 9.43052 12.0436 9.49636 12.1021C9.56219 12.1606 9.63984 12.2043 9.72405 12.2302C9.80825 12.256 9.89703 12.2635 9.98437 12.252C10.7157 12.2966 11.4025 12.6184 11.9048 13.1519C12.4071 13.6853 12.6869 14.3903 12.6874 15.123C12.6874 16.313 11.9614 17.337 10.9284 17.774H10.9304Z" fill="#007E32"/>
</svg>
