<svg width="24" height="23" viewBox="0 0 24 23" fill="none" xmlns="http://www.w3.org/2000/svg">
<path d="M7.74848 19.3875C7.80942 19.5422 7.8891 19.65 7.99223 19.7625C7.93129 19.8328 7.87035 19.9031 7.82817 19.9875C-3.7734 17.0719 -2.02496 0.314062 10.0688 0C15.3938 0 19.7485 4.10625 20.1563 9.32344C19.8422 9.43594 19.6594 9.85781 19.4954 10.1297C19.4954 10.0312 19.5 9.86719 19.4813 9.77344C19.486 9.76875 19.486 9.76875 19.4813 9.76875C19.2 4.76719 15.1407 0.721875 10.0688 0.745312C-0.876522 0.965625 -2.84996 16.2328 7.68285 19.1859C7.69691 19.2469 7.72504 19.3313 7.74848 19.3875ZM19.8422 10.3266C19.6594 10.6734 19.0969 10.5234 19.1063 10.1297C19.1016 10.0828 19.1157 9.9 19.0969 9.8625C19.0829 9.69375 18.9329 9.53906 18.7782 9.50156C18.5016 9.4125 18.2063 9.62812 18.2063 9.93281C18.225 10.1766 18.1875 10.4344 17.9157 10.5094C17.7422 10.5562 17.5594 10.4812 17.4704 10.3266L17.2079 9.87187C16.9125 9.37031 16.1438 9.80625 16.4344 10.3172L17.1704 11.5922H20.1422L20.8782 10.3172C21.1594 9.81562 20.4329 9.375 20.1141 9.85312L19.8422 10.3266ZM16.8844 12.3797C16.6172 12.3797 16.6219 12.7828 16.8844 12.7828H20.4282C20.6954 12.7828 20.6954 12.375 20.4282 12.3797H16.8844ZM15.2719 21.8531H8.89692C8.30629 21.8625 8.29223 22.7578 8.89692 22.7625H15.2719C15.8672 22.7625 15.8719 21.8625 15.2719 21.8531ZM8.89692 21.0656H15.2719C15.8485 21.0656 15.8907 20.175 15.2766 20.1562H8.88754C8.3016 20.175 8.29692 21.0562 8.89692 21.0656ZM8.9016 19.3687H15.2766C15.8766 19.35 15.8579 18.4547 15.2719 18.4594H8.89692C8.29223 18.4781 8.29692 19.35 8.9016 19.3687ZM15.2719 16.7578H8.89692C8.29223 16.7766 8.30629 17.6625 8.89692 17.6672H15.2719C15.8766 17.6484 15.8672 16.7625 15.2719 16.7578ZM10.7063 10.1156C10.6829 9.28594 9.4641 9.28125 9.44535 10.1156C9.46879 10.9687 10.6922 10.9266 10.7063 10.1156ZM7.99223 18.0609C7.87973 18.1828 7.78129 18.3281 7.72973 18.4875C-1.86559 15.6047 -0.0796473 1.66406 10.0688 1.425C14.3907 1.425 17.9719 4.57031 18.6469 8.69531C18.2438 8.7 17.8875 8.89219 17.6625 9.19219C17.025 8.55469 15.8297 8.89219 15.6282 9.77344C15.5438 10.0922 15.586 10.425 15.75 10.7109L16.35 11.7516C15.7313 12.1078 15.75 13.1297 16.4063 13.4437C15.5672 14.3437 14.8547 15.1922 14.2969 15.9703H8.89692C7.82817 15.9469 7.24691 17.2969 7.99223 18.0609ZM9.67973 3.52031C9.6891 4.04063 10.4579 4.03594 10.4672 3.52031V2.62031C10.4579 2.1 9.6891 2.10469 9.67973 2.62031V3.52031ZM3.44067 9.75937H2.54067C2.02504 9.76875 2.02504 10.5375 2.54067 10.5469H3.44067C3.95629 10.5422 3.95629 9.76875 3.44067 9.75937ZM9.89067 11.5219C10.7297 11.6391 11.5032 10.9594 11.4938 10.1156C11.5172 8.95781 10.0922 8.26406 9.20629 8.99531L4.20473 6.32812C4.01254 6.225 3.77348 6.3 3.67035 6.49219C3.56723 6.68437 3.64223 6.92344 3.83442 7.02656L8.73754 9.64687C8.53129 10.1812 8.70941 10.8281 9.13598 11.1844L7.01723 13.5234C6.67973 13.9125 7.24691 14.4281 7.60316 14.0531L9.89067 11.5219ZM16.4766 22.6312C16.5844 22.2188 16.4766 21.7734 16.1813 21.4594C16.6219 21.0141 16.6266 20.2172 16.186 19.7578C16.6219 19.3125 16.6313 18.5156 16.186 18.0609C16.9219 17.3156 16.35 15.9469 15.286 15.9703C15.8625 15.225 16.561 14.4234 17.3766 13.575H19.95C22.4672 16.1859 23.9063 18.4266 23.9063 19.7297C24.075 22.8797 19.786 22.9922 16.4766 22.6312ZM19.1157 16.6359C19.4719 16.6359 19.7672 16.9266 19.7672 17.2875C19.7766 17.8031 20.5454 17.8031 20.5547 17.2875C20.5547 16.6453 20.1329 16.1016 19.5516 15.9188V15.7219C19.5422 15.2062 18.7735 15.2062 18.7641 15.7219V15.9C17.1469 16.3359 17.4282 18.6984 19.1157 18.7313C19.4719 18.7313 19.7672 19.0219 19.7672 19.3828C19.7438 20.2406 18.4922 20.2406 18.4688 19.3828C18.4594 18.8672 17.6907 18.8625 17.6813 19.3828C17.6813 20.0531 18.1454 20.6156 18.7641 20.775V20.9531C18.7735 21.4688 19.5422 21.4688 19.5516 20.9531V20.7562C21.0891 20.2594 20.7563 17.9672 19.1157 17.9484C18.2579 17.9109 18.2579 16.6594 19.1157 16.6359Z" fill="#F59E0B"/>
</svg>
