<svg width="14" height="14" viewBox="0 0 14 14" fill="none" xmlns="http://www.w3.org/2000/svg">
<path d="M2.77778 1.11111H3.33333V0.555556C3.33333 0.408213 3.39186 0.266905 3.49605 0.162718C3.60024 0.0585316 3.74155 0 3.88889 0C4.03623 0 4.17754 0.0585316 4.28173 0.162718C4.38591 0.266905 4.44444 0.408213 4.44444 0.555556V1.11111H8.88889V0.555556C8.88889 0.408213 8.94742 0.266905 9.05161 0.162718C9.15579 0.0585316 9.2971 0 9.44444 0C9.59179 0 9.73309 0.0585316 9.83728 0.162718C9.94147 0.266905 10 0.408213 10 0.555556V1.11111H10.5556C11.292 1.11199 11.998 1.40493 12.5188 1.92568C13.0395 2.44642 13.3325 3.15245 13.3333 3.88889V4.44444H9.53674e-07V3.88889C0.000882149 3.15245 0.293823 2.44642 0.814567 1.92568C1.33531 1.40493 2.04134 1.11199 2.77778 1.11111Z" fill="#797979"/>
<path d="M13.3333 10.5559C13.3325 11.2924 13.0395 11.9984 12.5188 12.5191C11.998 13.0399 11.292 13.3328 10.5556 13.3337H2.77778C2.04134 13.3328 1.33531 13.0399 0.814567 12.5191C0.293823 11.9984 0.000882149 11.2924 9.53674e-07 10.5559V5.55591H13.3333V10.5559ZM3.88889 8.05591C3.72407 8.05591 3.56295 8.10478 3.42591 8.19635C3.28887 8.28792 3.18206 8.41807 3.11899 8.57034C3.05592 8.72261 3.03941 8.89017 3.07157 9.05182C3.10372 9.21347 3.18309 9.36195 3.29963 9.4785C3.41618 9.59504 3.56466 9.67441 3.72631 9.70656C3.88797 9.73872 4.05552 9.72221 4.20779 9.65914C4.36006 9.59607 4.49021 9.48926 4.58178 9.35222C4.67335 9.21518 4.72222 9.05406 4.72222 8.88924C4.72222 8.66823 4.63443 8.45627 4.47814 8.29999C4.32186 8.14371 4.1099 8.05591 3.88889 8.05591ZM6.66667 8.05591C6.50185 8.05591 6.34073 8.10478 6.20369 8.19635C6.06665 8.28792 5.95984 8.41807 5.89677 8.57034C5.83369 8.72261 5.81719 8.89017 5.84935 9.05182C5.8815 9.21347 5.96087 9.36195 6.07741 9.4785C6.19395 9.59504 6.34244 9.67441 6.50409 9.70656C6.66574 9.73872 6.8333 9.72221 6.98557 9.65914C7.13784 9.59607 7.26799 9.48926 7.35956 9.35222C7.45113 9.21518 7.5 9.05406 7.5 8.88924C7.5 8.66823 7.4122 8.45627 7.25592 8.29999C7.09964 8.14371 6.88768 8.05591 6.66667 8.05591ZM9.44444 8.05591C9.27963 8.05591 9.11851 8.10478 8.98147 8.19635C8.84443 8.28792 8.73762 8.41807 8.67454 8.57034C8.61147 8.72261 8.59497 8.89017 8.62712 9.05182C8.65928 9.21347 8.73865 9.36195 8.85519 9.4785C8.97173 9.59504 9.12022 9.67441 9.28187 9.70656C9.44352 9.73872 9.61108 9.72221 9.76335 9.65914C9.91562 9.59607 10.0458 9.48926 10.1373 9.35222C10.2289 9.21518 10.2778 9.05406 10.2778 8.88924C10.2778 8.66823 10.19 8.45627 10.0337 8.29999C9.87742 8.14371 9.66546 8.05591 9.44444 8.05591Z" fill="#797979"/>
</svg>
