<svg width="16" height="16" viewBox="0 0 16 16" fill="none" xmlns="http://www.w3.org/2000/svg">
<path d="M3.33359 1.33331H4.00024V0.666653C4.00024 0.489846 4.07048 0.32028 4.1955 0.195258C4.32052 0.0702365 4.49009 0 4.6669 0C4.84371 0 5.01327 0.0702365 5.13829 0.195258C5.26331 0.32028 5.33355 0.489846 5.33355 0.666653V1.33331H10.6668V0.666653C10.6668 0.489846 10.737 0.32028 10.862 0.195258C10.9871 0.0702365 11.1566 0 11.3334 0C11.5102 0 11.6798 0.0702365 11.8048 0.195258C11.9298 0.32028 12.0001 0.489846 12.0001 0.666653V1.33331H12.6667C13.5504 1.33436 14.3977 1.68589 15.0225 2.31077C15.6474 2.93565 15.9989 3.78286 16 4.66657L16 5.33322H0.000326157V4.66657C0.00138378 3.78286 0.352906 2.93565 0.977785 2.31077C1.60266 1.68589 2.44988 1.33436 3.33359 1.33331Z" fill="#D74315"/>
<path d="M16 12.6659C15.9989 13.5496 15.6474 14.3968 15.0225 15.0217C14.3977 15.6466 13.5504 15.9981 12.6667 15.9992H3.33359C2.44988 15.9981 1.60266 15.6466 0.977785 15.0217C0.352906 14.3968 0.00138378 13.5496 0.000326157 12.6659V6.66602H16V12.6659ZM4.6669 9.66595C4.46912 9.66595 4.27578 9.7246 4.11134 9.83448C3.94689 9.94436 3.81872 10.1005 3.74304 10.2833C3.66735 10.466 3.64755 10.667 3.68613 10.861C3.72472 11.055 3.81996 11.2332 3.95981 11.373C4.09966 11.5129 4.27783 11.6081 4.47181 11.6467C4.66579 11.6853 4.86685 11.6655 5.04957 11.5898C5.2323 11.5141 5.38847 11.3859 5.49835 11.2215C5.60823 11.057 5.66688 10.8637 5.66688 10.6659C5.66688 10.4007 5.56152 10.1464 5.37399 9.95884C5.18646 9.77131 4.93211 9.66595 4.6669 9.66595ZM8.00016 9.66595C7.80239 9.66595 7.60905 9.7246 7.4446 9.83448C7.28016 9.94436 7.15199 10.1005 7.0763 10.2833C7.00062 10.466 6.98081 10.667 7.0194 10.861C7.05798 11.055 7.15322 11.2332 7.29307 11.373C7.43292 11.5129 7.6111 11.6081 7.80508 11.6467C7.99905 11.6853 8.20012 11.6655 8.38284 11.5898C8.56556 11.5141 8.72174 11.3859 8.83162 11.2215C8.94149 11.057 9.00014 10.8637 9.00014 10.6659C9.00014 10.4007 8.89479 10.1464 8.70726 9.95884C8.51972 9.77131 8.26537 9.66595 8.00016 9.66595ZM11.3334 9.66595C11.1357 9.66595 10.9423 9.7246 10.7779 9.83448C10.6134 9.94436 10.4853 10.1005 10.4096 10.2833C10.3339 10.466 10.3141 10.667 10.3527 10.861C10.3912 11.055 10.4865 11.2332 10.6263 11.373C10.7662 11.5129 10.9444 11.6081 11.1383 11.6467C11.3323 11.6853 11.5334 11.6655 11.7161 11.5898C11.8988 11.5141 12.055 11.3859 12.1649 11.2215C12.2748 11.057 12.3334 10.8637 12.3334 10.6659C12.3334 10.4007 12.2281 10.1464 12.0405 9.95884C11.853 9.77131 11.5986 9.66595 11.3334 9.66595Z" fill="#D74315"/>
</svg>
