<svg width="13" height="13" viewBox="0 0 13 13" fill="none" xmlns="http://www.w3.org/2000/svg">
<path d="M8.31877 4.23033L9.0354 4.95768L6.07855 7.87063C5.88102 8.06816 5.62122 8.16667 5.3604 8.16667C5.09957 8.16667 4.83722 8.06714 4.63765 7.86807L3.21767 6.49199L3.92868 5.75852L5.35427 7.14022L8.31877 4.23033ZM12.25 6.125C12.25 9.50243 9.50243 12.25 6.125 12.25C2.74757 12.25 0 9.50243 0 6.125C0 2.74757 2.74757 0 6.125 0C9.50243 0 12.25 2.74757 12.25 6.125ZM11.2292 6.125C11.2292 3.31056 8.93944 1.02083 6.125 1.02083C3.31056 1.02083 1.02083 3.31056 1.02083 6.125C1.02083 8.93944 3.31056 11.2292 6.125 11.2292C8.93944 11.2292 11.2292 8.93944 11.2292 6.125Z" fill="#1D993C"/>
</svg>
