<svg width="15" height="15" viewBox="0 0 15 15" fill="none" xmlns="http://www.w3.org/2000/svg">
<path d="M7.08333 0C5.68238 0 4.31289 0.41543 3.14805 1.19376C1.9832 1.97208 1.07531 3.07835 0.53919 4.37266C0.00306911 5.66697 -0.137204 7.09119 0.136107 8.46522C0.409419 9.83925 1.08404 11.1014 2.07466 12.092C3.06528 13.0826 4.32741 13.7572 5.70145 14.0306C7.07548 14.3039 8.4997 14.1636 9.79401 13.6275C11.0883 13.0914 12.1946 12.1835 12.9729 11.0186C13.7512 9.85377 14.1667 8.48428 14.1667 7.08333C14.1646 5.20534 13.4177 3.40485 12.0898 2.0769C10.7618 0.748961 8.96133 0.00203119 7.08333 0ZM7.67361 7.01191C7.67368 7.11197 7.6483 7.2104 7.59988 7.29796C7.55145 7.38552 7.48156 7.45933 7.39677 7.51246L5.13011 8.92913C5.06422 8.97029 4.99087 8.99807 4.91424 9.01089C4.83762 9.0237 4.75922 9.02129 4.68352 9.00381C4.60783 8.98632 4.53631 8.9541 4.47307 8.90898C4.40983 8.86386 4.35609 8.80672 4.31493 8.74083C4.27377 8.67494 4.24599 8.60159 4.23318 8.52497C4.22036 8.44834 4.22277 8.36994 4.24025 8.29425C4.25774 8.21855 4.28996 8.14704 4.33508 8.0838C4.38021 8.02056 4.43734 7.96682 4.50323 7.92566L6.49306 6.68489V4.13194C6.49306 3.97539 6.55525 3.82525 6.66595 3.71455C6.77664 3.60386 6.92678 3.54167 7.08333 3.54167C7.23989 3.54167 7.39003 3.60386 7.50072 3.71455C7.61142 3.82525 7.67361 3.97539 7.67361 4.13194V7.01191Z" fill="#797979"/>
</svg>
