<svg width="11" height="11" viewBox="0 0 11 11" fill="none" xmlns="http://www.w3.org/2000/svg">
<path d="M10.4185 0.248146C10.2596 0.0892582 10.0441 0 9.81932 0C9.59458 0 9.37905 0.0892582 9.22011 0.248146L5.33333 4.13492L1.44656 0.248146C1.28762 0.0892582 1.07209 0 0.84735 0C0.622615 0 0.407081 0.0892582 0.248146 0.248146C0.0892582 0.407081 0 0.622615 0 0.84735C0 1.07209 0.0892582 1.28762 0.248146 1.44656L4.13492 5.33333L0.248146 9.22011C0.0892582 9.37905 0 9.59458 0 9.81932C0 10.0441 0.0892582 10.2596 0.248146 10.4185C0.407081 10.5774 0.622615 10.6667 0.84735 10.6667C1.07209 10.6667 1.28762 10.5774 1.44656 10.4185L5.33333 6.53174L9.22011 10.4185C9.37905 10.5774 9.59458 10.6667 9.81932 10.6667C10.0441 10.6667 10.2596 10.5774 10.4185 10.4185C10.5774 10.2596 10.6667 10.0441 10.6667 9.81932C10.6667 9.59458 10.5774 9.37905 10.4185 9.22011L6.53174 5.33333L10.4185 1.44656C10.5774 1.28762 10.6667 1.07209 10.6667 0.84735C10.6667 0.622615 10.5774 0.407081 10.4185 0.248146Z" fill="#1D993C"/>
</svg>
