<svg width="28" height="28" viewBox="0 0 28 28" fill="none" xmlns="http://www.w3.org/2000/svg">
<circle cx="13.9974" cy="13.9994" r="11.64" fill="#46D178"/>
<path d="M10.8726 2.78854C4.69072 4.51237 1.06227 10.9448 2.78648 17.1282C4.51032 23.3101 10.9443 26.9382 17.1262 25.2144C23.3096 23.4902 26.9362 17.0566 25.2123 10.8747C23.4881 4.69129 17.056 1.06433 10.8726 2.78854ZM16.8626 24.2686C11.1922 25.8499 5.31359 22.5351 3.73229 16.8647C2.15062 11.1932 5.46541 5.31453 11.1358 3.73323C16.8062 2.15193 22.6859 5.46635 24.2676 11.1382C25.8493 16.8083 22.533 22.6873 16.8626 24.2686Z" fill="#46D178"/>
<path d="M27.5678 10.2171C27.4223 9.69523 27.0968 9.22344 26.6179 8.9005C26.1484 8.58498 25.8161 8.11505 25.6684 7.58498C25.6034 7.35187 25.5738 7.10614 25.5841 6.85632C25.5945 6.60502 25.5652 6.36078 25.5006 6.12915C25.2694 5.29953 24.5897 4.63805 23.7059 4.45951C23.3057 4.37859 22.9423 4.19744 22.6428 3.94095C22.3429 3.68297 22.1094 3.35075 21.9683 2.96804C21.7712 2.4261 21.3904 1.99699 20.9186 1.73084C20.4468 1.4647 19.8811 1.3615 19.3165 1.47138C18.9163 1.55007 18.511 1.52112 18.1353 1.39899C17.7593 1.27576 17.416 1.05861 17.1402 0.757938C16.5303 0.0942388 15.6138 -0.145553 14.7842 0.0860733C14.5526 0.150662 14.3269 0.252369 14.1171 0.391196C13.4378 0.841829 12.5733 0.9079 11.8332 0.564543C11.3105 0.32141 10.7378 0.285777 10.2159 0.431286C9.69397 0.576795 9.22218 0.903447 8.90072 1.38229C8.58409 1.85222 8.11527 2.18407 7.5852 2.33181C7.35097 2.39714 7.10635 2.42646 6.85654 2.4157C6.60524 2.40531 6.35951 2.435 6.12788 2.49959C5.29826 2.73085 4.63827 3.41014 4.45972 4.29396C4.3788 4.69373 4.19766 5.05751 3.93967 5.35743C3.68132 5.65625 3.34948 5.89084 2.9664 6.03078C2.42594 6.229 1.99684 6.60985 1.73106 7.08127C1.4638 7.55343 1.36135 8.11728 1.47159 8.68336C1.55029 9.0835 1.52133 9.48922 1.39921 9.8645C1.2756 10.239 1.05697 10.5828 0.757782 10.8586C0.0940824 11.4684 -0.145338 12.3849 0.085917 13.2146C0.150505 13.4462 0.25221 13.6719 0.391037 13.8816C0.529493 14.0898 0.630838 14.314 0.696169 14.5486C0.843905 15.0787 0.80307 15.6526 0.562906 16.1659C0.320143 16.6901 0.285992 17.2621 0.431501 17.784C0.57701 18.3059 0.902554 18.7777 1.38103 19.0995C1.85207 19.4146 2.18392 19.8846 2.33202 20.4146C2.39736 20.6489 2.42669 20.8935 2.41629 21.1433C2.4059 21.3946 2.43559 21.6403 2.50018 21.872C2.73143 22.7016 3.41073 23.3619 4.29417 23.5401C4.69247 23.6199 5.05772 23.8022 5.35727 24.0587C5.65571 24.3155 5.89069 24.6489 6.03063 25.032C6.22922 25.5735 6.60858 26.003 7.08149 26.2688C7.55365 26.536 8.11749 26.6385 8.68245 26.5286C9.0826 26.4499 9.48795 26.4789 9.8636 26.601C10.2396 26.7242 10.5834 26.9429 10.8588 27.2421C11.4687 27.9058 12.3851 28.1456 13.2148 27.9139C13.4464 27.8493 13.6721 27.7476 13.8818 27.6088C14.0901 27.4704 14.3143 27.369 14.5488 27.3037C15.0789 27.1559 15.6513 27.1971 16.1658 27.4355C16.6884 27.6786 17.2608 27.7127 17.7827 27.5672C18.3046 27.4217 18.7764 27.0962 19.0982 26.6177C19.4149 26.1478 19.8837 25.8159 20.4137 25.6682C20.648 25.6029 20.8926 25.5735 21.1424 25.5843C21.3937 25.5947 21.6394 25.565 21.8711 25.5C22.7007 25.2688 23.3607 24.5895 23.5392 23.706C23.6205 23.3074 23.8013 22.9425 24.0593 22.6426C24.3176 22.3438 24.6495 22.1092 25.0325 21.9692C25.573 21.7714 26.0036 21.3913 26.2694 20.9184C26.5355 20.4466 26.6391 19.8824 26.5274 19.3166C26.4501 18.9161 26.4776 18.5097 26.6012 18.1351C26.7248 17.7606 26.9416 17.4157 27.2426 17.1411C27.9063 16.5312 28.1454 15.6132 27.9141 14.7836C27.8496 14.552 27.7482 14.3274 27.6094 14.118C27.4709 13.9098 27.3692 13.6841 27.3043 13.451C27.1565 12.9209 27.1974 12.3471 27.436 11.8341C27.6792 11.3111 27.7133 10.739 27.5678 10.2171ZM17.2968 25.8241C10.7771 27.6422 3.99388 23.8159 2.17613 17.2977C0.358008 10.778 4.18282 3.99514 10.7025 2.17702C17.2222 0.358901 24.0051 4.18371 25.8232 10.7034C27.6409 17.2216 23.8165 24.006 17.2968 25.8241Z" fill="#46D178"/>
<path d="M10.3291 6.83789L10.6069 7.69286L11.5059 7.69286L10.7786 8.22126L11.0564 9.07623L10.3291 8.54783L9.60184 9.07623L9.87963 8.22126L9.15236 7.69286H10.0513L10.3291 6.83789Z" fill="white"/>
<path d="M13.9829 5.59961L14.3996 6.88206L15.7481 6.88206L14.6572 7.67466L15.0739 8.95711L13.9829 8.16451L12.892 8.95711L13.3087 7.67466L12.2178 6.88206H13.5662L13.9829 5.59961Z" fill="white"/>
<path d="M17.6358 6.83789L17.9136 7.69286L18.8125 7.69286L18.0852 8.22126L18.363 9.07623L17.6358 8.54783L16.9085 9.07623L17.1863 8.22126L16.459 7.69286H17.358L17.6358 6.83789Z" fill="white"/>
<path d="M10.4326 19.0391L10.7104 19.894H11.6094L10.8821 20.4224L11.1599 21.2774L10.4326 20.749L9.70535 21.2774L9.98315 20.4224L9.25587 19.894H10.1548L10.4326 19.0391Z" fill="white"/>
<path d="M14.0865 19.0391L14.5031 20.3215H15.8516L14.7607 21.1141L15.1774 22.3966L14.0865 21.604L12.9955 22.3966L13.4122 21.1141L12.3213 20.3215H13.6698L14.0865 19.0391Z" fill="white"/>
<path d="M17.7393 19.0391L18.0171 19.894H18.916L18.1888 20.4224L18.4666 21.2774L17.7393 20.749L17.012 21.2774L17.2898 20.4224L16.5625 19.894H17.4615L17.7393 19.0391Z" fill="white"/>
<line x1="5.03906" y1="10.8457" x2="22.9591" y2="10.8457" stroke="white" stroke-width="0.707041"/>
<path d="M3.6176 13.9268C3.6176 13.6524 3.67248 13.408 3.78224 13.1937C3.89461 12.9794 4.05403 12.8135 4.26048 12.6959C4.46693 12.5757 4.70997 12.5156 4.9896 12.5156C5.23003 12.5156 5.44432 12.5613 5.63248 12.6528C5.82325 12.7416 5.97744 12.8684 6.09504 13.033C6.21525 13.1976 6.29496 13.3897 6.33416 13.6092H5.41688C5.37507 13.5178 5.31496 13.4472 5.23656 13.3976C5.16077 13.3453 5.07323 13.3192 4.97392 13.3192C4.82757 13.3192 4.71128 13.374 4.62504 13.4838C4.54141 13.5936 4.4996 13.7412 4.4996 13.9268C4.4996 14.1123 4.54141 14.26 4.62504 14.3697C4.71128 14.4795 4.82757 14.5344 4.97392 14.5344C5.07323 14.5344 5.16077 14.5095 5.23656 14.4599C5.31496 14.4076 5.37507 14.3357 5.41688 14.2443H6.33416C6.29496 14.4638 6.21525 14.6559 6.09504 14.8205C5.97744 14.9852 5.82325 15.1132 5.63248 15.2047C5.44432 15.2935 5.23003 15.338 4.9896 15.338C4.70997 15.338 4.46693 15.2792 4.26048 15.1616C4.05403 15.0413 3.89461 14.8741 3.78224 14.6598C3.67248 14.4455 3.6176 14.2012 3.6176 13.9268ZM7.69804 15.3458C7.47591 15.3458 7.27599 15.3001 7.09828 15.2086C6.92058 15.1171 6.78076 14.9865 6.67884 14.8166C6.57954 14.6441 6.52988 14.4429 6.52988 14.2129C6.52988 13.9829 6.57954 13.783 6.67884 13.6132C6.78076 13.4407 6.92058 13.3087 7.09828 13.2172C7.27599 13.1258 7.47591 13.08 7.69804 13.08C7.92018 13.08 8.1201 13.1258 8.2978 13.2172C8.47551 13.3087 8.61402 13.4407 8.71332 13.6132C8.81524 13.783 8.8662 13.9829 8.8662 14.2129C8.8662 14.4429 8.81524 14.6441 8.71332 14.8166C8.61402 14.9865 8.47551 15.1171 8.2978 15.2086C8.1201 15.3001 7.92018 15.3458 7.69804 15.3458ZM7.69804 14.5932C7.77906 14.5932 7.847 14.5618 7.90188 14.4991C7.95676 14.4337 7.9842 14.3384 7.9842 14.2129C7.9842 14.0875 7.95676 13.9934 7.90188 13.9307C7.847 13.8653 7.77906 13.8327 7.69804 13.8327C7.61703 13.8327 7.54908 13.8653 7.4942 13.9307C7.43932 13.9934 7.41188 14.0875 7.41188 14.2129C7.41188 14.3384 7.43802 14.4337 7.49028 14.4991C7.54516 14.5618 7.61442 14.5932 7.69804 14.5932ZM12.0914 13.0918C12.3736 13.0918 12.5918 13.1767 12.746 13.3466C12.9028 13.5165 12.9812 13.7464 12.9812 14.0365L12.9812 15.3184H12.1149L12.1149 14.1463C12.1149 14.0522 12.0861 13.979 12.0286 13.9268C11.9738 13.8719 11.8993 13.8444 11.8052 13.8444C11.7085 13.8444 11.6327 13.8719 11.5778 13.9268C11.523 13.979 11.4955 14.0522 11.4955 14.1463V15.3184H10.6292V14.1463C10.6292 14.0522 10.6004 13.979 10.543 13.9268C10.4881 13.8719 10.4136 13.8444 10.3195 13.8444C10.2228 13.8444 10.147 13.8719 10.0922 13.9268C10.0373 13.979 10.0098 14.0522 10.0098 14.1463V15.3184H9.13959V13.1075H10.0098V13.4054C10.0726 13.3113 10.1575 13.2355 10.2646 13.178C10.3744 13.1205 10.5024 13.0918 10.6488 13.0918C10.8082 13.0918 10.9493 13.1271 11.0722 13.1976C11.195 13.2656 11.293 13.3623 11.3662 13.4877C11.4472 13.3727 11.5504 13.2787 11.6758 13.2055C11.8013 13.1297 11.9398 13.0918 12.0914 13.0918ZM14.2284 13.4093C14.2833 13.3074 14.3617 13.2277 14.4636 13.1702C14.5682 13.1101 14.6923 13.08 14.836 13.08C15.0085 13.08 15.164 13.1258 15.3025 13.2172C15.441 13.3061 15.5495 13.4368 15.6279 13.6092C15.7089 13.7791 15.7494 13.9803 15.7494 14.2129C15.7494 14.4455 15.7089 14.648 15.6279 14.8205C15.5495 14.9904 15.441 15.1211 15.3025 15.2125C15.164 15.3014 15.0085 15.3458 14.836 15.3458C14.6923 15.3458 14.5682 15.3171 14.4636 15.2596C14.3617 15.1995 14.2833 15.1184 14.2284 15.0165L14.2284 16.3768H13.3582L13.3582 13.1075H14.2284V13.4093ZM14.8674 14.2129C14.8674 14.0953 14.8373 14.0039 14.7772 13.9385C14.7171 13.8732 14.64 13.8405 14.5459 13.8405C14.4519 13.8405 14.3748 13.8732 14.3147 13.9385C14.2546 14.0039 14.2245 14.0953 14.2245 14.2129C14.2245 14.3305 14.2546 14.422 14.3147 14.4873C14.3748 14.5527 14.4519 14.5853 14.5459 14.5853C14.64 14.5853 14.7171 14.5527 14.7772 14.4873C14.8373 14.422 14.8674 14.3305 14.8674 14.2129ZM16.8928 12.4176V15.3184H16.0226V12.4176H16.8928ZM19.4262 14.1933C19.4262 14.2534 19.4222 14.3109 19.4144 14.3658H18.015C18.028 14.5566 18.1077 14.652 18.2541 14.652C18.3482 14.652 18.4161 14.6088 18.4579 14.5226H19.3791C19.3478 14.6794 19.2811 14.8205 19.1792 14.946C19.0799 15.0688 18.9532 15.1668 18.799 15.24C18.6474 15.3105 18.4801 15.3458 18.2972 15.3458C18.0777 15.3458 17.8817 15.3001 17.7092 15.2086C17.5393 15.1171 17.4061 14.9865 17.3094 14.8166C17.2153 14.6441 17.1682 14.4429 17.1682 14.2129C17.1682 13.9829 17.2153 13.783 17.3094 13.6132C17.4061 13.4407 17.5393 13.3087 17.7092 13.2172C17.8817 13.1258 18.0777 13.08 18.2972 13.08C18.5167 13.08 18.7114 13.1258 18.8813 13.2172C19.0538 13.3061 19.187 13.4341 19.2811 13.6014C19.3778 13.7687 19.4262 13.966 19.4262 14.1933ZM18.5442 13.9856C18.5442 13.9124 18.5206 13.8575 18.4736 13.8209C18.4266 13.7817 18.3678 13.7621 18.2972 13.7621C18.143 13.7621 18.0529 13.8366 18.0267 13.9856H18.5442ZM21.0773 14.5775V15.3184H20.748C20.1417 15.3184 19.8386 15.0165 19.8386 14.4128V13.8327H19.5642V13.1075H19.8386V12.5744H20.7088V13.1075H21.0695V13.8327H20.7088V14.4285C20.7088 14.4808 20.7206 14.5187 20.7441 14.5422C20.7702 14.5657 20.8121 14.5775 20.8696 14.5775H21.0773ZM23.5491 14.1933C23.5491 14.2534 23.5451 14.3109 23.5373 14.3658L22.1379 14.3658C22.1509 14.5566 22.2306 14.652 22.377 14.652C22.4711 14.652 22.539 14.6088 22.5808 14.5226L23.502 14.5226C23.4707 14.6794 23.404 14.8205 23.3021 14.946C23.2028 15.0688 23.076 15.1668 22.9219 15.24C22.7703 15.3105 22.603 15.3458 22.4201 15.3458C22.2006 15.3458 22.0046 15.3001 21.8321 15.2086C21.6622 15.1171 21.5289 14.9865 21.4323 14.8166C21.3382 14.6441 21.2911 14.4429 21.2911 14.2129C21.2911 13.9829 21.3382 13.783 21.4323 13.6132C21.5289 13.4407 21.6622 13.3087 21.8321 13.2172C22.0046 13.1258 22.2006 13.08 22.4201 13.08C22.6396 13.08 22.8343 13.1258 23.0042 13.2172C23.1767 13.3061 23.3099 13.4341 23.404 13.6014C23.5007 13.7687 23.5491 13.966 23.5491 14.1933ZM22.6671 13.9856C22.6671 13.9124 22.6435 13.8575 22.5965 13.8209C22.5495 13.7817 22.4907 13.7621 22.4201 13.7621C22.2659 13.7621 22.1757 13.8366 22.1496 13.9856H22.6671Z" fill="white"/>
<line x1="5.03906" y1="17.0859" x2="22.9591" y2="17.0859" stroke="white" stroke-width="0.707041"/>
</svg>
