<svg width="20" height="20" viewBox="0 0 20 20" fill="none" xmlns="http://www.w3.org/2000/svg">
<mask id="mask0_9035_55415" style="mask-type:luminance" maskUnits="userSpaceOnUse" x="0" y="0" width="20" height="20">
<path d="M20 0H0V20H20V0Z" fill="white"/>
</mask>
<g mask="url(#mask0_9035_55415)">
<path d="M19.5502 8.74029L18.1905 7.16073C17.9306 6.8608 17.7206 6.30094 17.7206 5.90104V4.20146C17.7206 3.14172 16.8509 2.27194 15.7911 2.27194H14.0915C13.7016 2.27194 13.1318 2.06199 12.8318 1.80205L11.2522 0.442391C10.5624 -0.147463 9.43269 -0.147463 8.73286 0.442391L7.16323 1.81205C6.8633 2.06199 6.29344 2.27194 5.90354 2.27194H4.17397C3.11423 2.27194 2.24444 3.14172 2.24444 4.20146V5.91104C2.24444 6.30094 2.0345 6.8608 1.78456 7.16073L0.434892 8.75028C-0.144964 9.44011 -0.144964 10.5598 0.434892 11.2497L1.78456 12.8393C2.0345 13.1392 2.24444 13.6991 2.24444 14.089V15.7985C2.24444 16.8583 3.11423 17.7281 4.17397 17.7281H5.90354C6.29344 17.7281 6.8633 17.938 7.16323 18.1979L8.74286 19.5576C9.43269 20.1475 10.5624 20.1475 11.2622 19.5576L12.8418 18.1979C13.1418 17.938 13.7016 17.7281 14.1015 17.7281H15.8011C16.8608 17.7281 17.7306 16.8583 17.7306 15.7985V14.099C17.7306 13.7091 17.9406 13.1392 18.2005 12.8393L19.5602 11.2597C20.14 10.5698 20.14 9.43012 19.5502 8.74029ZM14.1515 8.11044L9.32271 12.9392C9.18275 13.0792 8.9928 13.1592 8.79284 13.1592C8.59289 13.1592 8.40294 13.0792 8.26298 12.9392L5.84355 10.5198C5.55363 10.2299 5.55363 9.75004 5.84355 9.46011C6.13348 9.17018 6.61336 9.17018 6.90329 9.46011L8.79284 11.3496L13.0918 7.05076C13.3817 6.76083 13.8616 6.76083 14.1515 7.05076C14.4414 7.34068 14.4414 7.82057 14.1515 8.11044Z" fill="#1D993C"/>
</g>
</svg>
