<svg width="15" height="15" viewBox="0 0 15 15" fill="none" xmlns="http://www.w3.org/2000/svg">
<path d="M7.08366 0C8.48461 0 9.8541 0.41543 11.0189 1.19376C12.1838 1.97208 13.0917 3.07835 13.6278 4.37266C14.1639 5.66697 14.3042 7.09119 14.0309 8.46522C13.7576 9.83925 13.083 11.1014 12.0923 12.092C11.1017 13.0826 9.83958 13.7572 8.46555 14.0306C7.09152 14.3039 5.66729 14.1636 4.37298 13.6275C3.07867 13.0914 1.97241 12.1835 1.19408 11.0186C0.415757 9.85377 0.000326157 8.48428 0.000326157 7.08333C0.00235748 5.20534 0.749287 3.40485 2.07723 2.0769C3.40517 0.748961 5.20566 0.00203119 7.08366 0ZM6.49338 7.01191C6.49332 7.11197 6.51869 7.2104 6.56712 7.29796C6.61554 7.38552 6.68543 7.45933 6.77022 7.51246L9.03689 8.92913C9.10278 8.97029 9.17613 8.99807 9.25275 9.01089C9.32938 9.0237 9.40777 9.02129 9.48347 9.00381C9.55917 8.98632 9.63068 8.9541 9.69392 8.90898C9.75716 8.86386 9.8109 8.80672 9.85206 8.74083C9.89322 8.67494 9.921 8.60159 9.93381 8.52497C9.94663 8.44834 9.94422 8.36994 9.92674 8.29425C9.90925 8.21855 9.87703 8.14704 9.83191 8.0838C9.78679 8.02056 9.72965 7.96682 9.66376 7.92566L7.67393 6.68489V4.13194C7.67393 3.97539 7.61175 3.82525 7.50105 3.71455C7.39035 3.60386 7.24021 3.54167 7.08366 3.54167C6.92711 3.54167 6.77697 3.60386 6.66627 3.71455C6.55557 3.82525 6.49338 3.97539 6.49338 4.13194V7.01191Z" fill="#FFA500"/>
</svg>
