<svg width="16" height="14" viewBox="0 0 16 14" fill="none" xmlns="http://www.w3.org/2000/svg">
<path d="M14.6574 9.10275L9.52484 0.9973C9.09289 0.374782 8.37509 0 7.61917 0C6.86326 0 6.14545 0.368429 5.69445 1.01636L0.587252 9.09004C-0.0606757 10.0175 -0.181368 11.1291 0.26964 11.9867C0.714297 12.8442 1.64807 13.3333 2.81688 13.3333H12.4215C13.5966 13.3333 14.524 12.8442 14.9687 11.9867C15.4134 11.1291 15.2927 10.0238 14.6574 9.10275ZM6.98395 3.81134C6.98395 3.46197 7.2698 3.17612 7.61917 3.17612C7.96854 3.17612 8.2544 3.46197 8.2544 3.81134V7.62268C8.2544 7.97205 7.96854 8.2579 7.61917 8.2579C7.2698 8.2579 6.98395 7.97205 6.98395 7.62268V3.81134ZM7.61917 11.434C7.09194 11.434 6.66634 11.0084 6.66634 10.4812C6.66634 9.95395 7.09194 9.52835 7.61917 9.52835C8.14641 9.52835 8.57201 9.95395 8.57201 10.4812C8.57201 11.0084 8.14641 11.434 7.61917 11.434Z" fill="#CD1F38"/>
</svg>
