<svg width="20" height="20" viewBox="0 0 20 20" fill="none" xmlns="http://www.w3.org/2000/svg">
<g clip-path="url(#clip0_5283_32152)">
<path d="M19.1553 4.5424C19.1319 4.3949 18.8953 3.0699 17.9353 2.1024C16.9711 1.15907 15.6411 0.925733 15.4928 0.9024C15.2953 0.8699 15.0936 0.911566 14.9244 1.01657C14.8261 1.0774 12.4628 2.5574 7.66443 7.32157C2.61193 12.3391 1.28693 14.3441 1.23276 14.4266C1.15693 14.5432 1.11109 14.6774 1.10026 14.8157L0.834427 18.2082C0.816094 18.4516 0.903594 18.6899 1.07609 18.8624C1.23276 19.0191 1.44526 19.1066 1.66609 19.1066C1.68693 19.1066 1.70859 19.1066 1.73026 19.1041L5.14776 18.8407C5.28526 18.8299 5.41776 18.7857 5.53359 18.7116C5.61693 18.6582 7.63609 17.3424 12.6878 12.3266C17.4869 7.56157 18.9778 5.21407 19.0394 5.11657C19.1461 4.94573 19.1878 4.74157 19.1561 4.5424H19.1553ZM11.5136 11.1441C7.40526 15.2232 5.35193 16.7941 4.79359 17.1966L2.57276 17.3682L2.74443 15.1749C3.15443 14.6149 4.73859 12.5757 8.83776 8.5049C10.1069 7.2449 11.2011 6.22073 12.1228 5.3974C12.1311 5.39907 12.1394 5.40073 12.1486 5.4024C12.1586 5.40407 13.1794 5.58073 13.8328 6.21907C14.4761 6.84823 14.6569 7.8274 14.6619 7.85157C14.6619 7.8549 14.6636 7.8574 14.6636 7.86073C13.8311 8.7799 12.7928 9.87407 11.5136 11.1441ZM15.9378 6.4074C15.7386 5.9624 15.4403 5.45907 14.9986 5.0274C14.5619 4.5999 14.0536 4.3099 13.6036 4.11657C14.5528 3.3249 15.1936 2.85323 15.5278 2.61907C15.8769 2.7224 16.4019 2.93323 16.7619 3.28573C17.1394 3.66573 17.3411 4.18657 17.4369 4.5099C17.1994 4.84323 16.7278 5.47573 15.9386 6.40823L15.9378 6.4074Z" fill="#161212"/>
</g>
<defs>
<clipPath id="clip0_5283_32152">
<rect width="20" height="20" fill="white"/>
</clipPath>
</defs>
</svg>
