<svg width="24" height="24" viewBox="0 0 24 24" fill="none" xmlns="http://www.w3.org/2000/svg">
<rect x="0.444444" y="0.444444" width="23.1111" height="23.1111" rx="11.5556" stroke="#ECECEC" stroke-width="0.888889"/>
<path d="M11.9993 6.66602C13.1201 6.66602 14.2157 6.99836 15.1476 7.62102C16.0795 8.24368 16.8058 9.12869 17.2347 10.1641C17.6636 11.1996 17.7758 12.339 17.5571 13.4382C17.3385 14.5374 16.7988 15.5471 16.0063 16.3396C15.2138 17.1321 14.2041 17.6718 13.1049 17.8905C12.0056 18.1091 10.8663 17.9969 9.83081 17.568C8.79536 17.1391 7.91035 16.4128 7.28769 15.4809C6.66503 14.549 6.33268 13.4534 6.33268 12.3327C6.33431 10.8303 6.93185 9.38989 7.9942 8.32754C9.05656 7.26518 10.497 6.66764 11.9993 6.66602ZM11.5271 12.2755C11.5271 12.3556 11.5474 12.4343 11.5861 12.5044C11.6249 12.5744 11.6808 12.6335 11.7486 12.676L13.5619 13.8093C13.6146 13.8422 13.6733 13.8645 13.7346 13.8747C13.7959 13.885 13.8586 13.8831 13.9192 13.8691C13.9798 13.8551 14.037 13.8293 14.0876 13.7932C14.1382 13.7571 14.1811 13.7114 14.2141 13.6587C14.247 13.606 14.2692 13.5473 14.2795 13.486C14.2897 13.4247 14.2878 13.362 14.2738 13.3014C14.2598 13.2409 14.234 13.1836 14.1979 13.1331C14.1619 13.0825 14.1161 13.0395 14.0634 13.0065L12.4716 12.0139V9.97157C12.4716 9.84633 12.4218 9.72622 12.3333 9.63766C12.2447 9.5491 12.1246 9.49935 11.9993 9.49935C11.8741 9.49935 11.754 9.5491 11.6654 9.63766C11.5769 9.72622 11.5271 9.84633 11.5271 9.97157V12.2755Z" fill="#161212"/>
</svg>
