<svg width="24" height="24" viewBox="0 0 24 24" fill="none" xmlns="http://www.w3.org/2000/svg">
<rect x="0.444444" y="0.444444" width="23.1111" height="23.1111" rx="11.5556" stroke="#ECECEC" stroke-width="0.888889"/>
<path d="M11.9992 6.64062C9.04868 6.64062 6.64844 9.04087 6.64844 11.9913C6.91731 19.0802 17.0823 19.0784 17.3499 11.9913C17.3499 9.04087 14.9496 6.64062 11.9992 6.64062ZM12.4451 14.2208V14.6667C12.4428 15.2499 11.5555 15.2495 11.5533 14.6667V14.2208H11.4338C10.958 14.2208 10.5139 13.9649 10.2753 13.5524C10.1518 13.3388 10.2249 13.0664 10.4376 12.9433C10.6512 12.8189 10.9241 12.8929 11.0467 13.1056C11.1265 13.2439 11.2746 13.329 11.4333 13.329H12.4446C12.8892 13.358 13.088 12.6379 12.6033 12.5443L11.2474 12.3182C9.68586 12.0288 10.0221 9.75296 11.5528 9.76188V9.31599C11.5555 8.73276 12.4424 8.7332 12.4446 9.31599V9.76188H12.5641C13.0399 9.76188 13.484 10.0183 13.7225 10.4307C13.8461 10.6439 13.7729 10.9163 13.5602 11.0398C13.3462 11.1633 13.0738 11.0902 12.9511 10.8771C12.8713 10.7393 12.7233 10.6541 12.5646 10.6541H11.5533C11.1087 10.6251 10.9103 11.3452 11.3945 11.4389L12.7505 11.665C14.312 11.9543 13.9758 14.2297 12.4451 14.2208Z" fill="#161212"/>
</svg>
