<svg width="24" height="24" viewBox="0 0 24 24" fill="none" xmlns="http://www.w3.org/2000/svg">
<rect x="0.444444" y="0.444444" width="23.1111" height="23.1111" rx="11.5556" stroke="#ECECEC" stroke-width="0.888889"/>
<rect x="0.444444" y="0.444444" width="23.1111" height="23.1111" rx="11.5556" stroke="#ECECEC" stroke-width="0.888889"/>
<rect x="5" y="8" width="14" height="8" rx="1" fill="black"/>
<path d="M7.30664 9.73438L8.21191 11.29L9.11719 9.73438H9.96387L8.6748 11.8467L9.99609 14H9.14062L8.21191 12.415L7.2832 14H6.4248L7.74902 11.8467L6.45703 9.73438H7.30664ZM11.0977 9.73438L12.0029 11.29L12.9082 9.73438H13.7549L12.4658 11.8467L13.7871 14H12.9316L12.0029 12.415L11.0742 14H10.2158L11.54 11.8467L10.248 9.73438H11.0977ZM14.8887 9.73438L15.7939 11.29L16.6992 9.73438H17.5459L16.2568 11.8467L17.5781 14H16.7227L15.7939 12.415L14.8652 14H14.0068L15.3311 11.8467L14.0391 9.73438H14.8887Z" fill="white"/>
</svg>
