<svg width="24" height="24" viewBox="0 0 24 24" fill="none" xmlns="http://www.w3.org/2000/svg">
<rect x="0.444444" y="0.444444" width="23.1111" height="23.1111" rx="11.5556" stroke="#ECECEC" stroke-width="0.888889"/>
<path d="M14.3313 11.2345C14.546 11.4447 14.8282 11.5496 15.1105 11.5496C15.3927 11.5496 15.6749 11.4447 15.8891 11.2345L16.6816 10.4593C17.5482 9.59268 17.5482 8.1829 16.6816 7.31668C16.262 6.89713 15.7038 6.66602 15.1105 6.66602C14.5171 6.66602 13.9589 6.89713 13.5389 7.31668C12.6727 8.18335 12.6727 9.59313 13.5425 10.4629L14.3313 11.2345ZM15.7776 8.79357C15.7776 9.16157 15.4789 9.46024 15.1109 9.46024C14.7429 9.46024 14.4442 9.16157 14.4442 8.79357C14.4442 8.42557 14.7429 8.1269 15.1109 8.1269C15.4789 8.1269 15.7776 8.42557 15.7776 8.79357ZM8.44379 16.4438C8.44379 16.9349 8.04602 17.3327 7.5549 17.3327C7.06379 17.3327 6.66602 16.9349 6.66602 16.4438C6.66602 15.9527 7.06379 15.5549 7.5549 15.5549C8.04602 15.5549 8.44379 15.9527 8.44379 16.4438ZM13.1105 13.7771C13.1105 14.2682 12.7127 14.666 12.2216 14.666C11.7305 14.666 11.3327 14.2682 11.3327 13.7771C11.3327 13.286 11.7305 12.8882 12.2216 12.8882C12.7127 12.8882 13.1105 13.286 13.1105 13.7771ZM7.5549 12.4438C7.5549 11.4633 8.35224 10.666 9.33268 10.666H12.4438C12.6891 10.666 12.8882 10.8651 12.8882 11.1105C12.8882 11.3558 12.6891 11.5549 12.4438 11.5549H9.33268C8.84246 11.5549 8.44379 11.9536 8.44379 12.4438C8.44379 12.934 8.84246 13.3327 9.33268 13.3327H10.2216C10.4669 13.3327 10.666 13.5318 10.666 13.7771C10.666 14.0225 10.4669 14.2216 10.2216 14.2216H9.33268C8.35224 14.2216 7.5549 13.4242 7.5549 12.4438ZM17.3327 15.1105C17.3327 16.0909 16.5353 16.8882 15.5549 16.8882H9.77713C9.53179 16.8882 9.33268 16.6891 9.33268 16.4438C9.33268 16.1985 9.53179 15.9993 9.77713 15.9993H15.5549C16.0451 15.9993 16.4438 15.6007 16.4438 15.1105C16.4438 14.6202 16.0451 14.2216 15.5549 14.2216H14.2216C13.9762 14.2216 13.7771 14.0225 13.7771 13.7771C13.7771 13.5318 13.9762 13.3327 14.2216 13.3327H15.5549C16.5353 13.3327 17.3327 14.13 17.3327 15.1105Z" fill="#161212"/>
</svg>
