<svg width="24" height="24" viewBox="0 0 24 24" fill="none" xmlns="http://www.w3.org/2000/svg">
<rect x="0.444444" y="0.444444" width="23.1111" height="23.1111" rx="11.5556" stroke="#ECECEC" stroke-width="0.888889"/>
<g clip-path="url(#clip0_7219_60912)">
<path d="M6.25175 14.666H4.66602C4.66602 14.9312 4.77137 15.1856 4.95891 15.3731C5.14644 15.5607 5.40079 15.666 5.66601 15.666H5.84101C5.87374 15.2988 6.01694 14.9502 6.25175 14.666ZM13.9993 14.666H9.0802C9.31499 14.9502 9.45817 15.2988 9.49088 15.666H13.9993C14.0877 15.666 14.1724 15.6309 14.235 15.5684C14.2975 15.5059 14.3326 15.4211 14.3326 15.3327V14.9994C14.3326 14.9109 14.2975 14.8262 14.235 14.7636C14.1724 14.7011 14.0877 14.666 13.9993 14.666Z" fill="#161212"/>
<path d="M7.66665 16.9993C8.31097 16.9993 8.83329 16.477 8.83329 15.8327C8.83329 15.1883 8.31097 14.666 7.66665 14.666C7.02233 14.666 6.5 15.1883 6.5 15.8327C6.5 16.477 7.02233 16.9993 7.66665 16.9993Z" fill="#161212"/>
<path d="M19.8506 12.5991L18.5698 9.78156C18.4636 9.54874 18.2928 9.35132 18.0777 9.21276C17.8625 9.07421 17.6121 9.00036 17.3562 9H15.3333C15.2449 9 15.1601 9.03512 15.0976 9.09763C15.0351 9.16015 15 9.24493 15 9.33334V14.5776C15.2416 14.3202 15.5525 14.1382 15.8952 14.0535C16.2379 13.9687 16.5978 13.9849 16.9316 14.0999C17.2653 14.215 17.5587 14.4241 17.7763 14.7021C17.9939 14.98 18.1266 15.315 18.1582 15.6666H19C19.2652 15.6666 19.5195 15.5612 19.7071 15.3737C19.8946 15.1862 20 14.9318 20 14.6666V13.2888C20 13.0509 19.949 12.8157 19.8506 12.5991ZM18.3308 12.3333H16.1666C16.0783 12.3333 15.9935 12.2982 15.931 12.2357C15.8685 12.1731 15.8333 12.0884 15.8333 12V10.6666C15.8333 10.5782 15.8685 10.4934 15.931 10.4309C15.9935 10.3684 16.0783 10.3333 16.1667 10.3333H17.5101C17.6381 10.3333 17.7634 10.3701 17.871 10.4394C17.9786 10.5086 18.064 10.6074 18.117 10.7239L18.6343 11.862C18.6574 11.9128 18.6674 11.9686 18.6633 12.0242C18.6593 12.0799 18.6413 12.1336 18.6111 12.1805C18.5809 12.2274 18.5394 12.2659 18.4904 12.2926C18.4415 12.3193 18.3866 12.3333 18.3308 12.3333V12.3333Z" fill="#161212"/>
<path d="M16.3327 16.9993C16.977 16.9993 17.4993 16.477 17.4993 15.8327C17.4993 15.1883 16.977 14.666 16.3327 14.666C15.6883 14.666 15.166 15.1883 15.166 15.8327C15.166 16.477 15.6883 16.9993 16.3327 16.9993Z" fill="#161212"/>
<path d="M13.3334 7H5.66677C5.40156 7 5.14721 7.10536 4.95967 7.29289C4.77214 7.48043 4.66678 7.73478 4.66678 7.99999V12H4.35116C4.18528 12 4.03138 12.1134 4.00469 12.2773C3.99658 12.3251 3.99901 12.3742 4.01179 12.421C4.02458 12.4678 4.04742 12.5112 4.07872 12.5483C4.11002 12.5853 4.14903 12.6151 4.19303 12.6356C4.23703 12.656 4.28495 12.6666 4.33347 12.6666H5.14909C5.31515 12.6666 5.46902 12.7801 5.49571 12.944C5.50382 12.9918 5.5014 13.0408 5.48861 13.0876C5.47582 13.1344 5.45299 13.1779 5.42168 13.215C5.39038 13.252 5.35137 13.2818 5.30737 13.3023C5.26338 13.3227 5.21545 13.3333 5.16693 13.3333H4.35131C4.18528 13.3333 4.03138 13.4468 4.00469 13.6106C3.99658 13.6584 3.99901 13.7075 4.01179 13.7543C4.02458 13.8011 4.04742 13.8445 4.07872 13.8816C4.11002 13.9186 4.14903 13.9484 4.19303 13.9689C4.23703 13.9893 4.28495 13.9999 4.33347 13.9999H14C14.0885 13.9999 14.1732 13.9648 14.2358 13.9023C14.2983 13.8398 14.3334 13.755 14.3334 13.6666V7.99999C14.3334 7.73478 14.228 7.48043 14.0405 7.29289C13.853 7.10536 13.5986 7 13.3334 7Z" fill="#161212"/>
</g>
<defs>
<clipPath id="clip0_7219_60912">
<rect width="16" height="16" fill="white" transform="translate(4 4)"/>
</clipPath>
</defs>
</svg>
