<svg width="166" height="23" viewBox="0 0 166 23" fill="none" xmlns="http://www.w3.org/2000/svg">
<path d="M9.62402 1.17188V22.5H6.84082V1.17188H9.62402ZM16.4795 1.17188V3.48633H0V1.17188H16.4795ZM21.7301 9.14062V22.5H19.0201V6.65039H21.6568L21.7301 9.14062ZM26.6812 6.5625L26.6666 9.08203C26.442 9.0332 26.2271 9.00391 26.0221 8.99414C25.8268 8.97461 25.6021 8.96484 25.3482 8.96484C24.7232 8.96484 24.1715 9.0625 23.693 9.25781C23.2145 9.45312 22.8092 9.72656 22.4771 10.0781C22.1451 10.4297 21.8814 10.8496 21.6861 11.3379C21.5006 11.8164 21.3785 12.3438 21.3199 12.9199L20.5582 13.3594C20.5582 12.4023 20.651 11.5039 20.8365 10.6641C21.0318 9.82422 21.3297 9.08203 21.7301 8.4375C22.1305 7.7832 22.6383 7.27539 23.2535 6.91406C23.8785 6.54297 24.6207 6.35742 25.4801 6.35742C25.6754 6.35742 25.9 6.38184 26.1539 6.43066C26.4078 6.46973 26.5836 6.51367 26.6812 6.5625ZM39.7834 18.8379V6.65039H42.508V22.5H39.9152L39.7834 18.8379ZM40.2961 15.498L41.424 15.4688C41.424 16.5234 41.3117 17.5 41.0871 18.3984C40.8723 19.2871 40.5207 20.0586 40.0324 20.7129C39.5441 21.3672 38.9045 21.8799 38.1135 22.251C37.3225 22.6123 36.3605 22.793 35.2277 22.793C34.4562 22.793 33.7482 22.6807 33.1037 22.4561C32.4689 22.2314 31.9221 21.8848 31.4631 21.416C31.0041 20.9473 30.6477 20.3369 30.3937 19.585C30.1496 18.833 30.0275 17.9297 30.0275 16.875V6.65039H32.7375V16.9043C32.7375 17.6172 32.8156 18.208 32.9719 18.6768C33.1379 19.1357 33.3576 19.502 33.6311 19.7754C33.9143 20.0391 34.2268 20.2246 34.5686 20.332C34.9201 20.4395 35.2814 20.4932 35.6525 20.4932C36.8049 20.4932 37.718 20.2734 38.3918 19.834C39.0656 19.3848 39.549 18.7842 39.842 18.0322C40.1447 17.2705 40.2961 16.4258 40.2961 15.498ZM53.8816 20.5664C54.5262 20.5664 55.1219 20.4346 55.6688 20.1709C56.2156 19.9072 56.6648 19.5459 57.0164 19.0869C57.368 18.6182 57.5682 18.0859 57.617 17.4902H60.1951C60.1463 18.4277 59.8289 19.3018 59.243 20.1123C58.6668 20.9131 57.91 21.5625 56.9725 22.0605C56.035 22.5488 55.0047 22.793 53.8816 22.793C52.6902 22.793 51.6502 22.583 50.7615 22.1631C49.8826 21.7432 49.1502 21.167 48.5643 20.4346C47.9881 19.7021 47.5535 18.8623 47.2605 17.915C46.9773 16.958 46.8357 15.9473 46.8357 14.8828V14.2676C46.8357 13.2031 46.9773 12.1973 47.2605 11.25C47.5535 10.293 47.9881 9.44824 48.5643 8.71582C49.1502 7.9834 49.8826 7.40723 50.7615 6.9873C51.6502 6.56738 52.6902 6.35742 53.8816 6.35742C55.1219 6.35742 56.2059 6.61133 57.1336 7.11914C58.0613 7.61719 58.7889 8.30078 59.3162 9.16992C59.8533 10.0293 60.1463 11.0059 60.1951 12.0996H57.617C57.5682 11.4453 57.3826 10.8545 57.0604 10.3271C56.7479 9.7998 56.3182 9.37988 55.7713 9.06738C55.2342 8.74512 54.6043 8.58398 53.8816 8.58398C53.0516 8.58398 52.3533 8.75 51.7869 9.08203C51.2303 9.4043 50.7859 9.84375 50.4539 10.4004C50.1316 10.9473 49.8973 11.5576 49.7508 12.2314C49.6141 12.8955 49.5457 13.5742 49.5457 14.2676V14.8828C49.5457 15.5762 49.6141 16.2598 49.7508 16.9336C49.8875 17.6074 50.117 18.2178 50.4393 18.7646C50.7713 19.3115 51.2156 19.751 51.7723 20.083C52.3387 20.4053 53.0418 20.5664 53.8816 20.5664ZM66.8666 0V22.5H64.142V0H66.8666ZM76.5492 6.65039L69.6352 14.0479L65.768 18.0615L65.5482 15.1758L68.3168 11.8652L73.2387 6.65039H76.5492ZM74.0736 22.5L68.4193 14.9414L69.8256 12.5244L77.267 22.5H74.0736Z" fill="black"/>
<path d="M82.0928 1.17188H85.8135L91.292 16.8311L96.7705 1.17188H100.491L92.7861 22.5H89.7979L82.0928 1.17188ZM80.0859 1.17188H83.792L84.4658 16.4355V22.5H80.0859V1.17188ZM98.792 1.17188H102.513V22.5H98.1182V16.4355L98.792 1.17188ZM115.556 18.9258V11.8652C115.556 11.3574 115.473 10.9229 115.307 10.5615C115.141 10.1904 114.882 9.90234 114.531 9.69727C114.189 9.49219 113.745 9.38965 113.198 9.38965C112.729 9.38965 112.324 9.47266 111.982 9.63867C111.64 9.79492 111.377 10.0244 111.191 10.3271C111.005 10.6201 110.913 10.9668 110.913 11.3672H106.694C106.694 10.6934 106.85 10.0537 107.163 9.44824C107.475 8.84277 107.929 8.31055 108.525 7.85156C109.121 7.38281 109.829 7.0166 110.649 6.75293C111.479 6.48926 112.407 6.35742 113.432 6.35742C114.663 6.35742 115.756 6.5625 116.713 6.97266C117.671 7.38281 118.422 7.99805 118.969 8.81836C119.526 9.63867 119.804 10.6641 119.804 11.8945V18.6768C119.804 19.5459 119.858 20.2588 119.965 20.8154C120.073 21.3623 120.229 21.8408 120.434 22.251V22.5H116.171C115.966 22.0703 115.81 21.5332 115.703 20.8887C115.605 20.2344 115.556 19.5801 115.556 18.9258ZM116.113 12.8467L116.142 15.2344H113.784C113.227 15.2344 112.744 15.2979 112.334 15.4248C111.923 15.5518 111.587 15.7324 111.323 15.9668C111.059 16.1914 110.864 16.4551 110.737 16.7578C110.62 17.0605 110.561 17.3926 110.561 17.7539C110.561 18.1152 110.644 18.4424 110.81 18.7354C110.976 19.0186 111.215 19.2432 111.528 19.4092C111.84 19.5654 112.207 19.6436 112.627 19.6436C113.261 19.6436 113.813 19.5166 114.282 19.2627C114.751 19.0088 115.112 18.6963 115.366 18.3252C115.629 17.9541 115.766 17.6025 115.776 17.2705L116.889 19.0576C116.733 19.458 116.518 19.873 116.245 20.3027C115.981 20.7324 115.644 21.1377 115.234 21.5186C114.824 21.8896 114.331 22.1973 113.754 22.4414C113.178 22.6758 112.495 22.793 111.704 22.793C110.698 22.793 109.785 22.5928 108.964 22.1924C108.154 21.7822 107.509 21.2207 107.031 20.5078C106.562 19.7852 106.328 18.9648 106.328 18.0469C106.328 17.2168 106.484 16.4795 106.796 15.835C107.109 15.1904 107.568 14.6484 108.173 14.209C108.789 13.7598 109.555 13.4229 110.473 13.1982C111.391 12.9639 112.456 12.8467 113.667 12.8467H116.113ZM131.72 6.65039V9.63867H122.491V6.65039H131.72ZM124.777 2.73926H128.995V17.7246C128.995 18.1836 129.054 18.5352 129.171 18.7793C129.298 19.0234 129.484 19.1943 129.728 19.292C129.972 19.3799 130.279 19.4238 130.651 19.4238C130.914 19.4238 131.149 19.4141 131.354 19.3945C131.569 19.3652 131.749 19.3359 131.896 19.3066L131.91 22.4121C131.549 22.5293 131.158 22.6221 130.738 22.6904C130.319 22.7588 129.855 22.793 129.347 22.793C128.419 22.793 127.609 22.6416 126.915 22.3389C126.232 22.0264 125.704 21.5283 125.333 20.8447C124.962 20.1611 124.777 19.2627 124.777 18.1494V2.73926ZM141.57 19.4971C142.088 19.4971 142.547 19.3994 142.947 19.2041C143.347 18.999 143.66 18.7158 143.885 18.3545C144.119 17.9834 144.241 17.5488 144.251 17.0508H148.221C148.211 18.1641 147.913 19.1553 147.327 20.0244C146.741 20.8838 145.955 21.5625 144.969 22.0605C143.982 22.5488 142.879 22.793 141.658 22.793C140.428 22.793 139.353 22.5879 138.435 22.1777C137.527 21.7676 136.77 21.2012 136.165 20.4785C135.559 19.7461 135.105 18.8965 134.803 17.9297C134.5 16.9531 134.348 15.9082 134.348 14.7949V14.3701C134.348 13.2471 134.5 12.2021 134.803 11.2354C135.105 10.2588 135.559 9.40918 136.165 8.68652C136.77 7.9541 137.527 7.38281 138.435 6.97266C139.344 6.5625 140.408 6.35742 141.629 6.35742C142.928 6.35742 144.065 6.60645 145.042 7.10449C146.028 7.60254 146.8 8.31543 147.356 9.24316C147.923 10.1611 148.211 11.25 148.221 12.5098H144.251C144.241 11.9824 144.129 11.5039 143.914 11.0742C143.709 10.6445 143.406 10.3027 143.006 10.0488C142.615 9.78516 142.132 9.65332 141.555 9.65332C140.94 9.65332 140.437 9.78516 140.047 10.0488C139.656 10.3027 139.353 10.6543 139.138 11.1035C138.924 11.543 138.772 12.0459 138.684 12.6123C138.606 13.1689 138.567 13.7549 138.567 14.3701V14.7949C138.567 15.4102 138.606 16.001 138.684 16.5674C138.762 17.1338 138.909 17.6367 139.124 18.0762C139.348 18.5156 139.656 18.8623 140.047 19.1162C140.437 19.3701 140.945 19.4971 141.57 19.4971ZM155.683 0V22.5H151.464V0H155.683ZM155.082 14.0186H153.925C153.935 12.915 154.081 11.8994 154.365 10.9717C154.648 10.0342 155.053 9.22363 155.58 8.54004C156.108 7.84668 156.738 7.30957 157.47 6.92871C158.212 6.54785 159.033 6.35742 159.931 6.35742C160.712 6.35742 161.42 6.46973 162.055 6.69434C162.7 6.90918 163.251 7.26074 163.71 7.74902C164.179 8.22754 164.54 8.85742 164.794 9.63867C165.048 10.4199 165.175 11.3672 165.175 12.4805V22.5H160.927V12.4512C160.927 11.748 160.825 11.1963 160.62 10.7959C160.424 10.3857 160.136 10.0977 159.755 9.93164C159.384 9.75586 158.925 9.66797 158.378 9.66797C157.773 9.66797 157.255 9.78027 156.826 10.0049C156.406 10.2295 156.069 10.542 155.815 10.9424C155.561 11.333 155.375 11.792 155.258 12.3193C155.141 12.8467 155.082 13.4131 155.082 14.0186Z" fill="#D74315"/>
</svg>
