<svg width="210" height="39" viewBox="0 0 210 39" fill="none" xmlns="http://www.w3.org/2000/svg">
<path d="M25.3333 10.1666H22.5333C22.2239 8.6618 21.4051 7.30971 20.215 6.33821C19.0249 5.36671 17.5363 4.83519 16 4.83325H6.66667C4.89921 4.83537 3.20474 5.53843 1.95496 6.78821C0.705176 8.038 0.00211714 9.73246 0 11.4999L0 23.4999C0.00335174 24.6941 0.407384 25.8526 1.14738 26.7899C1.88738 27.7271 2.92052 28.3889 4.08133 28.6693C3.95568 29.3365 3.97716 30.0232 4.14425 30.6813C4.31135 31.3394 4.62005 31.9531 5.0488 32.4796C5.47755 33.0061 6.01602 33.4327 6.62665 33.7296C7.23728 34.0266 7.90534 34.1867 8.58423 34.1988C9.26311 34.2109 9.93646 34.0747 10.5573 33.7997C11.1781 33.5247 11.7314 33.1176 12.1787 32.6067C12.6259 32.0958 12.9563 31.4935 13.1467 30.8418C13.3372 30.19 13.3831 29.5046 13.2813 28.8333H18.724C18.6897 29.0539 18.6714 29.2767 18.6693 29.4999C18.6693 30.7376 19.161 31.9246 20.0362 32.7998C20.9113 33.6749 22.0983 34.1666 23.336 34.1666C24.5737 34.1666 25.7607 33.6749 26.6358 32.7998C27.511 31.9246 28.0027 30.7376 28.0027 29.4999C28.0012 29.2211 27.9739 28.9431 27.9213 28.6693C29.0816 28.3884 30.1142 27.7264 30.8537 26.7892C31.5931 25.852 31.9968 24.6937 32 23.4999V16.8333C31.9979 15.0658 31.2948 13.3713 30.045 12.1215C28.7953 10.8718 27.1008 10.1687 25.3333 10.1666ZM29.3333 16.8333V18.1666H22.6667V12.8333H25.3333C26.3942 12.8333 27.4116 13.2547 28.1618 14.0048C28.9119 14.755 29.3333 15.7724 29.3333 16.8333ZM2.66667 23.4999V11.4999C2.66667 10.4391 3.08809 9.42164 3.83824 8.67149C4.58839 7.92135 5.6058 7.49992 6.66667 7.49992H16C17.0609 7.49992 18.0783 7.92135 18.8284 8.67149C19.5786 9.42164 20 10.4391 20 11.4999V26.1666H5.33333C4.62609 26.1666 3.94781 25.8856 3.44772 25.3855C2.94762 24.8854 2.66667 24.2072 2.66667 23.4999ZM10.6667 29.4999C10.6667 30.0304 10.456 30.5391 10.0809 30.9141C9.70581 31.2892 9.1971 31.4999 8.66667 31.4999C8.13623 31.4999 7.62753 31.2892 7.25245 30.9141C6.87738 30.5391 6.66667 30.0304 6.66667 29.4999C6.66749 29.272 6.70949 29.0462 6.79067 28.8333H10.5427C10.6238 29.0462 10.6658 29.272 10.6667 29.4999ZM23.3333 31.4999C22.8029 31.4999 22.2942 31.2892 21.9191 30.9141C21.544 30.5391 21.3333 30.0304 21.3333 29.4999C21.3339 29.272 21.3759 29.0461 21.4573 28.8333H25.2093C25.2907 29.0461 25.3328 29.272 25.3333 29.4999C25.3333 30.0304 25.1226 30.5391 24.7475 30.9141C24.3725 31.2892 23.8638 31.4999 23.3333 31.4999ZM26.6667 26.1666H22.6667V20.8333H29.3333V23.4999C29.3333 24.2072 29.0524 24.8854 28.5523 25.3855C28.0522 25.8856 27.3739 26.1666 26.6667 26.1666Z" fill="#D74315"/>
<path d="M52.3564 8.67188V30H49.5732V8.67188H52.3564ZM59.2119 8.67188V10.9863H42.7324V8.67188H59.2119ZM64.4625 16.6406V30H61.7525V14.1504H64.3893L64.4625 16.6406ZM69.4137 14.0625L69.399 16.582C69.1744 16.5332 68.9596 16.5039 68.7545 16.4941C68.5592 16.4746 68.3346 16.4648 68.0807 16.4648C67.4557 16.4648 66.9039 16.5625 66.4254 16.7578C65.9469 16.9531 65.5416 17.2266 65.2096 17.5781C64.8775 17.9297 64.6139 18.3496 64.4186 18.8379C64.233 19.3164 64.1109 19.8438 64.0523 20.4199L63.2906 20.8594C63.2906 19.9023 63.3834 19.0039 63.5689 18.1641C63.7643 17.3242 64.0621 16.582 64.4625 15.9375C64.8629 15.2832 65.3707 14.7754 65.9859 14.4141C66.6109 14.043 67.3531 13.8574 68.2125 13.8574C68.4078 13.8574 68.6324 13.8818 68.8863 13.9307C69.1402 13.9697 69.316 14.0137 69.4137 14.0625ZM82.5158 26.3379V14.1504H85.2404V30H82.6477L82.5158 26.3379ZM83.0285 22.998L84.1564 22.9688C84.1564 24.0234 84.0441 25 83.8195 25.8984C83.6047 26.7871 83.2531 27.5586 82.7648 28.2129C82.2766 28.8672 81.6369 29.3799 80.8459 29.751C80.0549 30.1123 79.093 30.293 77.9602 30.293C77.1887 30.293 76.4807 30.1807 75.8361 29.9561C75.2014 29.7314 74.6545 29.3848 74.1955 28.916C73.7365 28.4473 73.3801 27.8369 73.1262 27.085C72.882 26.333 72.76 25.4297 72.76 24.375V14.1504H75.4699V24.4043C75.4699 25.1172 75.548 25.708 75.7043 26.1768C75.8703 26.6357 76.09 27.002 76.3635 27.2754C76.6467 27.5391 76.9592 27.7246 77.301 27.832C77.6525 27.9395 78.0139 27.9932 78.385 27.9932C79.5373 27.9932 80.4504 27.7734 81.1242 27.334C81.798 26.8848 82.2814 26.2842 82.5744 25.5322C82.8771 24.7705 83.0285 23.9258 83.0285 22.998ZM96.6141 28.0664C97.2586 28.0664 97.8543 27.9346 98.4012 27.6709C98.948 27.4072 99.3973 27.0459 99.7488 26.5869C100.1 26.1182 100.301 25.5859 100.349 24.9902H102.928C102.879 25.9277 102.561 26.8018 101.975 27.6123C101.399 28.4131 100.642 29.0625 99.7049 29.5605C98.7674 30.0488 97.7371 30.293 96.6141 30.293C95.4227 30.293 94.3826 30.083 93.4939 29.6631C92.615 29.2432 91.8826 28.667 91.2967 27.9346C90.7205 27.2021 90.2859 26.3623 89.993 25.415C89.7098 24.458 89.5682 23.4473 89.5682 22.3828V21.7676C89.5682 20.7031 89.7098 19.6973 89.993 18.75C90.2859 17.793 90.7205 16.9482 91.2967 16.2158C91.8826 15.4834 92.615 14.9072 93.4939 14.4873C94.3826 14.0674 95.4227 13.8574 96.6141 13.8574C97.8543 13.8574 98.9383 14.1113 99.866 14.6191C100.794 15.1172 101.521 15.8008 102.049 16.6699C102.586 17.5293 102.879 18.5059 102.928 19.5996H100.349C100.301 18.9453 100.115 18.3545 99.7928 17.8271C99.4803 17.2998 99.0506 16.8799 98.5037 16.5674C97.9666 16.2451 97.3367 16.084 96.6141 16.084C95.784 16.084 95.0857 16.25 94.5193 16.582C93.9627 16.9043 93.5184 17.3438 93.1863 17.9004C92.8641 18.4473 92.6297 19.0576 92.4832 19.7314C92.3465 20.3955 92.2781 21.0742 92.2781 21.7676V22.3828C92.2781 23.0762 92.3465 23.7598 92.4832 24.4336C92.6199 25.1074 92.8494 25.7178 93.1717 26.2646C93.5037 26.8115 93.948 27.251 94.5047 27.583C95.0711 27.9053 95.7742 28.0664 96.6141 28.0664ZM109.599 7.5V30H106.874V7.5H109.599ZM119.282 14.1504L112.368 21.5479L108.5 25.5615L108.281 22.6758L111.049 19.3652L115.971 14.1504H119.282ZM116.806 30L111.152 22.4414L112.558 20.0244L119.999 30H116.806Z" fill="black"/>
<path d="M124.825 8.67188H128.546L134.024 24.3311L139.503 8.67188H143.224L135.519 30H132.53L124.825 8.67188ZM122.818 8.67188H126.524L127.198 23.9355V30H122.818V8.67188ZM141.524 8.67188H145.245V30H140.851V23.9355L141.524 8.67188ZM158.289 26.4258V19.3652C158.289 18.8574 158.206 18.4229 158.04 18.0615C157.874 17.6904 157.615 17.4023 157.263 17.1973C156.921 16.9922 156.477 16.8896 155.93 16.8896C155.462 16.8896 155.056 16.9727 154.714 17.1387C154.373 17.2949 154.109 17.5244 153.923 17.8271C153.738 18.1201 153.645 18.4668 153.645 18.8672H149.426C149.426 18.1934 149.583 17.5537 149.895 16.9482C150.208 16.3428 150.662 15.8105 151.257 15.3516C151.853 14.8828 152.561 14.5166 153.381 14.2529C154.212 13.9893 155.139 13.8574 156.165 13.8574C157.395 13.8574 158.489 14.0625 159.446 14.4727C160.403 14.8828 161.155 15.498 161.702 16.3184C162.258 17.1387 162.537 18.1641 162.537 19.3945V26.1768C162.537 27.0459 162.59 27.7588 162.698 28.3154C162.805 28.8623 162.962 29.3408 163.167 29.751V30H158.904C158.699 29.5703 158.543 29.0332 158.435 28.3887C158.338 27.7344 158.289 27.0801 158.289 26.4258ZM158.845 20.3467L158.875 22.7344H156.516C155.96 22.7344 155.476 22.7979 155.066 22.9248C154.656 23.0518 154.319 23.2324 154.055 23.4668C153.792 23.6914 153.596 23.9551 153.469 24.2578C153.352 24.5605 153.294 24.8926 153.294 25.2539C153.294 25.6152 153.377 25.9424 153.543 26.2354C153.709 26.5186 153.948 26.7432 154.26 26.9092C154.573 27.0654 154.939 27.1436 155.359 27.1436C155.994 27.1436 156.546 27.0166 157.014 26.7627C157.483 26.5088 157.844 26.1963 158.098 25.8252C158.362 25.4541 158.499 25.1025 158.508 24.7705L159.622 26.5576C159.465 26.958 159.251 27.373 158.977 27.8027C158.713 28.2324 158.377 28.6377 157.966 29.0186C157.556 29.3896 157.063 29.6973 156.487 29.9414C155.911 30.1758 155.227 30.293 154.436 30.293C153.43 30.293 152.517 30.0928 151.697 29.6924C150.886 29.2822 150.242 28.7207 149.763 28.0078C149.295 27.2852 149.06 26.4648 149.06 25.5469C149.06 24.7168 149.216 23.9795 149.529 23.335C149.841 22.6904 150.3 22.1484 150.906 21.709C151.521 21.2598 152.288 20.9229 153.206 20.6982C154.124 20.4639 155.188 20.3467 156.399 20.3467H158.845ZM174.452 14.1504V17.1387H165.224V14.1504H174.452ZM167.509 10.2393H171.728V25.2246C171.728 25.6836 171.786 26.0352 171.904 26.2793C172.03 26.5234 172.216 26.6943 172.46 26.792C172.704 26.8799 173.012 26.9238 173.383 26.9238C173.647 26.9238 173.881 26.9141 174.086 26.8945C174.301 26.8652 174.482 26.8359 174.628 26.8066L174.643 29.9121C174.281 30.0293 173.891 30.1221 173.471 30.1904C173.051 30.2588 172.587 30.293 172.079 30.293C171.152 30.293 170.341 30.1416 169.648 29.8389C168.964 29.5264 168.437 29.0283 168.066 28.3447C167.695 27.6611 167.509 26.7627 167.509 25.6494V10.2393ZM184.303 26.9971C184.82 26.9971 185.279 26.8994 185.679 26.7041C186.08 26.499 186.392 26.2158 186.617 25.8545C186.851 25.4834 186.973 25.0488 186.983 24.5508H190.953C190.943 25.6641 190.645 26.6553 190.059 27.5244C189.473 28.3838 188.687 29.0625 187.701 29.5605C186.715 30.0488 185.611 30.293 184.39 30.293C183.16 30.293 182.086 30.0879 181.168 29.6777C180.26 29.2676 179.503 28.7012 178.897 27.9785C178.292 27.2461 177.838 26.3965 177.535 25.4297C177.232 24.4531 177.081 23.4082 177.081 22.2949V21.8701C177.081 20.7471 177.232 19.7021 177.535 18.7354C177.838 17.7588 178.292 16.9092 178.897 16.1865C179.503 15.4541 180.26 14.8828 181.168 14.4727C182.076 14.0625 183.14 13.8574 184.361 13.8574C185.66 13.8574 186.798 14.1064 187.774 14.6045C188.761 15.1025 189.532 15.8154 190.089 16.7432C190.655 17.6611 190.943 18.75 190.953 20.0098H186.983C186.973 19.4824 186.861 19.0039 186.646 18.5742C186.441 18.1445 186.138 17.8027 185.738 17.5488C185.347 17.2852 184.864 17.1533 184.288 17.1533C183.673 17.1533 183.17 17.2852 182.779 17.5488C182.388 17.8027 182.086 18.1543 181.871 18.6035C181.656 19.043 181.505 19.5459 181.417 20.1123C181.339 20.6689 181.3 21.2549 181.3 21.8701V22.2949C181.3 22.9102 181.339 23.501 181.417 24.0674C181.495 24.6338 181.641 25.1367 181.856 25.5762C182.081 26.0156 182.388 26.3623 182.779 26.6162C183.17 26.8701 183.678 26.9971 184.303 26.9971ZM198.415 7.5V30H194.197V7.5H198.415ZM197.815 21.5186H196.658C196.667 20.415 196.814 19.3994 197.097 18.4717C197.38 17.5342 197.786 16.7236 198.313 16.04C198.84 15.3467 199.47 14.8096 200.203 14.4287C200.945 14.0479 201.765 13.8574 202.663 13.8574C203.445 13.8574 204.153 13.9697 204.788 14.1943C205.432 14.4092 205.984 14.7607 206.443 15.249C206.912 15.7275 207.273 16.3574 207.527 17.1387C207.781 17.9199 207.908 18.8672 207.908 19.9805V30H203.66V19.9512C203.66 19.248 203.557 18.6963 203.352 18.2959C203.157 17.8857 202.869 17.5977 202.488 17.4316C202.117 17.2559 201.658 17.168 201.111 17.168C200.505 17.168 199.988 17.2803 199.558 17.5049C199.138 17.7295 198.801 18.042 198.547 18.4424C198.293 18.833 198.108 19.292 197.991 19.8193C197.873 20.3467 197.815 20.9131 197.815 21.5186Z" fill="#D74315"/>
</svg>
