<svg width="77" height="77" viewBox="0 0 77 77" fill="none" xmlns="http://www.w3.org/2000/svg">
<g clip-path="url(#clip0_5296_28863)">
<path d="M60.5446 15.9325H53.8529C53.1133 12.3362 51.1565 9.10483 48.3122 6.78301C45.468 4.46119 41.9103 3.19091 38.2387 3.18628H15.9328C11.7087 3.19134 7.65903 4.8716 4.67214 7.85848C1.68525 10.8454 0.00499877 14.895 -6.10352e-05 19.1191L-6.10352e-05 47.7982C0.00794936 50.6522 0.973555 53.4209 2.74209 55.6609C4.51063 57.9009 6.97976 59.4825 9.75401 60.1525C9.45372 61.7472 9.50504 63.3882 9.90439 64.9611C10.3037 66.5339 11.0415 68.0006 12.0662 69.2589C13.0909 70.5172 14.3778 71.5368 15.8371 72.2464C17.2965 72.956 18.8931 73.3386 20.5156 73.3676C22.1381 73.3965 23.7473 73.071 25.231 72.4138C26.7147 71.7567 28.0372 70.7837 29.106 69.5627C30.1749 68.3417 30.9645 66.9022 31.4196 65.3446C31.8748 63.787 31.9846 62.1488 31.7413 60.5444H44.7489C44.6669 61.0717 44.6232 61.6042 44.6182 62.1377C44.6182 65.0957 45.7932 67.9325 47.8848 70.0241C49.9764 72.1156 52.8132 73.2907 55.7712 73.2907C58.7291 73.2907 61.5659 72.1156 63.6575 70.0241C65.7491 67.9325 66.9241 65.0957 66.9241 62.1377C66.9205 61.4714 66.8555 60.8068 66.7298 60.1525C69.5028 59.4813 71.9705 57.8991 73.7378 55.6592C75.5051 53.4194 76.4698 50.6513 76.4775 47.7982V31.8654C76.4724 27.6413 74.7922 23.5916 71.8053 20.6047C68.8184 17.6179 64.7687 15.9376 60.5446 15.9325ZM70.1043 31.8654V35.0519H54.1715V22.3057H60.5446C63.08 22.3057 65.5116 23.3128 67.3044 25.1056C69.0972 26.8984 70.1043 29.33 70.1043 31.8654ZM6.37307 47.7982V19.1191C6.37307 16.5837 7.38025 14.1522 9.17303 12.3594C10.9658 10.5666 13.3974 9.55941 15.9328 9.55941H38.2387C40.7741 9.55941 43.2056 10.5666 44.9984 12.3594C46.7912 14.1522 47.7984 16.5837 47.7984 19.1191V54.1713H12.7462C11.0559 54.1713 9.4349 53.4998 8.23971 52.3047C7.04452 51.1095 6.37307 49.4884 6.37307 47.7982ZM25.4924 62.1377C25.4924 63.4054 24.9889 64.6212 24.0925 65.5176C23.1961 66.414 21.9803 66.9176 20.7126 66.9176C19.4449 66.9176 18.2291 66.414 17.3327 65.5176C16.4363 64.6212 15.9328 63.4054 15.9328 62.1377C15.9347 61.5931 16.0351 61.0533 16.2291 60.5444H25.1961C25.3901 61.0533 25.4905 61.5931 25.4924 62.1377ZM55.7648 66.9176C54.4971 66.9176 53.2813 66.414 52.3849 65.5176C51.4885 64.6212 50.985 63.4054 50.985 62.1377C50.9864 61.593 51.0868 61.0532 51.2813 60.5444H60.2483C60.4428 61.0532 60.5433 61.593 60.5446 62.1377C60.5446 63.4054 60.0411 64.6212 59.1447 65.5176C58.2483 66.414 57.0325 66.9176 55.7648 66.9176ZM63.7312 54.1713H54.1715V41.425H70.1043V47.7982C70.1043 49.4884 69.4329 51.1095 68.2377 52.3047C67.0425 53.4998 65.4215 54.1713 63.7312 54.1713Z" fill="#D74315"/>
</g>
<defs>
<clipPath id="clip0_5296_28863">
<rect width="76.4775" height="76.4775" fill="white"/>
</clipPath>
</defs>
</svg>
