<svg width="17" height="16" viewBox="0 0 17 16" fill="none" xmlns="http://www.w3.org/2000/svg">
<path d="M8.02608 0C3.60037 0 0 3.60037 0 8.02608C0.403311 18.6593 15.6509 18.6566 16.0522 8.02608C16.0522 3.60037 12.4518 0 8.02608 0ZM8.69493 11.3703V12.0391C8.69158 12.914 7.36059 12.9133 7.35724 12.0391V11.3703H7.178C6.46434 11.3703 5.79818 10.9864 5.44035 10.3677C5.25508 10.0473 5.36477 9.63866 5.68381 9.45406C6.00418 9.26745 6.41351 9.37848 6.59744 9.69752C6.71716 9.90486 6.93922 10.0326 7.17733 10.0326H8.69426C9.36109 10.0761 9.65939 8.9959 8.93236 8.85545L6.89842 8.51634C4.55614 8.08227 5.06045 4.66851 7.35658 4.68188V4.01304C7.36059 3.1382 8.69091 3.13887 8.69426 4.01304V4.68188H8.87351C9.58716 4.68188 10.2533 5.06647 10.6112 5.68514C10.7964 6.00485 10.6867 6.41351 10.3677 6.59878C10.0467 6.78405 9.63799 6.67436 9.45406 6.35465C9.33434 6.14798 9.11228 6.02023 8.87417 6.02023H7.35724C6.69041 5.97676 6.39278 7.05693 7.11914 7.19739L9.15308 7.53649C11.4954 7.97057 10.9911 11.3837 8.69493 11.3703Z" fill="#797979"/>
</svg>
