<svg width="11" height="8" viewBox="0 0 11 8" fill="none" xmlns="http://www.w3.org/2000/svg">
<path d="M0.5 3.18198C0.223858 3.18198 0 3.40583 0 3.68198C0 3.95812 0.223858 4.18198 0.5 4.18198V3.68198V3.18198ZM10.7783 4.03553C10.9735 3.84027 10.9735 3.52369 10.7783 3.32842L7.59629 0.146442C7.40103 -0.0488198 7.08444 -0.0488198 6.88918 0.146442C6.69392 0.341705 6.69392 0.658287 6.88918 0.853549L9.71761 3.68198L6.88918 6.5104C6.69392 6.70567 6.69392 7.02225 6.88918 7.21751C7.08444 7.41277 7.40103 7.41277 7.59629 7.21751L10.7783 4.03553ZM0.5 3.68198V4.18198H10.4247V3.68198V3.18198H0.5V3.68198Z" fill="#D74315"/>
</svg>
