<svg width="7" height="13" viewBox="0 0 7 13" fill="none" xmlns="http://www.w3.org/2000/svg">
<path d="M6.30307 0.265758C6.38899 0.350974 6.45718 0.452357 6.50372 0.564061C6.55026 0.675766 6.57422 0.795579 6.57422 0.91659C6.57422 1.0376 6.55026 1.15741 6.50372 1.26912C6.45718 1.38082 6.38899 1.48221 6.30307 1.56742L2.10474 5.76576C2.01882 5.85097 1.95062 5.95236 1.90409 6.06406C1.85755 6.17577 1.83359 6.29558 1.83359 6.41659C1.83359 6.5376 1.85755 6.65742 1.90409 6.76912C1.95062 6.88082 2.01882 6.98221 2.10474 7.06742L6.30307 11.2658C6.38899 11.351 6.45718 11.4524 6.50372 11.5641C6.55026 11.6758 6.57422 11.7956 6.57422 11.9166C6.57422 12.0376 6.55026 12.1574 6.50372 12.2691C6.45718 12.3808 6.38899 12.4822 6.30307 12.5674C6.13132 12.7382 5.89899 12.834 5.65682 12.834C5.41465 12.834 5.18232 12.7382 5.01057 12.5674L0.80307 8.35992C0.288085 7.8443 -0.00117725 7.14534 -0.00117725 6.41659C-0.00117725 5.68784 0.288085 4.98888 0.80307 4.47326L5.01057 0.265758C5.18232 0.0950276 5.41465 -0.000803868 5.65682 -0.000803868C5.89899 -0.000803868 6.13132 0.0950276 6.30307 0.265758Z" fill="#161212"/>
</svg>
