<svg width="12" height="12" viewBox="0 0 12 12" fill="none" xmlns="http://www.w3.org/2000/svg">
<path d="M1.48568 5.34202C1.84775 2.88152 4.13589 1.18041 6.59639 1.54248C7.43586 1.66601 8.22335 2.0242 8.86813 2.5758L8.28769 3.15624C8.09314 3.35084 8.09319 3.66632 8.28781 3.86086C8.3812 3.95424 8.50788 4.00672 8.63995 4.00674H10.9249C11.2001 4.00674 11.4231 3.78368 11.4231 3.50851V1.22357C11.4231 0.948401 11.1999 0.725384 10.9248 0.72543C10.7927 0.725454 10.666 0.777932 10.5726 0.871306L9.92488 1.51901C7.45485 -0.682784 3.66758 -0.465349 1.46578 2.00468C0.685748 2.87972 0.179551 3.96437 0.0099005 5.12428C-0.0569883 5.53549 0.222128 5.92307 0.633316 5.98995C0.670357 5.99598 0.707772 5.99923 0.745303 5.99969C1.12151 5.99563 1.43729 5.71511 1.48568 5.34202Z" fill="#797979"/>
<path d="M11.1387 5.99976C10.7625 6.00382 10.4467 6.28434 10.3983 6.65743C10.0363 9.11793 7.74812 10.819 5.28762 10.457C4.44815 10.3335 3.66067 9.97527 3.01588 9.42367L3.59632 8.84323C3.79087 8.64863 3.79083 8.33316 3.59621 8.13861C3.50281 8.04524 3.37613 7.99276 3.24406 7.99273H0.95917C0.684001 7.99273 0.460938 8.2158 0.460938 8.49097V10.7759C0.461008 11.0511 0.684118 11.2741 0.959287 11.274C1.09136 11.274 1.21804 11.2215 1.31143 11.1282L1.95914 10.4805C4.42858 12.6825 8.21557 12.4657 10.4176 9.99627C11.1981 9.12104 11.7045 8.03601 11.8741 6.87569C11.9413 6.46452 11.6624 6.07676 11.2513 6.00959C11.2141 6.00349 11.1764 6.0002 11.1387 5.99976Z" fill="#797979"/>
</svg>
