<svg width="401" height="194" viewBox="0 0 401 194" fill="none" xmlns="http://www.w3.org/2000/svg">
<g clip-path="url(#clip0_5296_28862)">
<path d="M222.806 20.7124H216.114C215.375 17.1161 213.418 13.8847 210.573 11.5629C207.729 9.24104 204.172 7.97076 200.5 7.96613H178.194C173.97 7.97119 169.92 9.65144 166.933 12.6383C163.946 15.6252 162.266 19.6749 162.261 23.8989V52.578C162.269 55.432 163.235 58.2007 165.003 60.4407C166.772 62.6807 169.241 64.2624 172.015 64.9323C171.715 66.527 171.766 68.1681 172.166 69.7409C172.565 71.3137 173.303 72.7805 174.327 74.0388C175.352 75.2971 176.639 76.3166 178.098 77.0262C179.558 77.7359 181.154 78.1185 182.777 78.1474C184.399 78.1763 186.009 77.8509 187.492 77.1937C188.976 76.5365 190.298 75.5635 191.367 74.3425C192.436 73.1216 193.226 71.682 193.681 70.1244C194.136 68.5668 194.246 66.9287 194.003 65.3243H207.01C206.928 65.8515 206.884 66.384 206.879 66.9176C206.879 69.8755 208.054 72.7123 210.146 74.8039C212.238 76.8955 215.074 78.0705 218.032 78.0705C220.99 78.0705 223.827 76.8955 225.919 74.8039C228.01 72.7123 229.185 69.8755 229.185 66.9176C229.182 66.2512 229.117 65.5867 228.991 64.9323C231.764 64.2611 234.232 62.679 235.999 60.4391C237.766 58.1992 238.731 55.4311 238.739 52.578V36.6452C238.734 32.4211 237.053 28.3715 234.066 25.3846C231.08 22.3977 227.03 20.7174 222.806 20.7124ZM232.366 36.6452V39.8318H216.433V27.0855H222.806C225.341 27.0855 227.773 28.0927 229.566 29.8855C231.358 31.6783 232.366 34.1098 232.366 36.6452ZM168.634 52.578V23.8989C168.634 21.3636 169.641 18.932 171.434 17.1392C173.227 15.3464 175.659 14.3393 178.194 14.3393H200.5C203.035 14.3393 205.467 15.3464 207.26 17.1392C209.052 18.932 210.06 21.3636 210.06 23.8989V58.9511H175.007C173.317 58.9511 171.696 58.2797 170.501 57.0845C169.306 55.8893 168.634 54.2683 168.634 52.578ZM187.754 66.9176C187.754 68.1853 187.25 69.401 186.354 70.2974C185.457 71.1938 184.242 71.6974 182.974 71.6974C181.706 71.6974 180.49 71.1938 179.594 70.2974C178.698 69.401 178.194 68.1853 178.194 66.9176C178.196 66.3729 178.296 65.8332 178.49 65.3243H187.457C187.651 65.8332 187.752 66.3729 187.754 66.9176ZM218.026 71.6974C216.758 71.6974 215.543 71.1938 214.646 70.2974C213.75 69.401 213.246 68.1853 213.246 66.9176C213.248 66.3729 213.348 65.833 213.543 65.3243H222.51C222.704 65.833 222.804 66.3729 222.806 66.9176C222.806 68.1853 222.302 69.401 221.406 70.2974C220.509 71.1938 219.294 71.6974 218.026 71.6974ZM225.992 58.9511H216.433V46.2049H232.366V52.578C232.366 54.2683 231.694 55.8893 230.499 57.0845C229.304 58.2797 227.683 58.9511 225.992 58.9511Z" fill="#D74315"/>
</g>
<path d="M24.7511 121.184V172.157H18.0995V121.184H24.7511ZM41.1351 121.184V126.715H1.75043V121.184H41.1351ZM53.6836 140.229V172.157H47.207V134.277H53.5086L53.6836 140.229ZM65.5166 134.067L65.4815 140.089C64.9447 139.972 64.4313 139.902 63.9412 139.879C63.4744 139.832 62.9376 139.809 62.3308 139.809C60.8371 139.809 59.5184 140.042 58.3748 140.509C57.2312 140.976 56.2626 141.629 55.4691 142.469C54.6755 143.31 54.0454 144.313 53.5786 145.48C53.1352 146.624 52.8434 147.884 52.7034 149.261L50.8829 150.311C50.8829 148.024 51.1047 145.877 51.5481 143.87C52.0149 141.862 52.7267 140.089 53.6836 138.548C54.6405 136.985 55.8542 135.771 57.3245 134.907C58.8182 134.021 60.592 133.577 62.6458 133.577C63.1126 133.577 63.6494 133.635 64.2562 133.752C64.8631 133.846 65.2832 133.951 65.5166 134.067ZM96.8297 163.404V134.277H103.341V172.157H97.1448L96.8297 163.404ZM98.055 155.422L100.751 155.352C100.751 157.873 100.482 160.207 99.9454 162.354C99.432 164.478 98.5918 166.322 97.4248 167.886C96.2579 169.449 94.7292 170.675 92.8387 171.561C90.9482 172.425 88.6493 172.857 85.942 172.857C84.0982 172.857 82.4061 172.588 80.8657 172.052C79.3487 171.515 78.0417 170.686 76.9448 169.566C75.8478 168.446 74.996 166.987 74.3891 165.19C73.8057 163.393 73.5139 161.234 73.5139 158.713V134.277H79.9905V158.783C79.9905 160.487 80.1772 161.899 80.5507 163.019C80.9474 164.116 81.4726 164.992 82.126 165.645C82.8029 166.275 83.5497 166.719 84.3666 166.975C85.2068 167.232 86.0704 167.36 86.9572 167.36C89.7113 167.36 91.8935 166.835 93.5039 165.785C95.1143 164.711 96.2695 163.276 96.9697 161.479C97.6932 159.659 98.055 157.64 98.055 155.422ZM130.523 167.535C132.064 167.535 133.487 167.22 134.794 166.59C136.101 165.96 137.175 165.097 138.015 164C138.855 162.879 139.334 161.607 139.451 160.184H145.612C145.495 162.424 144.737 164.513 143.337 166.45C141.96 168.364 140.151 169.916 137.91 171.106C135.67 172.273 133.207 172.857 130.523 172.857C127.676 172.857 125.19 172.355 123.067 171.351C120.966 170.348 119.216 168.971 117.815 167.22C116.438 165.47 115.4 163.463 114.699 161.199C114.023 158.912 113.684 156.496 113.684 153.952V152.482C113.684 149.938 114.023 147.534 114.699 145.27C115.4 142.983 116.438 140.964 117.815 139.213C119.216 137.463 120.966 136.086 123.067 135.082C125.19 134.079 127.676 133.577 130.523 133.577C133.487 133.577 136.078 134.184 138.295 135.398C140.513 136.588 142.251 138.222 143.512 140.299C144.795 142.353 145.495 144.687 145.612 147.3H139.451C139.334 145.737 138.89 144.325 138.12 143.064C137.373 141.804 136.346 140.801 135.039 140.054C133.756 139.284 132.25 138.898 130.523 138.898C128.54 138.898 126.871 139.295 125.517 140.089C124.187 140.859 123.125 141.909 122.331 143.239C121.561 144.546 121.001 146.005 120.651 147.616C120.324 149.203 120.161 150.825 120.161 152.482V153.952C120.161 155.609 120.324 157.243 120.651 158.853C120.978 160.464 121.526 161.922 122.296 163.229C123.09 164.536 124.152 165.587 125.482 166.38C126.836 167.15 128.516 167.535 130.523 167.535ZM161.556 118.383V172.157H155.045V118.383H161.556ZM184.697 134.277L168.173 151.957L158.931 161.549L158.406 154.652L165.022 146.74L176.785 134.277H184.697ZM178.781 172.157L165.267 154.092L168.628 148.316L186.413 172.157H178.781Z" fill="black"/>
<path d="M197.946 121.184H206.838L219.931 158.608L233.024 121.184H241.917L223.502 172.157H216.36L197.946 121.184ZM193.15 121.184H202.007L203.617 157.663V172.157H193.15V121.184ZM237.856 121.184H246.748V172.157H236.245V157.663L237.856 121.184ZM277.921 163.615V146.74C277.921 145.527 277.723 144.488 277.326 143.625C276.929 142.738 276.311 142.049 275.47 141.559C274.653 141.069 273.592 140.824 272.285 140.824C271.164 140.824 270.196 141.022 269.379 141.419C268.562 141.792 267.932 142.341 267.488 143.064C267.045 143.765 266.823 144.593 266.823 145.55H256.741C256.741 143.94 257.114 142.411 257.861 140.964C258.608 139.517 259.693 138.245 261.117 137.148C262.54 136.028 264.233 135.152 266.193 134.522C268.177 133.892 270.394 133.577 272.845 133.577C275.785 133.577 278.399 134.067 280.687 135.047C282.974 136.028 284.771 137.498 286.078 139.459C287.408 141.419 288.073 143.87 288.073 146.81V163.019C288.073 165.097 288.202 166.8 288.459 168.131C288.715 169.438 289.089 170.581 289.579 171.561V172.157H279.391C278.901 171.13 278.528 169.846 278.271 168.306C278.038 166.742 277.921 165.178 277.921 163.615ZM279.251 149.086L279.321 154.792H273.685C272.355 154.792 271.199 154.944 270.219 155.247C269.239 155.551 268.434 155.983 267.803 156.543C267.173 157.08 266.706 157.71 266.403 158.433C266.123 159.157 265.983 159.95 265.983 160.814C265.983 161.677 266.181 162.459 266.578 163.159C266.975 163.836 267.547 164.373 268.294 164.77C269.04 165.143 269.916 165.33 270.919 165.33C272.436 165.33 273.755 165.027 274.875 164.42C275.995 163.813 276.859 163.066 277.466 162.179C278.096 161.292 278.423 160.452 278.446 159.659L281.107 163.93C280.733 164.886 280.22 165.878 279.566 166.905C278.936 167.932 278.131 168.901 277.151 169.811C276.17 170.698 274.992 171.433 273.615 172.017C272.238 172.577 270.604 172.857 268.714 172.857C266.31 172.857 264.128 172.378 262.167 171.421C260.23 170.441 258.69 169.099 257.546 167.395C256.426 165.668 255.865 163.708 255.865 161.514C255.865 159.53 256.239 157.768 256.986 156.228C257.733 154.687 258.83 153.392 260.277 152.342C261.747 151.268 263.579 150.463 265.773 149.926C267.967 149.366 270.511 149.086 273.405 149.086H279.251ZM316.551 134.277V141.419H294.495V134.277H316.551ZM299.957 124.93H310.039V160.744C310.039 161.841 310.179 162.681 310.459 163.264C310.763 163.848 311.206 164.256 311.79 164.49C312.373 164.7 313.108 164.805 313.995 164.805C314.625 164.805 315.186 164.781 315.676 164.735C316.189 164.665 316.621 164.595 316.971 164.525L317.006 171.947C316.142 172.227 315.209 172.448 314.205 172.612C313.202 172.775 312.093 172.857 310.879 172.857C308.662 172.857 306.725 172.495 305.068 171.772C303.434 171.025 302.174 169.834 301.287 168.201C300.4 166.567 299.957 164.42 299.957 161.759V124.93ZM340.092 164.98C341.329 164.98 342.426 164.746 343.383 164.28C344.34 163.79 345.087 163.113 345.623 162.249C346.184 161.362 346.475 160.324 346.499 159.133H355.986C355.963 161.794 355.251 164.163 353.85 166.24C352.45 168.294 350.571 169.916 348.214 171.106C345.857 172.273 343.219 172.857 340.302 172.857C337.361 172.857 334.794 172.367 332.6 171.386C330.43 170.406 328.621 169.053 327.174 167.325C325.727 165.575 324.642 163.544 323.918 161.234C323.195 158.9 322.833 156.403 322.833 153.742V152.727C322.833 150.043 323.195 147.546 323.918 145.235C324.642 142.901 325.727 140.871 327.174 139.143C328.621 137.393 330.43 136.028 332.6 135.047C334.771 134.067 337.315 133.577 340.232 133.577C343.336 133.577 346.055 134.172 348.389 135.363C350.746 136.553 352.59 138.257 353.92 140.474C355.274 142.668 355.963 145.27 355.986 148.281H346.499C346.475 147.02 346.207 145.877 345.693 144.85C345.203 143.823 344.48 143.006 343.523 142.399C342.589 141.769 341.434 141.454 340.057 141.454C338.587 141.454 337.385 141.769 336.451 142.399C335.518 143.006 334.794 143.846 334.281 144.92C333.767 145.97 333.405 147.172 333.195 148.526C333.009 149.856 332.915 151.256 332.915 152.727V153.742C332.915 155.212 333.009 156.624 333.195 157.978C333.382 159.332 333.732 160.534 334.246 161.584C334.782 162.634 335.518 163.463 336.451 164.07C337.385 164.676 338.598 164.98 340.092 164.98ZM373.821 118.383V172.157H363.738V118.383H373.821ZM372.385 151.887H369.62C369.643 149.249 369.993 146.822 370.67 144.605C371.347 142.364 372.315 140.427 373.576 138.793C374.836 137.136 376.341 135.853 378.092 134.942C379.866 134.032 381.826 133.577 383.973 133.577C385.84 133.577 387.532 133.846 389.05 134.382C390.59 134.896 391.909 135.736 393.006 136.903C394.126 138.047 394.989 139.552 395.596 141.419C396.203 143.286 396.506 145.55 396.506 148.211V172.157H386.354V148.141C386.354 146.46 386.109 145.142 385.619 144.185C385.152 143.204 384.463 142.516 383.553 142.119C382.666 141.699 381.569 141.489 380.262 141.489C378.815 141.489 377.578 141.757 376.551 142.294C375.548 142.831 374.743 143.578 374.136 144.535C373.529 145.468 373.086 146.565 372.806 147.826C372.525 149.086 372.385 150.44 372.385 151.887Z" fill="#D74315"/>
<defs>
<clipPath id="clip0_5296_28862">
<rect width="76.4775" height="76.4775" fill="white" transform="translate(162.261 4.77985)"/>
</clipPath>
</defs>
</svg>
