<svg width="40" height="40" viewBox="0 0 40 40" fill="none" xmlns="http://www.w3.org/2000/svg">
<path d="M0 20C0 8.95431 8.95431 0 20 0C31.0457 0 40 8.95431 40 20C40 31.0457 31.0457 40 20 40C8.95431 40 0 31.0457 0 20Z" fill="#DFF6FB"/>
<path d="M12.8181 23.3333H10.8359C10.8359 23.6648 10.9676 23.9827 11.2021 24.2171C11.4365 24.4515 11.7544 24.5832 12.0859 24.5832H12.3047C12.3456 24.1243 12.5246 23.6885 12.8181 23.3333ZM22.5025 23.3333H16.3537C16.6472 23.6885 16.8261 24.1243 16.867 24.5832H22.5025C22.613 24.5832 22.719 24.5393 22.7971 24.4612C22.8753 24.3831 22.9192 24.2771 22.9192 24.1666V23.7499C22.9192 23.6394 22.8753 23.5334 22.7971 23.4553C22.719 23.3772 22.613 23.3333 22.5025 23.3333Z" fill="#17A2B8"/>
<path d="M14.5833 26.2499C15.3887 26.2499 16.0416 25.597 16.0416 24.7916C16.0416 23.9862 15.3887 23.3333 14.5833 23.3333C13.7779 23.3333 13.125 23.9862 13.125 24.7916C13.125 25.597 13.7779 26.2499 14.5833 26.2499Z" fill="#17A2B8"/>
<path d="M29.8132 20.7489L28.2122 17.2269C28.0795 16.9359 27.866 16.6891 27.5971 16.516C27.3281 16.3428 27.0151 16.2505 26.6953 16.25H24.1667C24.0562 16.25 23.9502 16.2939 23.872 16.372C23.7939 16.4502 23.75 16.5562 23.75 16.6667V23.222C24.0521 22.9003 24.4407 22.6728 24.869 22.5668C25.2974 22.4609 25.7473 22.4811 26.1645 22.6249C26.5816 22.7688 26.9483 23.0302 27.2204 23.3776C27.4924 23.7251 27.6582 24.1438 27.6978 24.5833H28.75C29.0815 24.5833 29.3994 24.4516 29.6338 24.2171C29.8683 23.9827 29.9999 23.6648 29.9999 23.3333V21.611C30 21.3136 29.9363 21.0196 29.8132 20.7489ZM27.9135 20.4166H25.2083C25.0978 20.4166 24.9918 20.3727 24.9137 20.2946C24.8356 20.2164 24.7917 20.1105 24.7917 20V18.3333C24.7917 18.2228 24.8356 18.1168 24.9137 18.0387C24.9919 17.9605 25.0978 17.9166 25.2083 17.9166H26.8877C27.0476 17.9166 27.2043 17.9626 27.3388 18.0492C27.4733 18.1358 27.5801 18.2593 27.6463 18.4049L28.2929 19.8275C28.3218 19.891 28.3342 19.9607 28.3292 20.0303C28.3241 20.0998 28.3017 20.167 28.2639 20.2256C28.2261 20.2842 28.1743 20.3324 28.1131 20.3658C28.0518 20.3992 27.9832 20.4167 27.9135 20.4166V20.4166Z" fill="#17A2B8"/>
<path d="M25.4192 26.2499C26.2246 26.2499 26.8776 25.597 26.8776 24.7916C26.8776 23.9862 26.2246 23.3333 25.4192 23.3333C24.6138 23.3333 23.9609 23.9862 23.9609 24.7916C23.9609 25.597 24.6138 26.2499 25.4192 26.2499Z" fill="#17A2B8"/>
<path d="M21.6667 13.75H12.0835C11.7519 13.75 11.434 13.8817 11.1996 14.1161C10.9652 14.3505 10.8335 14.6685 10.8335 15V19.9999H10.4389C10.2316 19.9999 10.0392 20.1417 10.0059 20.3466C9.99573 20.4064 9.99876 20.4677 10.0147 20.5262C10.0307 20.5847 10.0593 20.639 10.0984 20.6853C10.1375 20.7317 10.1863 20.7689 10.2413 20.7945C10.2963 20.82 10.3562 20.8333 10.4168 20.8333H11.4364C11.6439 20.8333 11.8363 20.9751 11.8696 21.18C11.8798 21.2398 11.8767 21.3011 11.8608 21.3596C11.8448 21.4181 11.8162 21.4724 11.7771 21.5187C11.738 21.565 11.6892 21.6023 11.6342 21.6278C11.5792 21.6534 11.5193 21.6666 11.4587 21.6667H10.4391C10.2316 21.6666 10.0392 21.8085 10.0059 22.0133C9.99573 22.073 9.99876 22.1343 10.0147 22.1928C10.0307 22.2513 10.0593 22.3056 10.0984 22.352C10.1375 22.3983 10.1863 22.4355 10.2413 22.4611C10.2963 22.4867 10.3562 22.4999 10.4168 22.4999H22.5001C22.6106 22.4999 22.7166 22.456 22.7947 22.3779C22.8728 22.2997 22.9167 22.1938 22.9167 22.0833V15C22.9167 14.6685 22.785 14.3505 22.5506 14.1161C22.3162 13.8817 21.9983 13.75 21.6667 13.75Z" fill="#17A2B8"/>
</svg>
