<svg width="30" height="30" viewBox="0 0 30 30" fill="none" xmlns="http://www.w3.org/2000/svg">
<path d="M23.7958 16.3851L22.2125 10.6884C21.7484 9.01951 20.7398 7.55364 19.3469 6.52379C17.9541 5.49394 16.257 4.95922 14.5254 5.00462C12.7938 5.05002 11.127 5.67294 9.79004 6.77436C8.45308 7.87578 7.52266 9.39249 7.14665 11.0834L5.92082 16.5959C5.78541 17.205 5.78854 17.8368 5.92998 18.4445C6.07141 19.0522 6.34754 19.6205 6.73797 20.1072C7.1284 20.5939 7.62317 20.9868 8.18574 21.2567C8.74832 21.5266 9.36434 21.6668 9.98832 21.6667H10.9167C11.1079 22.6086 11.6189 23.4555 12.3631 24.0637C13.1073 24.672 14.0389 25.0042 15 25.0042C15.9611 25.0042 16.8927 24.672 17.6369 24.0637C18.381 23.4555 18.8921 22.6086 19.0833 21.6667H19.7817C20.424 21.6668 21.0576 21.5183 21.6331 21.2329C22.2086 20.9476 22.7103 20.533 23.099 20.0216C23.4877 19.5103 23.753 18.9159 23.874 18.2851C23.995 17.6543 23.9677 17.004 23.7958 16.3851ZM15 23.3334C14.4848 23.3313 13.9828 23.17 13.5627 22.8717C13.1427 22.5733 12.8251 22.1525 12.6533 21.6667H17.3467C17.1749 22.1525 16.8573 22.5733 16.4372 22.8717C16.0172 23.17 15.5152 23.3313 15 23.3334ZM21.7717 19.0126C21.5394 19.3206 21.2386 19.5703 20.893 19.7417C20.5474 19.9131 20.1666 20.0016 19.7808 20.0001H9.98832C9.61397 20 9.24442 19.9159 8.90694 19.7539C8.56945 19.5919 8.27266 19.3562 8.03845 19.0641C7.80425 18.7721 7.63862 18.4312 7.55379 18.0666C7.46895 17.702 7.46709 17.323 7.54832 16.9576L8.77332 11.4442C9.06861 10.1161 9.79941 8.92474 10.8495 8.05961C11.8997 7.19448 13.2088 6.70521 14.569 6.66958C15.9291 6.63395 17.2621 7.054 18.3561 7.86296C19.4501 8.67192 20.2422 9.82336 20.6067 11.1342L22.19 16.8309C22.2946 17.202 22.3113 17.5925 22.2386 17.9712C22.166 18.3499 22.0061 18.7064 21.7717 19.0126Z" fill="#797979"/>
</svg>
