<svg width="40" height="40" viewBox="0 0 40 40" fill="none" xmlns="http://www.w3.org/2000/svg">
<path d="M0 20C0 8.95431 8.95431 0 20 0C31.0457 0 40 8.95431 40 20C40 31.0457 31.0457 40 20 40C8.95431 40 0 31.0457 0 20Z" fill="#E3F5F9"/>
<g clip-path="url(#clip0_8451_122818)">
<path d="M28.8852 29.2594L27.3009 23.463C27.2653 23.3326 27.1857 23.2186 27.0756 23.1402C24.5643 21.3517 25.3875 21.9379 23.2406 20.4091C24.0555 19.5717 24.5253 18.4396 24.5253 17.2545C24.5253 14.892 24.541 14.7627 24.4717 14.3317C24.4461 11.8585 22.5717 9.99988 20.0911 9.99988H19.9089C17.4283 9.99988 15.5539 11.8585 15.5283 14.3317C15.4591 14.7627 15.4748 14.8919 15.4748 17.2545C15.4748 18.4395 15.9445 19.5716 16.7595 20.4091C14.0426 22.3438 15.6301 21.2133 12.9244 23.1402C12.8143 23.2186 12.7347 23.3326 12.6991 23.463L11.1148 29.2595C11.0129 29.6321 11.2939 29.9999 11.68 29.9999H19.4141V23.8078L20 23.4228L20.586 23.8078V29.9999H28.3201C28.7064 29.9999 28.987 29.6318 28.8852 29.2594ZM19.6174 11.8984H20.3827C20.7063 11.8984 20.9686 12.1607 20.9686 12.4843C20.9686 12.8079 20.7063 13.0703 20.3827 13.0703H19.6174C19.2938 13.0703 19.0315 12.8079 19.0315 12.4843C19.0315 12.1607 19.2938 11.8984 19.6174 11.8984ZM19.4141 22.4056L18.1253 23.2525L16.406 22.0995L17.7225 21.162C18.2423 21.4647 18.8175 21.6603 19.4141 21.7373V22.4056ZM20 20.603C18.1389 20.603 16.6466 19.0926 16.6466 17.2545C16.6466 16.8349 16.6461 16.4877 16.6458 16.1969L16.9608 16.6568C17.0146 16.7353 17.0867 16.7996 17.1709 16.844C17.2552 16.8884 17.3489 16.9116 17.4441 16.9116H22.5559C22.6511 16.9116 22.7449 16.8884 22.8291 16.844C22.9134 16.7996 22.9855 16.7353 23.0393 16.6568L23.3543 16.1969C23.3539 16.4876 23.3534 16.8349 23.3534 17.2545C23.3534 19.0761 21.8777 20.603 20 20.603ZM20.5859 22.4056V21.7373C21.1826 21.6604 21.7578 21.4648 22.2775 21.1619L23.594 22.0994L21.8748 23.2524L20.5859 22.4056ZM24.9777 27.5035H22.9231C22.5995 27.5035 22.3371 27.2412 22.3371 26.9176C22.3371 26.594 22.5995 26.3316 22.9231 26.3316H24.9777C25.3013 26.3316 25.5636 26.594 25.5636 26.9176C25.5636 27.2412 25.3013 27.5035 24.9777 27.5035Z" fill="#088093"/>
</g>
<defs>
<clipPath id="clip0_8451_122818">
<rect width="20" height="20" fill="white" transform="translate(10 10)"/>
</clipPath>
</defs>
</svg>
