<svg width="40" height="40" viewBox="0 0 40 40" fill="none" xmlns="http://www.w3.org/2000/svg">
<path d="M0 20C0 8.95431 8.95431 0 20 0C31.0457 0 40 8.95431 40 20C40 31.0457 31.0457 40 20 40C8.95431 40 0 31.0457 0 20Z" fill="#FFEBDE"/>
<g clip-path="url(#clip0_8451_122833)">
<mask id="mask0_8451_122833" style="mask-type:luminance" maskUnits="userSpaceOnUse" x="10" y="10" width="20" height="20">
<path d="M30 10H10V30H30V10Z" fill="white"/>
</mask>
<g mask="url(#mask0_8451_122833)">
<path d="M28.3307 27.7083C28.3307 28.0499 28.0474 28.3333 27.7057 28.3333H12.2891C11.9474 28.3333 11.6641 28.0499 11.6641 27.7083C11.6641 27.3666 11.9474 27.0833 12.2891 27.0833H27.7057C28.0474 27.0833 28.3307 27.3666 28.3307 27.7083Z" fill="#FD7E14"/>
<path d="M22.8177 13.7665L13.8677 22.7165C13.526 23.0582 12.976 23.0582 12.6427 22.7165H12.6344C11.476 21.5498 11.476 19.6665 12.6344 18.5082L18.5927 12.5498C19.7593 11.3831 21.6427 11.3831 22.8093 12.5498C23.151 12.8748 23.151 13.4331 22.8177 13.7665Z" fill="#FD7E14"/>
<path d="M27.3479 17.0753L24.8062 14.5336C24.4646 14.1919 23.9145 14.1919 23.5812 14.5336L14.6312 23.4836C14.2896 23.8169 14.2896 24.3669 14.6312 24.7086L17.1729 27.2586C18.3395 28.4169 20.2229 28.4169 21.3896 27.2586L27.3396 21.3003C28.5229 20.1336 28.5229 18.2419 27.3479 17.0753ZM20.6312 24.6003L19.6229 25.6169C19.4145 25.8253 19.0729 25.8253 18.8562 25.6169C18.6479 25.4086 18.6479 25.0669 18.8562 24.8503L19.8729 23.8336C20.0729 23.6336 20.4229 23.6336 20.6312 23.8336C20.8396 24.0419 20.8396 24.4003 20.6312 24.6003ZM23.9396 21.2919L21.9062 23.3336C21.6979 23.5336 21.3562 23.5336 21.1396 23.3336C20.9312 23.1253 20.9312 22.7836 21.1396 22.5669L23.1812 20.5253C23.3812 20.3253 23.7312 20.3253 23.9396 20.5253C24.1479 20.7419 24.1479 21.0836 23.9396 21.2919Z" fill="#FD7E14"/>
</g>
</g>
<defs>
<clipPath id="clip0_8451_122833">
<rect width="20" height="20" fill="white" transform="translate(10 10)"/>
</clipPath>
</defs>
</svg>
