<svg width="40" height="40" viewBox="0 0 40 40" fill="none" xmlns="http://www.w3.org/2000/svg">
<path d="M0 20C0 8.95431 8.95431 0 20 0C31.0457 0 40 8.95431 40 20C40 31.0457 31.0457 40 20 40C8.95431 40 0 31.0457 0 20Z" fill="#E7F7E7"/>
<g clip-path="url(#clip0_8451_122788)">
<path d="M19.1079 21.4516L16.6121 27.805C16.4446 28.2375 15.9487 28.4433 15.5321 28.2758C15.1029 28.1075 14.8921 27.6241 15.0612 27.1958L16.9146 22.4775C17.6254 22.0683 18.3054 21.4566 18.9571 21.0666L19.1087 21.4516H19.1079ZM29.7429 14.9391C29.4654 14.4991 29.0096 14.2191 28.4921 14.1708C27.3621 14.0966 26.8904 13.875 26.0421 13.0841C25.5029 12.6208 24.9454 12.1416 24.3071 11.9083C23.8079 11.7258 23.2087 11.6483 22.5129 11.6716C21.8821 11.6958 21.3162 11.995 20.9462 12.46C20.9487 12.4666 24.4179 21.2933 24.4179 21.2933C24.8637 21.51 25.3287 21.6041 25.8612 21.6616C26.8387 21.7491 27.7871 21.2058 28.1929 20.2883L29.9012 16.4158C30.0829 15.9225 30.0246 15.3841 29.7446 14.94L29.7429 14.9391ZM24.4746 28.2758C24.9037 28.1075 25.1146 27.6241 24.9454 27.1958L19.3871 13.0458C19.0962 12.2433 18.3537 11.7041 17.4937 11.6708C16.8071 11.6475 16.1996 11.725 15.7004 11.9075C15.0621 12.1408 14.5046 12.62 13.9654 13.0833C13.1162 13.8741 12.6454 14.0958 11.5146 14.17C10.9979 14.2183 10.5421 14.4983 10.2646 14.9383C9.98372 15.3833 9.92622 15.9208 10.1271 16.4641L11.8154 20.2875C12.2212 21.205 13.1562 21.7566 14.1471 21.6608C14.5846 21.6183 14.9929 21.5291 15.3596 21.3958C15.9779 21.17 16.5546 20.7375 17.1129 20.32C17.5746 19.9741 18.0512 19.6175 18.4379 19.4758C18.9471 19.2891 19.6704 19.3366 20.0929 19.3975L23.3954 27.8041C23.5629 28.2366 24.0587 28.4425 24.4754 28.275L24.4746 28.2758Z" fill="#28A745"/>
</g>
<defs>
<clipPath id="clip0_8451_122788">
<rect width="20" height="20" fill="white" transform="translate(10 10)"/>
</clipPath>
</defs>
</svg>
