<svg width="44" height="44" viewBox="0 0 44 44" fill="none" xmlns="http://www.w3.org/2000/svg">
<rect width="44" height="44" rx="22" fill="#D74315" fill-opacity="0.1"/>
<mask id="mask0_9062_798" style="mask-type:luminance" maskUnits="userSpaceOnUse" x="13" y="13" width="18" height="18">
<path d="M30.1057 13.8945H13.8951V30.1051H30.1057V13.8945Z" fill="white"/>
</mask>
<g mask="url(#mask0_9062_798)">
<path d="M29.2019 18.0222C28.5285 17.2775 27.4035 16.9051 25.7714 16.9051H25.5813V16.8734C25.5813 15.5424 25.5813 13.8945 22.6024 13.8945H21.3982C18.4193 13.8945 18.4193 15.5504 18.4193 16.8734V16.913H18.2292C16.5892 16.913 15.4721 17.2854 14.7987 18.0301C14.0143 18.9016 14.0381 20.0741 14.1173 20.8743L14.1253 20.9298L14.1866 21.5741C14.1979 21.6928 14.2618 21.8 14.3616 21.8653C14.5516 21.9896 14.8695 22.1945 15.0601 22.3004C15.171 22.3717 15.2899 22.4351 15.4087 22.4984C16.7635 23.2432 18.2529 23.7423 19.7661 23.9879C19.8374 24.7326 20.1623 25.6041 21.8973 25.6041C23.6323 25.6041 23.973 24.7405 24.0285 23.972C25.6447 23.7106 27.2054 23.1481 28.6156 22.3241C28.6632 22.3004 28.6949 22.2766 28.7345 22.2528C29.0488 22.0752 29.3749 21.8563 29.6721 21.6419C29.7616 21.5773 29.8189 21.4774 29.8311 21.3677L29.8436 21.2546L29.8832 20.8822C29.8912 20.8347 29.8912 20.7951 29.8991 20.7396C29.9625 19.9395 29.9466 18.8461 29.2019 18.0222ZM22.8638 23.4491C22.8638 24.2889 22.8638 24.4157 21.8894 24.4157C20.9149 24.4157 20.9149 24.2652 20.9149 23.4571V22.4588H22.8638V23.4491ZM19.5522 16.9051V16.8734C19.5522 15.5266 19.5522 15.0275 21.3982 15.0275H22.6024C24.4484 15.0275 24.4484 15.5345 24.4484 16.8734V16.913H19.5522V16.9051Z" fill="#D74315"/>
<path d="M29.0304 23.3745C29.3106 23.2411 29.6332 23.4632 29.6051 23.7722L29.3208 26.9046C29.1544 28.4891 28.5048 30.1053 25.0188 30.1053H18.9818C15.4959 30.1053 14.8462 28.4891 14.6798 26.9125L14.4099 23.9433C14.3821 23.6379 14.6974 23.4161 14.9768 23.5425C15.8795 23.9509 17.5458 24.6755 18.575 24.9451C18.7052 24.9792 18.8105 25.0724 18.8675 25.1943C19.3484 26.2227 20.3913 26.7699 21.8973 26.7699C23.3884 26.7699 24.4445 26.2016 24.927 25.1707C24.9841 25.0487 25.0895 24.9555 25.2197 24.9213C26.3127 24.6337 28.0863 23.8237 29.0304 23.3745Z" fill="#D74315"/>
</g>
</svg>
