<svg width="6" height="11" viewBox="0 0 6 11" fill="none" xmlns="http://www.w3.org/2000/svg">
<path d="M0.221848 0.217883C0.151552 0.287605 0.0957561 0.370555 0.0576796 0.461949C0.0196031 0.553344 -4.3054e-07 0.651373 -4.26212e-07 0.750382C-4.21884e-07 0.849391 0.0196031 0.94742 0.0576796 1.03881C0.0957561 1.13021 0.151552 1.21316 0.221848 1.28288L3.65685 4.71788C3.72714 4.7876 3.78294 4.87055 3.82102 4.96195C3.85909 5.05334 3.8787 5.15137 3.8787 5.25038C3.8787 5.34939 3.85909 5.44742 3.82102 5.53881C3.78294 5.63021 3.72714 5.71316 3.65685 5.78288L0.221849 9.21788C0.151552 9.2876 0.0957565 9.37056 0.05768 9.46195C0.0196035 9.55334 -3.71373e-08 9.65137 -3.28095e-08 9.75038C-2.84817e-08 9.84939 0.0196035 9.94742 0.05768 10.0388C0.0957565 10.1302 0.151552 10.2132 0.221849 10.2829C0.362371 10.4226 0.552459 10.501 0.750599 10.501C0.948738 10.501 1.13883 10.4226 1.27935 10.2829L4.72185 6.84038C5.1432 6.41851 5.37987 5.84663 5.37987 5.25038C5.37987 4.65413 5.1432 4.08226 4.72185 3.66038L1.27935 0.217883C1.13883 0.0781946 0.948738 -0.000212711 0.750598 -0.000212702C0.552459 -0.000212694 0.36237 0.0781946 0.221848 0.217883Z" fill="#D74315"/>
</svg>
