<svg width="7" height="13" viewBox="0 0 7 13" fill="none" xmlns="http://www.w3.org/2000/svg">
<path d="M4.27517 6.74694C4.35718 6.6656 4.42228 6.56882 4.4667 6.4622C4.51112 6.35557 4.53399 6.2412 4.53399 6.12569C4.53399 6.01018 4.51112 5.89582 4.4667 5.78919C4.42228 5.68256 4.35718 5.58579 4.27517 5.50444L0.258922 1.49694C0.176909 1.4156 0.111814 1.31883 0.0673909 1.2122C0.0229683 1.10557 9.77516e-05 0.991204 9.77516e-05 0.875693C9.77516e-05 0.760183 0.0229683 0.645816 0.0673909 0.539189C0.111814 0.432562 0.176909 0.335786 0.258922 0.254443C0.422863 0.0914738 0.644634 0 0.875796 0C1.10696 0 1.32873 0.0914738 1.49267 0.254443L5.50892 4.27069C6.0005 4.76288 6.27661 5.43007 6.27661 6.12569C6.27661 6.82132 6.0005 7.4885 5.50892 7.98069L1.49267 11.9969C1.32969 12.1586 1.10972 12.2497 0.880171 12.2507C0.765016 12.2514 0.65086 12.2293 0.544252 12.1857C0.437645 12.1422 0.340682 12.078 0.258922 11.9969C0.176909 11.9156 0.111814 11.8188 0.0673909 11.7122C0.0229683 11.6056 9.77516e-05 11.4912 9.77516e-05 11.3757C9.77516e-05 11.2602 0.0229683 11.1458 0.0673909 11.0392C0.111814 10.9326 0.176909 10.8358 0.258922 10.7544L4.27517 6.74694Z" fill="#161212"/>
</svg>
