<svg width="7" height="13" viewBox="0 0 7 13" fill="none" xmlns="http://www.w3.org/2000/svg">
<path d="M0.271148 0.265758C0.185231 0.350974 0.117036 0.452357 0.0704978 0.564061C0.0239598 0.675766 0 0.795579 0 0.91659C0 1.0376 0.0239598 1.15741 0.0704978 1.26912C0.117036 1.38082 0.185231 1.48221 0.271148 1.56742L4.46948 5.76576C4.5554 5.85097 4.62359 5.95236 4.67013 6.06406C4.71667 6.17577 4.74063 6.29558 4.74063 6.41659C4.74063 6.5376 4.71667 6.65742 4.67013 6.76912C4.62359 6.88082 4.5554 6.98221 4.46948 7.06742L0.271148 11.2658C0.185231 11.351 0.117036 11.4524 0.0704978 11.5641C0.0239598 11.6758 0 11.7956 0 11.9166C0 12.0376 0.0239598 12.1574 0.0704978 12.2691C0.117036 12.3808 0.185231 12.4822 0.271148 12.5674C0.442897 12.7382 0.675228 12.834 0.917398 12.834C1.15957 12.834 1.3919 12.7382 1.56365 12.5674L5.77115 8.35992C6.28613 7.8443 6.5754 7.14534 6.5754 6.41659C6.5754 5.68784 6.28613 4.98888 5.77115 4.47326L1.56365 0.265758C1.3919 0.0950276 1.15957 -0.000803868 0.917398 -0.000803868C0.675228 -0.000803868 0.442897 0.0950276 0.271148 0.265758Z" fill="#161212"/>
</svg>
