<svg width="7" height="13" viewBox="0 0 7 13" fill="none" xmlns="http://www.w3.org/2000/svg">
<path d="M2.00144 6.74694C1.91943 6.6656 1.85433 6.56882 1.80991 6.4622C1.76549 6.35557 1.74262 6.2412 1.74262 6.12569C1.74262 6.01018 1.76549 5.89582 1.80991 5.78919C1.85433 5.68256 1.91943 5.58579 2.00144 5.50444L6.01769 1.49694C6.0997 1.4156 6.1648 1.31883 6.20922 1.2122C6.25364 1.10557 6.27651 0.991204 6.27651 0.875693C6.27651 0.760183 6.25364 0.645816 6.20922 0.539189C6.1648 0.432562 6.0997 0.335786 6.01769 0.254443C5.85375 0.0914738 5.63198 0 5.40082 0C5.16965 0 4.94788 0.0914738 4.78394 0.254443L0.76769 4.27069C0.276113 4.76288 0 5.43007 0 6.12569C0 6.82132 0.276113 7.4885 0.76769 7.98069L4.78394 11.9969C4.94692 12.1586 5.16689 12.2497 5.39644 12.2507C5.5116 12.2514 5.62575 12.2293 5.73236 12.1857C5.83897 12.1422 5.93593 12.078 6.01769 11.9969C6.0997 11.9156 6.1648 11.8188 6.20922 11.7122C6.25364 11.6056 6.27651 11.4912 6.27651 11.3757C6.27651 11.2602 6.25364 11.1458 6.20922 11.0392C6.1648 10.9326 6.0997 10.8358 6.01769 10.7544L2.00144 6.74694Z" fill="#161212"/>
</svg>
