<svg width="24" height="24" viewBox="0 0 24 24" fill="none" xmlns="http://www.w3.org/2000/svg">
<path d="M11.6274 19.2553C7.42284 19.2553 3.99969 15.8322 3.99969 11.6277C3.99969 7.42315 7.42284 4 11.6274 4C15.8319 4 19.255 7.42315 19.255 11.6277C19.255 15.8322 15.8319 19.2553 11.6274 19.2553ZM11.6274 5.11624C8.03306 5.11624 5.11594 8.0408 5.11594 11.6277C5.11594 15.2145 8.03306 18.1391 11.6274 18.1391C15.2217 18.1391 18.1388 15.2145 18.1388 11.6277C18.1388 8.0408 15.2217 5.11624 11.6274 5.11624Z" fill="#797979"/>
<path d="M19.4409 20.0002C19.2996 20.0002 19.1582 19.9481 19.0465 19.8365L17.5582 18.3481C17.3424 18.1323 17.3424 17.7751 17.5582 17.5593C17.774 17.3435 18.1312 17.3435 18.347 17.5593L19.8354 19.0476C20.0512 19.2634 20.0512 19.6206 19.8354 19.8365C19.7237 19.9481 19.5823 20.0002 19.4409 20.0002Z" fill="#797979"/>
</svg>
