<svg width="16" height="16" viewBox="0 0 16 16" fill="none" xmlns="http://www.w3.org/2000/svg">
<mask id="mask0_9063_51013" style="mask-type:luminance" maskUnits="userSpaceOnUse" x="0" y="0" width="16" height="16">
<path d="M16 0H0V16H16V0Z" fill="white"/>
</mask>
<g mask="url(#mask0_9063_51013)">
<path d="M14.6676 4.8335H10.6676C10.3943 4.8335 10.1676 4.60683 10.1676 4.3335C10.1676 4.06016 10.3943 3.8335 10.6676 3.8335H14.6676C14.9409 3.8335 15.1676 4.06016 15.1676 4.3335C15.1676 4.60683 14.9409 4.8335 14.6676 4.8335Z" fill="#797979"/>
<path d="M4.00065 4.8335H1.33398C1.06065 4.8335 0.833984 4.60683 0.833984 4.3335C0.833984 4.06016 1.06065 3.8335 1.33398 3.8335H4.00065C4.27398 3.8335 4.50065 4.06016 4.50065 4.3335C4.50065 4.60683 4.27398 4.8335 4.00065 4.8335Z" fill="#797979"/>
<path d="M6.66732 7.16715C5.10732 7.16715 3.83398 5.89382 3.83398 4.33382C3.83398 2.77382 5.10732 1.50049 6.66732 1.50049C8.22732 1.50049 9.50065 2.77382 9.50065 4.33382C9.50065 5.89382 8.22732 7.16715 6.66732 7.16715ZM6.66732 2.50049C5.65398 2.50049 4.83398 3.32049 4.83398 4.33382C4.83398 5.34715 5.65398 6.16715 6.66732 6.16715C7.68065 6.16715 8.50065 5.34715 8.50065 4.33382C8.50065 3.32049 7.68065 2.50049 6.66732 2.50049Z" fill="#797979"/>
<path d="M14.6669 12.167H12.0002C11.7269 12.167 11.5002 11.9403 11.5002 11.667C11.5002 11.3937 11.7269 11.167 12.0002 11.167H14.6669C14.9402 11.167 15.1669 11.3937 15.1669 11.667C15.1669 11.9403 14.9402 12.167 14.6669 12.167Z" fill="#797979"/>
<path d="M5.33398 12.167H1.33398C1.06065 12.167 0.833984 11.9403 0.833984 11.667C0.833984 11.3937 1.06065 11.167 1.33398 11.167H5.33398C5.60732 11.167 5.83398 11.3937 5.83398 11.667C5.83398 11.9403 5.60732 12.167 5.33398 12.167Z" fill="#797979"/>
<path d="M9.33358 14.5002C7.77358 14.5002 6.50024 13.2268 6.50024 11.6668C6.50024 10.1068 7.77358 8.8335 9.33358 8.8335C10.8936 8.8335 12.1669 10.1068 12.1669 11.6668C12.1669 13.2268 10.8936 14.5002 9.33358 14.5002ZM9.33358 9.8335C8.32024 9.8335 7.50024 10.6535 7.50024 11.6668C7.50024 12.6802 8.32024 13.5002 9.33358 13.5002C10.3469 13.5002 11.1669 12.6802 11.1669 11.6668C11.1669 10.6535 10.3469 9.8335 9.33358 9.8335Z" fill="#797979"/>
</g>
</svg>
