<svg width="24" height="15" viewBox="0 0 24 15" fill="none" xmlns="http://www.w3.org/2000/svg">
<path d="M3.37861 11.5H1C1 11.8978 1.15803 12.2793 1.43934 12.5607C1.72064 12.842 2.10217 13 2.49999 13H2.76249C2.81158 12.4492 3.02639 11.9263 3.37861 11.5ZM14.9999 11.5H7.62127C7.97346 11.9263 8.18823 12.4492 8.2373 13H14.9999C15.1325 13 15.2596 12.9473 15.3534 12.8535C15.4472 12.7598 15.4999 12.6326 15.4999 12.5V12C15.4999 11.8674 15.4472 11.7402 15.3534 11.6465C15.2596 11.5527 15.1325 11.5 14.9999 11.5Z" fill="#D74315"/>
<path d="M5.49997 14.9999C6.46645 14.9999 7.24994 14.2165 7.24994 13.25C7.24994 12.2835 6.46645 11.5 5.49997 11.5C4.53349 11.5 3.75 12.2835 3.75 13.25C3.75 14.2165 4.53349 14.9999 5.49997 14.9999Z" fill="#D74315"/>
<path d="M23.7758 8.39869L21.8547 4.17233C21.6954 3.82311 21.4392 3.52697 21.1165 3.31915C20.7938 3.11132 20.4182 3.00055 20.0343 3H17C16.8674 3 16.7402 3.05268 16.6465 3.14645C16.5527 3.24022 16.5 3.3674 16.5 3.50001V11.3664C16.8625 10.9803 17.3288 10.7073 17.8429 10.5802C18.3569 10.4531 18.8967 10.4773 19.3974 10.6499C19.898 10.8225 20.338 11.1362 20.6645 11.5531C20.9909 11.9701 21.1899 12.4725 21.2373 12.9999H22.5C22.8978 12.9999 23.2793 12.8419 23.5606 12.5606C23.8419 12.2793 23.9999 11.8977 23.9999 11.4999V9.43317C23.9999 9.0763 23.9235 8.72356 23.7758 8.39869ZM21.4962 7.99993H18.25C18.1174 7.99992 17.9902 7.94724 17.8965 7.85348C17.8027 7.75972 17.75 7.63256 17.75 7.49996V5.49996C17.75 5.36735 17.8027 5.24017 17.8965 5.1464C17.9902 5.05263 18.1174 4.99995 18.25 4.99995H20.2652C20.4572 4.99993 20.6451 5.05517 20.8065 5.15907C20.968 5.26297 21.0961 5.41114 21.1756 5.58589L21.9515 7.29306C21.9861 7.36923 22.0011 7.45288 21.995 7.53633C21.9889 7.61979 21.962 7.70038 21.9167 7.77072C21.8714 7.84107 21.8091 7.89892 21.7357 7.93897C21.6622 7.97902 21.5799 8 21.4962 7.99997V7.99993Z" fill="#D74315"/>
<path d="M18.5 14.9999C19.4665 14.9999 20.2499 14.2165 20.2499 13.25C20.2499 12.2835 19.4665 11.5 18.5 11.5C17.5335 11.5 16.75 12.2835 16.75 13.25C16.75 14.2165 17.5335 14.9999 18.5 14.9999Z" fill="#D74315"/>
<path d="M14.0001 0H2.50016C2.10234 0 1.72081 0.158034 1.43951 0.439336C1.1582 0.720638 1.00017 1.10217 1.00017 1.49999V7.49994H0.526736C0.277926 7.49994 0.0470681 7.67009 0.00703713 7.91595C-0.00512473 7.9877 -0.00149002 8.06124 0.0176878 8.13144C0.0368657 8.20164 0.0711251 8.26682 0.118077 8.32242C0.165029 8.37802 0.223544 8.42271 0.289542 8.45337C0.35554 8.48404 0.427432 8.49994 0.500205 8.49996H1.72363C1.97272 8.49996 2.20354 8.67012 2.24357 8.91597C2.25573 8.98772 2.25209 9.06126 2.23292 9.13146C2.21374 9.20166 2.17948 9.26684 2.13253 9.32244C2.08557 9.37804 2.02706 9.42273 1.96106 9.45339C1.89506 9.48406 1.82317 9.49996 1.7504 9.49998H0.52697C0.277926 9.49994 0.0470681 9.67023 0.00703713 9.9159C-0.00512473 9.98765 -0.00149002 10.0612 0.0176878 10.1314C0.0368657 10.2016 0.0711251 10.2668 0.118077 10.3224C0.165029 10.378 0.223544 10.4227 0.289542 10.4533C0.35554 10.484 0.427432 10.4999 0.500205 10.4999H15.0001C15.1327 10.4999 15.2599 10.4472 15.3536 10.3535C15.4474 10.2597 15.5001 10.1325 15.5001 9.9999V1.49999C15.5001 1.10217 15.342 0.720638 15.0607 0.439336C14.7794 0.158034 14.3979 0 14.0001 0Z" fill="#D74315"/>
</svg>
