<svg width="54" height="54" viewBox="0 0 54 54" fill="none" xmlns="http://www.w3.org/2000/svg">
<rect width="54" height="54" rx="27" fill="#FEEFEB"/>
<path d="M17.0384 21.6183L24.0534 28.6333C24.8356 29.4135 25.8953 29.8517 27.0001 29.8517C28.1049 29.8517 29.1646 29.4135 29.9468 28.6333L36.9618 21.6183C36.9734 21.75 37.0001 21.8692 37.0001 22V32C36.9988 33.1046 36.5594 34.1637 35.7782 34.9448C34.9971 35.7259 33.9381 36.1653 32.8334 36.1666H21.1668C20.0621 36.1653 19.0031 35.7259 18.2219 34.9448C17.4408 34.1637 17.0014 33.1046 17.0001 32V22C17.0001 21.8692 17.0268 21.75 17.0384 21.6183Z" fill="#161212"/>
<path d="M25.2316 27.455L17.62 19.8425C17.9887 19.2311 18.5088 18.725 19.13 18.3731C19.7512 18.0212 20.4527 17.8353 21.1666 17.8333H32.8333C33.5473 17.8353 34.2487 18.0212 34.87 18.3731C35.4912 18.725 36.0112 19.2311 36.38 19.8425L28.7683 27.455C28.2987 27.9227 27.6628 28.1854 27 28.1854C26.3371 28.1854 25.7013 27.9227 25.2316 27.455Z" fill="#161212"/>
</svg>
