<svg width="16" height="16" viewBox="0 0 16 16" fill="none" xmlns="http://www.w3.org/2000/svg">
<path d="M11.498 6.85267C11.82 7.168 12.2433 7.32533 12.6667 7.32533C13.09 7.32533 13.5133 7.168 13.8347 6.85267L15.0233 5.69C16.3233 4.39 16.3233 2.27533 15.0233 0.976C14.394 0.346667 13.5567 0 12.6667 0C11.7767 0 10.9393 0.346667 10.3093 0.976C9.01 2.276 9.01 4.39067 10.3147 5.69533L11.498 6.85267ZM13.6673 3.19133C13.6673 3.74333 13.2193 4.19133 12.6673 4.19133C12.1153 4.19133 11.6673 3.74333 11.6673 3.19133C11.6673 2.63933 12.1153 2.19133 12.6673 2.19133C13.2193 2.19133 13.6673 2.63933 13.6673 3.19133ZM2.66667 14.6667C2.66667 15.4033 2.07 16 1.33333 16C0.596667 16 0 15.4033 0 14.6667C0 13.93 0.596667 13.3333 1.33333 13.3333C2.07 13.3333 2.66667 13.93 2.66667 14.6667ZM9.66667 10.6667C9.66667 11.4033 9.07 12 8.33333 12C7.59667 12 7 11.4033 7 10.6667C7 9.93 7.59667 9.33333 8.33333 9.33333C9.07 9.33333 9.66667 9.93 9.66667 10.6667ZM1.33333 8.66667C1.33333 7.196 2.52933 6 4 6H8.66667C9.03467 6 9.33333 6.29867 9.33333 6.66667C9.33333 7.03467 9.03467 7.33333 8.66667 7.33333H4C3.26467 7.33333 2.66667 7.93133 2.66667 8.66667C2.66667 9.402 3.26467 10 4 10H5.33333C5.70133 10 6 10.2987 6 10.6667C6 11.0347 5.70133 11.3333 5.33333 11.3333H4C2.52933 11.3333 1.33333 10.1373 1.33333 8.66667ZM16 12.6667C16 14.1373 14.804 15.3333 13.3333 15.3333H4.66667C4.29867 15.3333 4 15.0347 4 14.6667C4 14.2987 4.29867 14 4.66667 14H13.3333C14.0687 14 14.6667 13.402 14.6667 12.6667C14.6667 11.9313 14.0687 11.3333 13.3333 11.3333H11.3333C10.9653 11.3333 10.6667 11.0347 10.6667 10.6667C10.6667 10.2987 10.9653 10 11.3333 10H13.3333C14.804 10 16 11.196 16 12.6667Z" fill="#797979"/>
</svg>
