<svg width="14" height="13" viewBox="0 0 14 13" fill="none" xmlns="http://www.w3.org/2000/svg">
<path d="M9.89931 3.44343C9.65201 2.38014 9.02266 1.44477 8.13087 0.81513C7.23908 0.185486 6.14702 -0.0945423 5.06228 0.0282739C3.97754 0.15109 2.97574 0.668188 2.2473 1.48128C1.51886 2.29437 1.11456 3.34677 1.11126 4.43843C1.11044 5.14988 1.28231 5.8509 1.61209 6.4813C1.01171 6.80302 0.536069 7.31616 0.26073 7.93918C-0.0146092 8.5622 -0.0738493 9.25936 0.0924218 9.91991C0.258693 10.5805 0.640938 11.1665 1.17843 11.5849C1.71591 12.0033 2.37781 12.2301 3.05896 12.2293H7.78911V8.00774L6.51308 9.28377L5.72621 8.49689L7.55872 6.66438C7.76744 6.45573 8.05047 6.33852 8.3456 6.33852C8.64072 6.33852 8.92376 6.45573 9.13247 6.66438L10.965 8.49689L10.1781 9.28377L8.90208 8.00774V12.2293C9.99229 12.2242 11.0427 11.8193 11.8543 11.0913C12.6658 10.3632 13.182 9.36275 13.3049 8.27949C13.4279 7.19623 13.1491 6.1055 12.5213 5.21413C11.8936 4.32275 10.9606 3.6927 9.89931 3.44343Z" fill="#797979"/>
</svg>
