<svg width="50" height="50" viewBox="0 0 50 50" fill="none" xmlns="http://www.w3.org/2000/svg">
<rect width="50" height="50" rx="25" fill="#FEEFEB"/>
<path d="M32.9989 19.2241C32.7728 19.1596 32.5664 19.0396 32.3985 18.875C32.2306 18.7104 32.1066 18.5064 32.0376 18.2816C31.6548 16.9842 31.0128 15.7779 30.1503 14.7357C29.2879 13.6936 28.223 12.8372 27.02 12.2185C25.8171 11.5999 24.5011 11.2317 23.1517 11.1362C21.8024 11.0408 20.4477 11.2202 19.1696 11.6634C17.8916 12.1067 16.7167 12.8046 15.7162 13.715C14.7157 14.6254 13.9103 15.7294 13.3487 16.96C12.7872 18.1907 12.4811 19.5225 12.4491 20.8749C12.4172 22.2272 12.6599 23.572 13.1626 24.8278C13.2781 25.0921 13.303 25.3872 13.2333 25.6671C13.1637 25.947 13.0035 26.196 12.7776 26.3753C11.7823 27.1141 11.0052 28.1082 10.5286 29.2524C10.0519 30.3967 9.89354 31.6485 10.0701 32.8753C10.3457 34.5339 11.2068 36.0388 12.4971 37.1167C13.7874 38.1947 15.4215 38.7743 17.1026 38.7503H23.7489C24.0804 38.7503 24.3983 38.6187 24.6328 38.3842C24.8672 38.1498 24.9989 37.8319 24.9989 37.5003C24.9989 37.1688 24.8672 36.8509 24.6328 36.6165C24.3983 36.382 24.0804 36.2503 23.7489 36.2503H17.1026C16.023 36.2765 14.9697 35.9151 14.1336 35.2315C13.2975 34.5479 12.734 33.5874 12.5451 32.5241C12.4254 31.7425 12.5224 30.9431 12.8257 30.2128C13.129 29.4826 13.6269 28.8496 14.2651 28.3828C14.9355 27.8818 15.4205 27.1722 15.6438 26.3656C15.8671 25.559 15.8161 24.7011 15.4989 23.9266C14.8716 22.27 14.8393 20.4469 15.4076 18.7691C15.8616 17.4548 16.6746 16.2939 17.7545 15.418C18.8344 14.542 20.138 13.986 21.5176 13.8128C21.8376 13.7716 22.16 13.7508 22.4826 13.7503C24.0989 13.745 25.6735 14.2634 26.9706 15.2278C28.2676 16.1923 29.2174 17.5509 29.6776 19.1003C29.8573 19.6908 30.181 20.2273 30.6196 20.6615C31.0582 21.0958 31.5979 21.4141 32.1901 21.5878C33.6395 22.0165 34.9233 22.8777 35.8697 24.0561C36.8162 25.2346 37.38 26.674 37.4858 28.1817C37.5916 29.6894 37.2342 31.1935 36.4616 32.4925C35.689 33.7915 34.5379 34.8235 33.1626 35.4503C32.9591 35.5546 32.7889 35.7139 32.6716 35.9102C32.5542 36.1064 32.4944 36.3317 32.4989 36.5603C32.4964 36.7672 32.546 36.9713 32.643 37.154C32.74 37.3367 32.8814 37.4921 33.0541 37.606C33.2268 37.7198 33.4253 37.7885 33.6314 37.8056C33.8376 37.8228 34.0447 37.7879 34.2339 37.7041C39.4014 35.2203 42.2089 28.6866 37.8339 22.3741C36.6292 20.8027 34.923 19.6911 32.9989 19.2241Z" fill="#D74315"/>
<path d="M33.384 30.8831C33.6184 30.6487 33.75 30.3308 33.75 29.9994C33.75 29.6679 33.6184 29.35 33.384 29.1156L31.4015 27.1331C30.6983 26.4301 29.7446 26.0352 28.7503 26.0352C27.7559 26.0352 26.8022 26.4301 26.099 27.1331L24.1165 29.1156C23.8888 29.3514 23.7628 29.6671 23.7657 29.9949C23.7685 30.3226 23.9 30.6361 24.1317 30.8679C24.3635 31.0996 24.677 31.2311 25.0048 31.2339C25.3325 31.2368 25.6483 31.1108 25.884 30.8831L27.5003 29.2669V38.7494C27.5003 39.0809 27.632 39.3988 27.8664 39.6332C28.1008 39.8677 28.4187 39.9994 28.7503 39.9994C29.0818 39.9994 29.3997 39.8677 29.6341 39.6332C29.8686 39.3988 30.0003 39.0809 30.0003 38.7494V29.2669L31.6165 30.8831C31.8509 31.1174 32.1688 31.2491 32.5003 31.2491C32.8317 31.2491 33.1496 31.1174 33.384 30.8831Z" fill="#D74315"/>
</svg>
