<svg width="24" height="24" viewBox="0 0 24 24" fill="none" xmlns="http://www.w3.org/2000/svg">
<path d="M21.3332 0.800049C22.1764 0.800049 22.8676 1.45285 22.9292 2.28085L22.9332 2.40005V21.6C22.9332 22.4432 22.2804 23.1344 21.4524 23.1952L21.3332 23.2H2.1332C1.29 23.2 0.598803 22.5472 0.537203 21.7192L0.533203 21.6V2.40005C0.533203 1.55685 1.186 0.865649 2.014 0.804049L2.1332 0.800049H21.3332ZM11.7332 4.73205L9.2644 7.20005H2.1332V21.6H8.5332V17.6C8.5332 16.7568 9.186 16.0656 10.014 16.004L10.1332 16H13.3332C14.1764 16 14.8676 16.6528 14.9292 17.4808L14.9332 17.6V21.6H21.3332V7.20005H14.202L11.7332 4.73205ZM13.3332 17.6H10.1332V21.6H13.3332V17.6ZM18.1332 16C18.5748 16 18.9332 16.3584 18.9332 16.8C18.9332 17.2416 18.5748 17.6 18.1332 17.6C17.6916 17.6 17.3332 17.2416 17.3332 16.8C17.3332 16.3584 17.6916 16 18.1332 16ZM5.3332 16C5.7748 16 6.1332 16.3584 6.1332 16.8C6.1332 17.2416 5.7748 17.6 5.3332 17.6C4.8916 17.6 4.5332 17.2416 4.5332 16.8C4.5332 16.3584 4.8916 16 5.3332 16ZM18.1332 12.8C18.5748 12.8 18.9332 13.1584 18.9332 13.6C18.9332 14.0416 18.5748 14.4 18.1332 14.4C17.6916 14.4 17.3332 14.0416 17.3332 13.6C17.3332 13.1584 17.6916 12.8 18.1332 12.8ZM5.3332 12.8C5.7748 12.8 6.1332 13.1584 6.1332 13.6C6.1332 14.0416 5.7748 14.4 5.3332 14.4C4.8916 14.4 4.5332 14.0416 4.5332 13.6C4.5332 13.1584 4.8916 12.8 5.3332 12.8ZM18.1332 9.60005C18.5748 9.60005 18.9332 9.95845 18.9332 10.4C18.9332 10.8416 18.5748 11.2 18.1332 11.2C17.6916 11.2 17.3332 10.8416 17.3332 10.4C17.3332 9.95845 17.6916 9.60005 18.1332 9.60005ZM11.7332 9.60005C12.1748 9.60005 12.5332 9.95845 12.5332 10.4C12.5332 10.8416 12.1748 11.2 11.7332 11.2C11.2916 11.2 10.9332 10.8416 10.9332 10.4C10.9332 9.95845 11.2916 9.60005 11.7332 9.60005ZM5.3332 9.60005C5.7748 9.60005 6.1332 9.95845 6.1332 10.4C6.1332 10.8416 5.7748 11.2 5.3332 11.2C4.8916 11.2 4.5332 10.8416 4.5332 10.4C4.5332 9.95845 4.8916 9.60005 5.3332 9.60005ZM21.3332 5.60005V2.40005H2.1332V5.60005H8.6004L10.602 3.60005C11.194 3.00805 12.134 2.97685 12.7628 3.50645L12.8644 3.60005L14.8652 5.60005H21.3332Z" fill="#0D1D1C"/>
</svg>
