<svg width="24" height="24" viewBox="0 0 24 24" fill="none" xmlns="http://www.w3.org/2000/svg">
<path d="M20 16.6667C20 17.7693 19.1027 18.6667 18 18.6667V19.3333C18 19.7013 17.702 20 17.3333 20C16.9647 20 16.6667 19.7013 16.6667 19.3333V18.6667H16.488C15.7767 18.6667 15.1127 18.284 14.756 17.6673C14.5713 17.3487 14.6807 16.9413 14.9987 16.7567C15.3187 16.572 15.726 16.6813 15.9093 17C16.0287 17.2053 16.25 17.3333 16.4873 17.3333H17.9993C18.3673 17.3333 18.666 17.034 18.666 16.6667C18.666 16.4147 18.4853 16.2013 18.2367 16.16L16.2093 15.822C15.3147 15.6733 14.666 14.9067 14.666 14C14.666 12.8973 15.5633 12 16.666 12V11.3333C16.666 10.9653 16.964 10.6667 17.3327 10.6667C17.7013 10.6667 17.9993 10.9653 17.9993 11.3333V12H18.178C18.8893 12 19.5533 12.3833 19.91 13C20.0947 13.3187 19.9853 13.726 19.6673 13.9107C19.3467 14.0947 18.94 13.9853 18.7567 13.6673C18.6373 13.4613 18.416 13.334 18.1787 13.334H16.6667C16.2987 13.334 16 13.6333 16 14.0007C16 14.2527 16.1807 14.466 16.4293 14.5073L18.4567 14.8453C19.3513 14.994 20 15.76 20 16.6667ZM12.6667 9.33333H17.0267C16.7953 8.72467 16.44 8.16467 15.966 7.69067L13.6433 5.36667C13.1687 4.89267 12.6087 4.53733 12 4.30667V8.66667C12 9.034 12.2987 9.33333 12.6667 9.33333ZM15.246 19.758C14.8607 19.914 14.4407 20 14 20H7.33333C5.49533 20 4 18.5047 4 16.6667V7.33333C4 5.49533 5.49533 4 7.33333 4H10.3433C10.452 4 10.5593 4.00867 10.6667 4.016V8.66667C10.6667 9.76933 11.564 10.6667 12.6667 10.6667H15.448C15.418 10.7513 15.3933 10.838 15.3747 10.9273C14.5547 11.2733 13.9007 11.9393 13.5693 12.7673C13.3913 12.7027 13.1993 12.6667 12.9993 12.6667H8.33333C7.41467 12.6667 6.66667 13.4147 6.66667 14.3333V15.6667C6.66667 16.5853 7.41467 17.3333 8.33333 17.3333H13C13.114 17.3333 13.2253 17.322 13.3327 17.3C13.326 17.66 13.4173 18.016 13.602 18.3347C13.9793 18.988 14.5647 19.484 15.246 19.7587V19.758ZM6.66667 8C6.66667 8.368 6.96533 8.66667 7.33333 8.66667H8.66667C9.03467 8.66667 9.33333 8.368 9.33333 8C9.33333 7.632 9.03467 7.33333 8.66667 7.33333H7.33333C6.96533 7.33333 6.66667 7.632 6.66667 8ZM6.66667 10.6667C6.66667 11.0347 6.96533 11.3333 7.33333 11.3333H8.66667C9.03467 11.3333 9.33333 11.0347 9.33333 10.6667C9.33333 10.2987 9.03467 10 8.66667 10H7.33333C6.96533 10 6.66667 10.2987 6.66667 10.6667ZM8.33333 14C8.14933 14 8 14.1493 8 14.3333V15.6667C8 15.8507 8.14933 16 8.33333 16H13C13.184 16 13.3333 15.8507 13.3333 15.6667V14.3333C13.3333 14.1493 13.184 14 13 14H8.33333Z" fill="#797979"/>
</svg>
