<svg width="24" height="24" viewBox="0 0 24 24" fill="none" xmlns="http://www.w3.org/2000/svg">
<path d="M10 10H5.33333C4.598 10 4 9.402 4 8.66667V7.33333C4 5.49533 5.49533 4 7.33333 4H10C10.7353 4 11.3333 4.598 11.3333 5.33333V8.66667C11.3333 9.402 10.7353 10 10 10ZM16.6667 20H14C13.2647 20 12.6667 19.402 12.6667 18.6667V15.3333C12.6667 14.598 13.2647 14 14 14H18.6667C19.402 14 20 14.598 20 15.3333V16.6667C20 18.5047 18.5047 20 16.6667 20ZM18.6667 12.6667H14C13.2647 12.6667 12.6667 12.0687 12.6667 11.3333V5.33333C12.6667 4.598 13.2647 4 14 4H16.6667C18.5047 4 20 5.49533 20 7.33333V11.3333C20 12.0687 19.402 12.6667 18.6667 12.6667ZM10 20H7.33333C5.49533 20 4 18.5047 4 16.6667V12.6667C4 11.9313 4.598 11.3333 5.33333 11.3333H10C10.7353 11.3333 11.3333 11.9313 11.3333 12.6667V18.6667C11.3333 19.402 10.7353 20 10 20Z" fill="#797979"/>
</svg>
