<svg width="24" height="24" viewBox="0 0 24 24" fill="none" xmlns="http://www.w3.org/2000/svg">
<path d="M19.1082 19.4077L17.8407 14.7705C17.8122 14.6662 17.7486 14.5749 17.6605 14.5122C15.6514 13.0814 16.31 13.5504 14.5925 12.3274C15.2444 11.6574 15.6202 10.7517 15.6202 9.80369C15.6202 7.91369 15.6328 7.81025 15.5774 7.46544C15.5569 5.48694 14.0574 4 12.0729 4H11.9271C9.94266 4 8.44313 5.48694 8.42266 7.46547C8.36726 7.81028 8.37982 7.91362 8.37982 9.80372C8.37982 10.7517 8.75563 11.6574 9.4076 12.3274C7.2341 13.8752 8.5041 12.9707 6.33954 14.5122C6.25147 14.575 6.18779 14.6662 6.15929 14.7705L4.89182 19.4077C4.81035 19.7058 5.03513 20 5.34398 20H11.5313V15.0463L12 14.7384L12.4688 15.0463V20H18.6561C18.9651 20 19.1896 19.7055 19.1082 19.4077ZM11.6939 5.51881H12.3061C12.565 5.51881 12.7749 5.72869 12.7749 5.98756C12.7749 6.24644 12.565 6.45631 12.3061 6.45631H11.6939C11.435 6.45631 11.2252 6.24644 11.2252 5.98756C11.2252 5.72869 11.435 5.51881 11.6939 5.51881ZM11.5313 13.9246L10.5002 14.6021L9.12482 13.6797L10.178 12.9297C10.5939 13.1719 11.054 13.3284 11.5313 13.3899V13.9246ZM12 12.4825C10.5111 12.4825 9.31732 11.2742 9.31732 9.80372C9.31729 9.46803 9.31691 9.19022 9.3166 8.95759L9.5686 9.3255C9.61164 9.38835 9.66935 9.43975 9.73674 9.47527C9.80412 9.51079 9.87915 9.52935 9.95532 9.52934H14.0447C14.1209 9.52934 14.1959 9.51078 14.2633 9.47526C14.3307 9.43974 14.3884 9.38834 14.4314 9.3255L14.6834 8.95759C14.6831 9.19019 14.6828 9.46803 14.6828 9.80372C14.6828 11.261 13.5022 12.4825 12 12.4825ZM12.4688 13.9246V13.3899C12.9461 13.3284 13.4062 13.1719 13.822 12.9297L14.8752 13.6797L13.4998 14.602L12.4688 13.9246ZM15.9821 18.0029H14.3384C14.0796 18.0029 13.8697 17.793 13.8697 17.5342C13.8697 17.2753 14.0796 17.0654 14.3384 17.0654H15.9821C16.241 17.0654 16.4509 17.2753 16.4509 17.5342C16.4509 17.793 16.241 18.0029 15.9821 18.0029Z" fill="#797979"/>
</svg>
