<svg width="24" height="24" viewBox="0 0 24 24" fill="none" xmlns="http://www.w3.org/2000/svg">
<g clip-path="url(#clip0_8007_14259)">
<path d="M3.37873 16H1.00012C1.00012 16.3978 1.15816 16.7793 1.43946 17.0607C1.72076 17.342 2.10229 17.5 2.50011 17.5H2.76261C2.8117 16.9492 3.02651 16.4263 3.37873 16ZM15 16H7.6214C7.97358 16.4263 8.18835 16.9492 8.23742 17.5H15C15.1326 17.5 15.2598 17.4473 15.3535 17.3535C15.4473 17.2598 15.5 17.1326 15.5 17V16.5C15.5 16.3674 15.4473 16.2402 15.3535 16.1465C15.2598 16.0527 15.1326 16 15 16Z" fill="#797979"/>
<path d="M5.50009 19.4999C6.46657 19.4999 7.25006 18.7165 7.25006 17.75C7.25006 16.7835 6.46657 16 5.50009 16C4.53361 16 3.75012 16.7835 3.75012 17.75C3.75012 18.7165 4.53361 19.4999 5.50009 19.4999Z" fill="#797979"/>
<path d="M23.7758 12.8987L21.8546 8.67233C21.6953 8.32311 21.4391 8.02697 21.1164 7.81915C20.7937 7.61132 20.4181 7.50055 20.0343 7.5H17C16.8673 7.5 16.7402 7.55268 16.6464 7.64645C16.5526 7.74022 16.4999 7.8674 16.4999 8.00001V15.8664C16.8624 15.4803 17.3287 15.2073 17.8428 15.0802C18.3568 14.9531 18.8967 14.9773 19.3973 15.1499C19.8979 15.3225 20.3379 15.6362 20.6644 16.0531C20.9908 16.4701 21.1898 16.9725 21.2373 17.4999H22.4999C22.8977 17.4999 23.2792 17.3419 23.5605 17.0606C23.8418 16.7793 23.9999 16.3977 23.9999 15.9999V13.9332C23.9999 13.5763 23.9235 13.2236 23.7758 12.8987ZM21.4961 12.4999H18.2499C18.1173 12.4999 17.9902 12.4472 17.8964 12.3535C17.8026 12.2597 17.75 12.1326 17.7499 12V9.99996C17.7499 9.86735 17.8026 9.74017 17.8964 9.6464C17.9902 9.55263 18.1173 9.49995 18.25 9.49995H20.2651C20.4571 9.49993 20.645 9.55517 20.8065 9.65907C20.9679 9.76297 21.096 9.91114 21.1755 10.0859L21.9515 11.7931C21.9861 11.8692 22.001 11.9529 21.9949 12.0363C21.9889 12.1198 21.9619 12.2004 21.9166 12.2707C21.8713 12.3411 21.8091 12.3989 21.7356 12.439C21.6621 12.479 21.5798 12.5 21.4961 12.5V12.4999Z" fill="#797979"/>
<path d="M18.4999 19.4999C19.4664 19.4999 20.2499 18.7165 20.2499 17.75C20.2499 16.7835 19.4664 16 18.4999 16C17.5335 16 16.75 16.7835 16.75 17.75C16.75 18.7165 17.5335 19.4999 18.4999 19.4999Z" fill="#797979"/>
<path d="M14 4.5H2.50007C2.10224 4.5 1.72072 4.65803 1.43941 4.93934C1.15811 5.22064 1.00008 5.60217 1.00008 5.99999V11.9999H0.526644C0.277834 11.9999 0.0469765 12.1701 0.00694558 12.416C-0.00521628 12.4877 -0.00158157 12.5612 0.0175963 12.6314C0.0367741 12.7016 0.0710335 12.7668 0.117986 12.8224C0.164938 12.878 0.223453 12.9227 0.28945 12.9534C0.355448 12.984 0.42734 12.9999 0.500113 13H1.72354C1.97263 13 2.20344 13.1701 2.24347 13.416C2.25564 13.4877 2.252 13.5613 2.23282 13.6315C2.21365 13.7017 2.17939 13.7668 2.13243 13.8224C2.08548 13.878 2.02697 13.9227 1.96097 13.9534C1.89497 13.9841 1.82308 14 1.75031 14H0.526879C0.277834 13.9999 0.0469765 14.1702 0.00694558 14.4159C-0.00521628 14.4877 -0.00158157 14.5612 0.0175963 14.6314C0.0367741 14.7016 0.0710335 14.7668 0.117986 14.8224C0.164938 14.878 0.223453 14.9227 0.28945 14.9533C0.355448 14.984 0.42734 14.9999 0.500113 14.9999H15C15.1326 14.9999 15.2598 14.9472 15.3535 14.8535C15.4473 14.7597 15.5 14.6325 15.5 14.4999V5.99999C15.5 5.60217 15.342 5.22064 15.0607 4.93934C14.7794 4.65803 14.3978 4.5 14 4.5Z" fill="#797979"/>
</g>
<defs>
<clipPath id="clip0_8007_14259">
<rect width="24" height="24" fill="white"/>
</clipPath>
</defs>
</svg>
