<svg width="24" height="24" viewBox="0 0 24 24" fill="none" xmlns="http://www.w3.org/2000/svg">
<mask id="mask0_7001_8249" style="mask-type:luminance" maskUnits="userSpaceOnUse" x="4" y="4" width="16" height="16">
<path d="M20 4H4V20H20V4Z" fill="white"/>
</mask>
<g mask="url(#mask0_7001_8249)">
<path d="M19.108 8.07406C18.4433 7.33901 17.3329 6.97148 15.722 6.97148H15.5344V6.9402C15.5344 5.6265 15.5344 4 12.5942 4H11.4056C8.46539 4 8.46539 5.63432 8.46539 6.9402V6.9793H8.27772C6.65904 6.9793 5.55647 7.34683 4.89179 8.08188C4.11765 8.94204 4.1411 10.0994 4.2193 10.8891L4.22712 10.9439L4.28768 11.5798C4.29884 11.697 4.36192 11.8028 4.46036 11.8672C4.64788 11.9899 4.96172 12.1922 5.14984 12.2967C5.25932 12.367 5.37662 12.4296 5.49391 12.4922C6.83108 13.2272 8.30118 13.7199 9.79474 13.9623C9.86512 14.6973 10.1857 15.5575 11.8982 15.5575C13.6107 15.5575 13.947 14.7051 14.0017 13.9466C15.5969 13.6886 17.1374 13.1334 18.5293 12.3201C18.5762 12.2967 18.6075 12.2732 18.6466 12.2497C18.9569 12.0744 19.2787 11.8584 19.5721 11.6468C19.6604 11.583 19.717 11.4844 19.729 11.3761L19.7414 11.2645L19.7805 10.8969C19.7883 10.85 19.7883 10.8109 19.7961 10.7562C19.8586 9.96642 19.843 8.88731 19.108 8.07406ZM12.8522 13.4305C12.8522 14.2594 12.8522 14.3845 11.8904 14.3845C10.9286 14.3845 10.9286 14.236 10.9286 13.4383V12.4531H12.8522V13.4305ZM9.58361 6.97148V6.9402C9.58361 5.61086 9.58361 5.11822 11.4056 5.11822H12.5942C14.4161 5.11822 14.4161 5.61868 14.4161 6.9402V6.9793H9.58361V6.97148Z" fill="#797979"/>
<path d="M18.9387 13.3566C19.2152 13.225 19.5336 13.4442 19.506 13.7492L19.2253 16.8409C19.0611 18.4049 18.4199 20.0001 14.9792 20.0001H9.02061C5.57995 20.0001 4.93874 18.4049 4.77452 16.8487L4.5081 13.9181C4.48069 13.6166 4.79188 13.3977 5.06764 13.5225C5.95862 13.9256 7.60321 14.6408 8.61913 14.9069C8.74761 14.9405 8.85153 15.0325 8.90778 15.1528C9.38242 16.1679 10.4118 16.708 11.8983 16.708C13.37 16.708 14.4124 16.1471 14.8886 15.1295C14.945 15.0091 15.049 14.9171 15.1775 14.8833C16.2563 14.5995 18.0069 13.8 18.9387 13.3566Z" fill="#797979"/>
</g>
</svg>
