<svg width="24" height="24" viewBox="0 0 24 24" fill="none" xmlns="http://www.w3.org/2000/svg">
<path d="M20.0216 9.65818C19.676 8.72308 18.8665 8.17228 17.8913 8.21242C17.1465 8.2362 16.4009 8.25627 15.6568 8.27114C15.3261 8.29938 15.0131 8.06003 14.9106 7.73C14.6898 7.01641 14.4683 6.30356 14.243 5.59146C13.9398 4.6244 13.0604 3.99927 12.0034 3.99927C10.9464 3.99927 10.0671 4.6244 9.76379 5.59072C9.53782 6.30282 9.31631 7.01567 9.09629 7.72926C8.99371 8.06003 8.6949 8.30087 8.34999 8.27114C7.60519 8.25627 6.85963 8.23694 6.123 8.21316C5.14851 8.17451 4.32862 8.72456 3.98372 9.65892C3.60686 10.6788 3.92351 11.8093 4.7761 12.4754C5.37968 12.9385 5.97805 13.3904 6.57569 13.8364C6.85963 14.0482 6.9689 14.4273 6.84848 14.7804C6.60021 15.5081 6.3408 16.2388 6.07246 16.9702C5.70674 17.9373 5.96691 18.9452 6.7355 19.5369C7.54572 20.1621 8.69415 20.1524 9.59506 19.5102L11.4965 18.1447C11.8042 17.9247 12.2026 17.9239 12.5111 18.1447L14.4155 19.5124C14.8712 19.8365 15.3907 19.9993 15.8977 19.9993C16.3912 19.9993 16.8729 19.8454 17.2721 19.5377C18.0399 18.946 18.3001 17.938 17.9374 16.9769C17.666 16.2395 17.4081 15.5081 17.1591 14.7811C17.0379 14.4288 17.1479 14.0497 17.4312 13.8379C18.0295 13.3911 18.6286 12.9392 19.2367 12.4724C20.0841 11.8101 20.4007 10.6795 20.0239 9.65966L20.0216 9.65818Z" fill="#797979"/>
</svg>
