<svg width="24" height="24" viewBox="0 0 24 24" fill="none" xmlns="http://www.w3.org/2000/svg">
<path d="M16.6667 5.33333H16V4.66667C16 4.48986 15.9298 4.32029 15.8047 4.19526C15.6797 4.07024 15.5101 4 15.3333 4C15.1565 4 14.987 4.07024 14.8619 4.19526C14.7369 4.32029 14.6667 4.48986 14.6667 4.66667V5.33333H9.33333V4.66667C9.33333 4.48986 9.2631 4.32029 9.13807 4.19526C9.01305 4.07024 8.84348 4 8.66667 4C8.48986 4 8.32029 4.07024 8.19526 4.19526C8.07024 4.32029 8 4.48986 8 4.66667V5.33333H7.33333C6.4496 5.33439 5.60237 5.68592 4.97748 6.31081C4.35259 6.93571 4.00106 7.78294 4 8.66667L4 9.33333H20V8.66667C19.9989 7.78294 19.6474 6.93571 19.0225 6.31081C18.3976 5.68592 17.5504 5.33439 16.6667 5.33333Z" fill="#797979"/>
<path d="M4 16.667C4.00106 17.5507 4.35259 18.398 4.97748 19.0228C5.60237 19.6477 6.4496 19.9993 7.33333 20.0003H16.6667C17.5504 19.9993 18.3976 19.6477 19.0225 19.0228C19.6474 18.398 19.9989 17.5507 20 16.667V10.667H4V16.667ZM15.3333 13.667C15.5311 13.667 15.7245 13.7256 15.8889 13.8355C16.0534 13.9454 16.1815 14.1016 16.2572 14.2843C16.3329 14.467 16.3527 14.6681 16.3141 14.8621C16.2755 15.0561 16.1803 15.2342 16.0404 15.3741C15.9006 15.514 15.7224 15.6092 15.5284 15.6478C15.3344 15.6864 15.1334 15.6666 14.9507 15.5909C14.7679 15.5152 14.6117 15.387 14.5019 15.2226C14.392 15.0581 14.3333 14.8648 14.3333 14.667C14.3333 14.4018 14.4387 14.1474 14.6262 13.9599C14.8138 13.7723 15.0681 13.667 15.3333 13.667ZM12 13.667C12.1978 13.667 12.3911 13.7256 12.5556 13.8355C12.72 13.9454 12.8482 14.1016 12.9239 14.2843C12.9996 14.467 13.0194 14.6681 12.9808 14.8621C12.9422 15.0561 12.847 15.2342 12.7071 15.3741C12.5673 15.514 12.3891 15.6092 12.1951 15.6478C12.0011 15.6864 11.8 15.6666 11.6173 15.5909C11.4346 15.5152 11.2784 15.387 11.1685 15.2226C11.0586 15.0581 11 14.8648 11 14.667C11 14.4018 11.1054 14.1474 11.2929 13.9599C11.4804 13.7723 11.7348 13.667 12 13.667ZM8.66667 13.667C8.86445 13.667 9.05779 13.7256 9.22224 13.8355C9.38669 13.9454 9.51486 14.1016 9.59055 14.2843C9.66623 14.467 9.68604 14.6681 9.64745 14.8621C9.60887 15.0561 9.51363 15.2342 9.37377 15.3741C9.23392 15.514 9.05574 15.6092 8.86176 15.6478C8.66778 15.6864 8.46671 15.6666 8.28398 15.5909C8.10126 15.5152 7.94508 15.387 7.8352 15.2226C7.72532 15.0581 7.66667 14.8648 7.66667 14.667C7.66667 14.4018 7.77202 14.1474 7.95956 13.9599C8.1471 13.7723 8.40145 13.667 8.66667 13.667Z" fill="#797979"/>
</svg>
