<svg width="24" height="24" viewBox="0 0 24 24" fill="none" xmlns="http://www.w3.org/2000/svg">
<path d="M6 12.5999C4.6764 12.5999 3.6 11.5235 3.6 10.1999C3.6 8.8763 4.6764 7.7999 6 7.7999C7.3236 7.7999 8.4 8.8763 8.4 10.1999C8.4 11.5235 7.3236 12.5999 6 12.5999ZM7.062 13.0019C6.378 13.2659 5.622 13.2659 4.938 13.0019C4.764 12.9359 4.566 12.9599 4.41 13.0559C3.97833 13.3254 3.62238 13.7003 3.37569 14.1454C3.12901 14.5905 2.99972 15.091 3 15.5999V17.9999C3 18.3299 3.27 18.5999 3.6 18.5999H6.6V15.5999C6.6 14.6699 6.846 13.7639 7.29 12.9719C7.212 12.9599 7.134 12.9719 7.062 13.0019ZM18 12.5999C19.3236 12.5999 20.4 11.5235 20.4 10.1999C20.4 8.8763 19.3236 7.7999 18 7.7999C16.6764 7.7999 15.6 8.8763 15.6 10.1999C15.6 11.5235 16.6764 12.5999 18 12.5999ZM19.59 13.0559C19.434 12.9599 19.236 12.9359 19.062 13.0019C18.378 13.2659 17.622 13.2659 16.938 13.0019C16.8662 12.971 16.7873 12.9606 16.71 12.9719C17.1608 13.7746 17.3983 14.6793 17.4 15.5999V18.5999H20.4C20.73 18.5999 21 18.3299 21 17.9999V15.5999C21 14.5619 20.472 13.6139 19.59 13.0559ZM12 11.3999C10.3458 11.3999 9 10.0541 9 8.3999C9 6.7457 10.3458 5.3999 12 5.3999C13.6542 5.3999 15 6.7457 15 8.3999C15 10.0541 13.6542 11.3999 12 11.3999ZM16.2 15.5999C16.1998 14.9401 16.0438 14.2896 15.7445 13.7015C15.4453 13.1135 15.0113 12.6044 14.478 12.2159C14.298 12.0839 14.058 12.0659 13.86 12.1619C13.458 12.3659 13.032 12.4919 12.6 12.5519V15.5999C12.6 15.9299 12.33 16.1999 12 16.1999C11.67 16.1999 11.4 15.9299 11.4 15.5999V12.5519C10.968 12.4919 10.542 12.3659 10.14 12.1619C9.942 12.0659 9.702 12.0839 9.522 12.2159C8.98869 12.6044 8.55472 13.1135 8.25547 13.7015C7.95622 14.2896 7.80016 14.9401 7.8 15.5999V18.5999H16.2V15.5999Z" fill="#797979"/>
</svg>
